<svg width="24" height="25" viewBox="0 0 24 25" fill="none" xmlns="http://www.w3.org/2000/svg">
    <path d="M12 2.84863C6.5 2.84863 2 7.33863 2 12.8686C2 17.8686 5.66 22.0186 10.44 22.7686V15.7686H7.9V12.8686H10.44V10.6586C10.44 8.14863 11.93 6.76863 14.22 6.76863C15.31 6.76863 16.45 6.95863 16.45 6.95863V9.42863H15.19C13.95 9.42863 13.56 10.1986 13.56 10.9886V12.8686H16.34L15.89 15.7686H13.56V22.7686C15.9164 22.3965 18.0622 21.1941 19.6099 19.3787C21.1577 17.5632 22.0054 15.2543 22 12.8686C22 7.33863 17.5 2.84863 12 2.84863Z" fill="#6C757D"/>
    </svg>
    