<svg width="24" height="25" viewBox="0 0 24 25" fill="none" xmlns="http://www.w3.org/2000/svg">
    <path d="M12 2.80859C10.6868 2.80859 9.38642 3.06725 8.17317 3.5698C6.95991 4.07235 5.85752 4.80894 4.92893 5.73753C3.05357 7.61289 2 10.1564 2 12.8086C2 17.2286 4.87 20.9786 8.84 22.3086C9.34 22.3886 9.5 22.0786 9.5 21.8086V20.1186C6.73 20.7186 6.14 18.7786 6.14 18.7786C5.68 17.6186 5.03 17.3086 5.03 17.3086C4.12 16.6886 5.1 16.7086 5.1 16.7086C6.1 16.7786 6.63 17.7386 6.63 17.7386C7.5 19.2586 8.97 18.8086 9.54 18.5686C9.63 17.9186 9.89 17.4786 10.17 17.2286C7.95 16.9786 5.62 16.1186 5.62 12.3086C5.62 11.1986 6 10.3086 6.65 9.59859C6.55 9.34859 6.2 8.30859 6.75 6.95859C6.75 6.95859 7.59 6.68859 9.5 7.97859C10.29 7.75859 11.15 7.64859 12 7.64859C12.85 7.64859 13.71 7.75859 14.5 7.97859C16.41 6.68859 17.25 6.95859 17.25 6.95859C17.8 8.30859 17.45 9.34859 17.35 9.59859C18 10.3086 18.38 11.1986 18.38 12.3086C18.38 16.1286 16.04 16.9686 13.81 17.2186C14.17 17.5286 14.5 18.1386 14.5 19.0686V21.8086C14.5 22.0786 14.66 22.3986 15.17 22.3086C19.14 20.9686 22 17.2286 22 12.8086C22 11.4954 21.7413 10.195 21.2388 8.98176C20.7362 7.7685 19.9997 6.66611 19.0711 5.73753C18.1425 4.80894 17.0401 4.07235 15.8268 3.5698C14.6136 3.06725 13.3132 2.80859 12 2.80859Z" fill="#6C757D"/>
    </svg>
    