<svg width="24" height="25" viewBox="0 0 24 25" fill="none" xmlns="http://www.w3.org/2000/svg">
    <path d="M7.8 2.80859H16.2C19.4 2.80859 22 5.40859 22 8.60859V17.0086C22 18.5469 21.3889 20.0221 20.3012 21.1098C19.2135 22.1975 17.7383 22.8086 16.2 22.8086H7.8C4.6 22.8086 2 20.2086 2 17.0086V8.60859C2 7.07034 2.61107 5.59509 3.69878 4.50737C4.78649 3.41966 6.26174 2.80859 7.8 2.80859ZM7.6 4.80859C6.64522 4.80859 5.72955 5.18788 5.05442 5.86301C4.37928 6.53814 4 7.45381 4 8.40859V17.2086C4 19.1986 5.61 20.8086 7.6 20.8086H16.4C17.3548 20.8086 18.2705 20.4293 18.9456 19.7542C19.6207 19.079 20 18.1634 20 17.2086V8.40859C20 6.41859 18.39 4.80859 16.4 4.80859H7.6ZM17.25 6.30859C17.5815 6.30859 17.8995 6.44029 18.1339 6.67471C18.3683 6.90913 18.5 7.22707 18.5 7.55859C18.5 7.89011 18.3683 8.20806 18.1339 8.44248C17.8995 8.6769 17.5815 8.80859 17.25 8.80859C16.9185 8.80859 16.6005 8.6769 16.3661 8.44248C16.1317 8.20806 16 7.89011 16 7.55859C16 7.22707 16.1317 6.90913 16.3661 6.67471C16.6005 6.44029 16.9185 6.30859 17.25 6.30859ZM12 7.80859C13.3261 7.80859 14.5979 8.33538 15.5355 9.27306C16.4732 10.2107 17 11.4825 17 12.8086C17 14.1347 16.4732 15.4064 15.5355 16.3441C14.5979 17.2818 13.3261 17.8086 12 17.8086C10.6739 17.8086 9.40215 17.2818 8.46447 16.3441C7.52678 15.4064 7 14.1347 7 12.8086C7 11.4825 7.52678 10.2107 8.46447 9.27306C9.40215 8.33538 10.6739 7.80859 12 7.80859ZM12 9.80859C11.2044 9.80859 10.4413 10.1247 9.87868 10.6873C9.31607 11.2499 9 12.0129 9 12.8086C9 13.6042 9.31607 14.3673 9.87868 14.9299C10.4413 15.4925 11.2044 15.8086 12 15.8086C12.7956 15.8086 13.5587 15.4925 14.1213 14.9299C14.6839 14.3673 15 13.6042 15 12.8086C15 12.0129 14.6839 11.2499 14.1213 10.6873C13.5587 10.1247 12.7956 9.80859 12 9.80859Z" fill="#6C757D"/>
    </svg>
    