<svg width="24" height="25" viewBox="0 0 24 25" fill="none" xmlns="http://www.w3.org/2000/svg">
    <path d="M22.46 6.80859C21.69 7.15859 20.86 7.38859 20 7.49859C20.88 6.96859 21.56 6.12859 21.88 5.11859C21.05 5.61859 20.13 5.96859 19.16 6.16859C18.37 5.30859 17.26 4.80859 16 4.80859C13.65 4.80859 11.73 6.72859 11.73 9.09859C11.73 9.43859 11.77 9.76859 11.84 10.0786C8.27999 9.89859 5.10999 8.18859 2.99999 5.59859C2.62999 6.22859 2.41999 6.96859 2.41999 7.74859C2.41999 9.23859 3.16999 10.5586 4.32999 11.3086C3.61999 11.3086 2.95999 11.1086 2.37999 10.8086V10.8386C2.37999 12.9186 3.85999 14.6586 5.81999 15.0486C5.19072 15.2208 4.53009 15.2448 3.88999 15.1186C4.1616 15.9711 4.69353 16.717 5.41101 17.2515C6.12849 17.786 6.99544 18.0823 7.88999 18.0986C6.37362 19.299 4.49399 19.9479 2.55999 19.9386C2.21999 19.9386 1.87999 19.9186 1.53999 19.8786C3.43999 21.0986 5.69999 21.8086 8.11999 21.8086C16 21.8086 20.33 15.2686 20.33 9.59859C20.33 9.40859 20.33 9.22859 20.32 9.03859C21.16 8.43859 21.88 7.67859 22.46 6.80859Z" fill="#6C757D"/>
    </svg>
    