<svg width="24" height="25" viewBox="0 0 24 25" fill="none" xmlns="http://www.w3.org/2000/svg">
    <path d="M10 15.8086L15.19 12.8086L10 9.80859V15.8086ZM21.56 7.97859C21.69 8.44859 21.78 9.07859 21.84 9.87859C21.91 10.6786 21.94 11.3686 21.94 11.9686L22 12.8086C22 14.9986 21.84 16.6086 21.56 17.6386C21.31 18.5386 20.73 19.1186 19.83 19.3686C19.36 19.4986 18.5 19.5886 17.18 19.6486C15.88 19.7186 14.69 19.7486 13.59 19.7486L12 19.8086C7.81 19.8086 5.2 19.6486 4.17 19.3686C3.27 19.1186 2.69 18.5386 2.44 17.6386C2.31 17.1686 2.22 16.5386 2.16 15.7386C2.09 14.9386 2.06 14.2486 2.06 13.6486L2 12.8086C2 10.6186 2.16 9.00859 2.44 7.97859C2.69 7.07859 3.27 6.49859 4.17 6.24859C4.64 6.11859 5.5 6.02859 6.82 5.96859C8.12 5.89859 9.31 5.86859 10.41 5.86859L12 5.80859C16.19 5.80859 18.8 5.96859 19.83 6.24859C20.73 6.49859 21.31 7.07859 21.56 7.97859Z" fill="#6C757D"/>
    </svg>
    