<svg width="33" height="37" viewBox="0 0 33 37" fill="none" xmlns="http://www.w3.org/2000/svg">
<path d="M10.132 20.9694L5.51489 18.2761V12.8894L15.6469 18.7891V24.1757L10.132 20.9694ZM11.4145 2.69332L16.0317 0L31.6785 8.97772L16.0958 18.0196L5.96377 12.1841L10.5809 9.49073L16.0958 12.6329L22.4443 8.97772L11.4145 2.69332ZM10.5809 3.1422L20.7129 8.97772L16.0958 11.671L10.5809 8.52884L5.066 11.671L0.448886 8.97772L10.5809 3.1422ZM0 9.74724L4.61712 12.4406V18.7891L10.132 21.9313V27.3179L0 21.4183V9.74724ZM0 22.4443L10.9656 28.7928V22.4443L15.5828 25.1376V36.8087L0 27.7668V22.4443ZM16.4805 36.8087V25.1376L26.6125 19.3021V24.6887L21.0977 27.8309V34.1795L16.4805 36.8087ZM32.1274 27.7668L21.9954 33.6023V28.2798L32.1274 22.4443V27.7668ZM27.5103 24.1116V19.238L31.7427 21.6748L27.5103 24.1116ZM32.1274 15.1339L16.4805 24.1116V18.725L32.1274 9.68311V15.1339Z" fill="#E07F5C"/>
</svg>
