<svg width="800" height="500" viewBox="0 0 800 500" fill="none" xmlns="http://www.w3.org/2000/svg">
<g clip-path="url(#clip0_1323_168)">
<rect width="800" height="500" fill="#5069ED"/>
<rect x="145.539" y="217.987" width="441" height="561" rx="17" transform="rotate(-15.8022 145.539 217.987)" fill="url(#paint0_radial_1323_168)" stroke="url(#paint1_radial_1323_168)" stroke-width="4"/>
<rect x="326.954" y="195.02" width="90" height="30" rx="15" transform="rotate(-16.7551 326.954 195.02)" fill="#5069ED"/>
<path d="M342 -29.5L390 -48L378.474 4.43874C371.592 35.7501 372.338 68.257 380.649 99.2197L397.5 162L343.522 179L327.185 105.788C319.343 70.6449 321.134 34.0368 332.369 -0.172775L342 -29.5Z" fill="url(#paint2_linear_1323_168)"/>
<path d="M339.796 -32.7008L390.472 -47L404.911 3.05947C413.388 32.4495 415.011 63.3924 409.655 93.5081L397.296 163L343.5 179L358.727 110.754C367.125 73.1182 364.463 33.857 351.063 -2.30122L339.796 -32.7008Z" fill="url(#paint3_linear_1323_168)"/>
<path d="M392.579 406.055L363.561 398.04L355.645 368.555L419.308 386.084L427.224 415.57L392.579 406.055ZM372.683 304.147L393.785 282.676L491.905 309.018L420.614 381.218L357.045 364.039L378.147 342.569L412.698 351.733L441.784 322.474L372.683 304.147ZM368.818 307.818L432.387 324.997L411.284 346.468L376.734 337.304L351.418 362.54L322.4 354.525L368.818 307.818ZM321.094 359.391L350.112 367.406L359.442 402.156L393.992 411.32L401.908 440.805L338.245 423.276L321.094 359.391ZM339.753 428.892L408.6 447.664L399.271 412.913L428.289 420.928L445.44 484.813L347.575 458.026L339.753 428.892ZM450.313 483.505L433.162 419.62L479.58 372.914L487.496 402.399L462.18 427.635L471.51 462.386L450.313 483.505ZM521.952 411.212L475.534 457.918L467.713 428.784L514.131 382.078L521.952 411.212ZM491.52 397.932L484.359 371.255L510.911 378.426L491.52 397.932ZM503.388 342.062L431.654 414.004L423.739 384.519L495.378 312.226L503.388 342.062Z" fill="url(#paint4_radial_1323_168)"/>
</g>
<defs>
<radialGradient id="paint0_radial_1323_168" cx="0" cy="0" r="1" gradientUnits="userSpaceOnUse" gradientTransform="translate(589.184 216.884) rotate(142.672) scale(635.627 500.627)">
<stop stop-color="white" stop-opacity="0.8"/>
<stop offset="1" stop-color="white" stop-opacity="0.6"/>
</radialGradient>
<radialGradient id="paint1_radial_1323_168" cx="0" cy="0" r="1" gradientUnits="userSpaceOnUse" gradientTransform="translate(583.128 222.591) rotate(137.505) scale(590.896 465.396)">
<stop stop-color="white"/>
<stop offset="1" stop-color="white" stop-opacity="0"/>
</radialGradient>
<linearGradient id="paint2_linear_1323_168" x1="319.796" y1="-36" x2="375.296" y2="166.5" gradientUnits="userSpaceOnUse">
<stop offset="0.334154" stop-color="#5069ED"/>
<stop offset="0.878511" stop-color="#9DA9E9"/>
<stop offset="0.880543" stop-color="#E9ECFD"/>
<stop offset="0.898297" stop-color="#E9ECFD"/>
<stop offset="0.899712" stop-color="#CED5FA"/>
</linearGradient>
<linearGradient id="paint3_linear_1323_168" x1="378.796" y1="-25" x2="378.796" y2="180" gradientUnits="userSpaceOnUse">
<stop stop-color="#5069ED"/>
<stop offset="1" stop-color="#B8BFE7"/>
</linearGradient>
<radialGradient id="paint4_radial_1323_168" cx="0" cy="0" r="1" gradientUnits="userSpaceOnUse" gradientTransform="translate(486.526 311.328) rotate(130.278) scale(208.199 180.19)">
<stop stop-color="#9BA9F4"/>
<stop offset="1" stop-color="#5069ED"/>
</radialGradient>
<clipPath id="clip0_1323_168">
<rect width="800" height="500" fill="white"/>
</clipPath>
</defs>
</svg>
