<svg width="20" height="21" viewBox="0 0 20 21" fill="none" xmlns="http://www.w3.org/2000/svg">
<path d="M10 0.848633C4.5 0.848633 0 5.33863 0 10.8686C0 15.8686 3.66 20.0186 8.44 20.7686V13.7686H5.9V10.8686H8.44V8.65863C8.44 6.14863 9.93 4.76863 12.22 4.76863C13.31 4.76863 14.45 4.95863 14.45 4.95863V7.42863H13.19C11.95 7.42863 11.56 8.19863 11.56 8.98863V10.8686H14.34L13.89 13.7686H11.56V20.7686C13.9164 20.3965 16.0622 19.1941 17.6099 17.3787C19.1577 15.5632 20.0054 13.2543 20 10.8686C20 5.33863 15.5 0.848633 10 0.848633Z" fill="#6C757D"/>
</svg>
