<svg width="20" height="21" viewBox="0 0 20 21" fill="none" xmlns="http://www.w3.org/2000/svg">
<path d="M10 0.808594C8.68678 0.808594 7.38642 1.06725 6.17317 1.5698C4.95991 2.07235 3.85752 2.80894 2.92893 3.73753C1.05357 5.61289 0 8.15643 0 10.8086C0 15.2286 2.87 18.9786 6.84 20.3086C7.34 20.3886 7.5 20.0786 7.5 19.8086V18.1186C4.73 18.7186 4.14 16.7786 4.14 16.7786C3.68 15.6186 3.03 15.3086 3.03 15.3086C2.12 14.6886 3.1 14.7086 3.1 14.7086C4.1 14.7786 4.63 15.7386 4.63 15.7386C5.5 17.2586 6.97 16.8086 7.54 16.5686C7.63 15.9186 7.89 15.4786 8.17 15.2286C5.95 14.9786 3.62 14.1186 3.62 10.3086C3.62 9.19859 4 8.30859 4.65 7.59859C4.55 7.34859 4.2 6.30859 4.75 4.95859C4.75 4.95859 5.59 4.68859 7.5 5.97859C8.29 5.75859 9.15 5.64859 10 5.64859C10.85 5.64859 11.71 5.75859 12.5 5.97859C14.41 4.68859 15.25 4.95859 15.25 4.95859C15.8 6.30859 15.45 7.34859 15.35 7.59859C16 8.30859 16.38 9.19859 16.38 10.3086C16.38 14.1286 14.04 14.9686 11.81 15.2186C12.17 15.5286 12.5 16.1386 12.5 17.0686V19.8086C12.5 20.0786 12.66 20.3986 13.17 20.3086C17.14 18.9686 20 15.2286 20 10.8086C20 9.49537 19.7413 8.19501 19.2388 6.98176C18.7362 5.7685 17.9997 4.66611 17.0711 3.73753C16.1425 2.80894 15.0401 2.07235 13.8268 1.5698C12.6136 1.06725 11.3132 0.808594 10 0.808594Z" fill="#6C757D"/>
</svg>
