<svg id="Layer_1" data-name="Layer 1" xmlns="http://www.w3.org/2000/svg" viewBox="0 0 1921 1921"><defs><style>.cls-1{fill:none;stroke:#666;stroke-miterlimit:10;stroke-width:2px;}</style></defs><title>Artboard 1</title><line class="cls-1" x1="0.5" y1="1745.95" x2="1920.5" y2="1745.95"/><line class="cls-1" x1="0.5" y1="1571.41" x2="1920.5" y2="1571.41"/><line class="cls-1" x1="0.5" y1="1396.86" x2="1920.5" y2="1396.86"/><line class="cls-1" x1="0.5" y1="1222.32" x2="1920.5" y2="1222.32"/><line class="cls-1" x1="0.5" y1="1047.77" x2="1920.5" y2="1047.77"/><line class="cls-1" x1="0.5" y1="873.23" x2="1920.5" y2="873.23"/><line class="cls-1" x1="0.5" y1="698.68" x2="1920.5" y2="698.68"/><line class="cls-1" x1="0.5" y1="524.14" x2="1920.5" y2="524.14"/><line class="cls-1" x1="0.5" y1="349.59" x2="1920.5" y2="349.59"/><line class="cls-1" x1="0.5" y1="175.05" x2="1920.5" y2="175.05"/><line class="cls-1" x1="1745.95" y1="0.5" x2="1745.95" y2="1920.5"/><line class="cls-1" x1="1571.41" y1="0.5" x2="1571.41" y2="1920.5"/><line class="cls-1" x1="1396.86" y1="0.5" x2="1396.86" y2="1920.5"/><line class="cls-1" x1="1222.32" y1="0.5" x2="1222.32" y2="1920.5"/><line class="cls-1" x1="1047.77" y1="0.5" x2="1047.77" y2="1920.5"/><line class="cls-1" x1="873.23" y1="0.5" x2="873.23" y2="1920.5"/><line class="cls-1" x1="698.68" y1="0.5" x2="698.68" y2="1920.5"/><line class="cls-1" x1="524.14" y1="0.5" x2="524.14" y2="1920.5"/><line class="cls-1" x1="349.59" y1="0.5" x2="349.59" y2="1920.5"/><line class="cls-1" x1="175.05" y1="0.5" x2="175.05" y2="1920.5"/></svg>
