<svg width="20" height="21" viewBox="0 0 20 21" fill="none" xmlns="http://www.w3.org/2000/svg">
<path d="M5.8 0.808594H14.2C17.4 0.808594 20 3.40859 20 6.60859V15.0086C20 16.5469 19.3889 18.0221 18.3012 19.1098C17.2135 20.1975 15.7383 20.8086 14.2 20.8086H5.8C2.6 20.8086 0 18.2086 0 15.0086V6.60859C0 5.07034 0.61107 3.59509 1.69878 2.50737C2.78649 1.41966 4.26174 0.808594 5.8 0.808594ZM5.6 2.80859C4.64522 2.80859 3.72955 3.18788 3.05442 3.86301C2.37928 4.53814 2 5.45381 2 6.40859V15.2086C2 17.1986 3.61 18.8086 5.6 18.8086H14.4C15.3548 18.8086 16.2705 18.4293 16.9456 17.7542C17.6207 17.079 18 16.1634 18 15.2086V6.40859C18 4.41859 16.39 2.80859 14.4 2.80859H5.6ZM15.25 4.30859C15.5815 4.30859 15.8995 4.44029 16.1339 4.67471C16.3683 4.90913 16.5 5.22707 16.5 5.55859C16.5 5.89011 16.3683 6.20806 16.1339 6.44248C15.8995 6.6769 15.5815 6.80859 15.25 6.80859C14.9185 6.80859 14.6005 6.6769 14.3661 6.44248C14.1317 6.20806 14 5.89011 14 5.55859C14 5.22707 14.1317 4.90913 14.3661 4.67471C14.6005 4.44029 14.9185 4.30859 15.25 4.30859ZM10 5.80859C11.3261 5.80859 12.5979 6.33538 13.5355 7.27306C14.4732 8.21074 15 9.48251 15 10.8086C15 12.1347 14.4732 13.4064 13.5355 14.3441C12.5979 15.2818 11.3261 15.8086 10 15.8086C8.67392 15.8086 7.40215 15.2818 6.46447 14.3441C5.52678 13.4064 5 12.1347 5 10.8086C5 9.48251 5.52678 8.21074 6.46447 7.27306C7.40215 6.33538 8.67392 5.80859 10 5.80859ZM10 7.80859C9.20435 7.80859 8.44129 8.12466 7.87868 8.68727C7.31607 9.24988 7 10.0129 7 10.8086C7 11.6042 7.31607 12.3673 7.87868 12.9299C8.44129 13.4925 9.20435 13.8086 10 13.8086C10.7956 13.8086 11.5587 13.4925 12.1213 12.9299C12.6839 12.3673 13 11.6042 13 10.8086C13 10.0129 12.6839 9.24988 12.1213 8.68727C11.5587 8.12466 10.7956 7.80859 10 7.80859Z" fill="#94959C"/>
</svg>
