<svg width="800" height="500" viewBox="0 0 800 500" fill="none" xmlns="http://www.w3.org/2000/svg">
<g clip-path="url(#clip0_1323_176)">
<rect width="800" height="500" fill="#EB784F"/>
<rect x="42.415" y="224.987" width="638.925" height="399.891" rx="18" transform="rotate(-13.6308 42.415 224.987)" fill="url(#paint0_radial_1323_176)" stroke="url(#paint1_radial_1323_176)" stroke-width="4"/>
<path d="M371.808 366.833L342.79 358.818L334.874 329.333L398.537 346.862L406.453 376.347L371.808 366.833ZM351.912 264.924L373.015 243.454L471.134 269.796L399.843 341.996L336.274 324.817L357.377 303.347L391.927 312.511L421.014 283.252L351.912 264.924ZM348.047 268.596L411.616 285.775L390.514 307.245L355.963 298.082L330.648 323.317L301.629 315.303L348.047 268.596ZM300.324 320.169L329.342 328.184L338.671 362.934L373.222 372.098L381.138 401.583L317.475 384.054L300.324 320.169ZM318.982 389.67L387.83 408.442L378.501 373.691L407.519 381.706L424.67 445.591L326.804 418.804L318.982 389.67ZM429.542 444.283L412.392 380.398L458.809 333.692L466.725 363.177L441.41 388.413L450.739 423.163L429.542 444.283ZM501.182 371.99L454.764 418.696L446.942 389.562L493.36 342.855L501.182 371.99ZM470.75 358.71L463.588 332.033L490.141 339.204L470.75 358.71ZM482.617 302.84L410.884 374.782L402.968 345.296L474.607 273.003L482.617 302.84Z" fill="url(#paint2_radial_1323_176)"/>
</g>
<defs>
<radialGradient id="paint0_radial_1323_176" cx="0" cy="0" r="1" gradientUnits="userSpaceOnUse" gradientTransform="translate(684.536 223.713) rotate(159.328) scale(780.491 421.08)">
<stop stop-color="white" stop-opacity="0.8"/>
<stop offset="1" stop-color="white" stop-opacity="0.6"/>
</radialGradient>
<radialGradient id="paint1_radial_1323_176" cx="0" cy="0" r="1" gradientUnits="userSpaceOnUse" gradientTransform="translate(675.786 227.793) rotate(155.615) scale(691.128 410.953)">
<stop stop-color="white"/>
<stop offset="1" stop-color="white" stop-opacity="0"/>
</radialGradient>
<radialGradient id="paint2_radial_1323_176" cx="0" cy="0" r="1" gradientUnits="userSpaceOnUse" gradientTransform="translate(465.756 272.106) rotate(130.278) scale(208.199 180.19)">
<stop stop-color="#EFAF98"/>
<stop offset="1" stop-color="#EB784F"/>
</radialGradient>
<clipPath id="clip0_1323_176">
<rect width="800" height="500" fill="white"/>
</clipPath>
</defs>
</svg>
