<svg width="712" height="424" viewBox="0 0 712 424" fill="none" xmlns="http://www.w3.org/2000/svg">
<rect x="-1.585" y="148.987" width="638.925" height="399.891" rx="18" transform="rotate(-13.6308 -1.585 148.987)" fill="url(#paint0_radial_0_1)" stroke="url(#paint1_radial_0_1)" stroke-width="4"/>
<path d="M327.808 290.833L298.79 282.818L290.874 253.333L354.537 270.862L362.453 300.347L327.808 290.833ZM307.912 188.924L329.015 167.454L427.134 193.796L355.843 265.996L292.274 248.817L313.377 227.347L347.927 236.511L377.014 207.252L307.912 188.924ZM304.047 192.596L367.616 209.775L346.514 231.245L311.963 222.082L286.648 247.317L257.629 239.303L304.047 192.596ZM256.324 244.169L285.342 252.184L294.671 286.934L329.222 296.098L337.138 325.583L273.475 308.054L256.324 244.169ZM274.982 313.67L343.83 332.442L334.501 297.691L363.519 305.706L380.67 369.591L282.804 342.804L274.982 313.67ZM385.542 368.283L368.392 304.398L414.809 257.692L422.725 287.177L397.41 312.413L406.739 347.163L385.542 368.283ZM457.182 295.99L410.764 342.696L402.942 313.562L449.36 266.855L457.182 295.99ZM426.75 282.71L419.588 256.033L446.141 263.204L426.75 282.71ZM438.617 226.84L366.884 298.782L358.968 269.296L430.607 197.003L438.617 226.84Z" fill="url(#paint2_radial_0_1)"/>
<defs>
<radialGradient id="paint0_radial_0_1" cx="0" cy="0" r="1" gradientUnits="userSpaceOnUse" gradientTransform="translate(640.536 147.713) rotate(159.328) scale(780.491 421.08)">
<stop stop-color="white" stop-opacity="0.8"/>
<stop offset="1" stop-color="white" stop-opacity="0.6"/>
</radialGradient>
<radialGradient id="paint1_radial_0_1" cx="0" cy="0" r="1" gradientUnits="userSpaceOnUse" gradientTransform="translate(631.786 151.793) rotate(155.615) scale(691.128 410.953)">
<stop stop-color="white"/>
<stop offset="1" stop-color="white" stop-opacity="0"/>
</radialGradient>
<radialGradient id="paint2_radial_0_1" cx="0" cy="0" r="1" gradientUnits="userSpaceOnUse" gradientTransform="translate(421.756 196.106) rotate(130.278) scale(208.199 180.19)">
<stop stop-color="#EFAF98"/>
<stop offset="1" stop-color="#EB784F"/>
</radialGradient>
</defs>
</svg>
