<svg width="22" height="18" viewBox="0 0 22 18" fill="none" xmlns="http://www.w3.org/2000/svg">
<path d="M21.46 2.80859C20.69 3.15859 19.86 3.38859 19 3.49859C19.88 2.96859 20.56 2.12859 20.88 1.11859C20.05 1.61859 19.13 1.96859 18.16 2.16859C17.37 1.30859 16.26 0.808594 15 0.808594C12.65 0.808594 10.73 2.72859 10.73 5.09859C10.73 5.43859 10.77 5.76859 10.84 6.07859C7.27999 5.89859 4.10999 4.18859 1.99999 1.59859C1.62999 2.22859 1.41999 2.96859 1.41999 3.74859C1.41999 5.23859 2.16999 6.55859 3.32999 7.30859C2.61999 7.30859 1.95999 7.10859 1.37999 6.80859V6.83859C1.37999 8.91859 2.85999 10.6586 4.81999 11.0486C4.19072 11.2208 3.53009 11.2448 2.88999 11.1186C3.1616 11.9711 3.69353 12.717 4.41101 13.2515C5.12849 13.786 5.99544 14.0823 6.88999 14.0986C5.37362 15.299 3.49399 15.9479 1.55999 15.9386C1.21999 15.9386 0.879993 15.9186 0.539993 15.8786C2.43999 17.0986 4.69999 17.8086 7.11999 17.8086C15 17.8086 19.33 11.2686 19.33 5.59859C19.33 5.40859 19.33 5.22859 19.32 5.03859C20.16 4.43859 20.88 3.67859 21.46 2.80859Z" fill="#94959C"/>
</svg>
