<svg width="20" height="15" viewBox="0 0 20 15" fill="none" xmlns="http://www.w3.org/2000/svg">
<path d="M8 10.8086L13.19 7.80859L8 4.80859V10.8086ZM19.56 2.97859C19.69 3.44859 19.78 4.07859 19.84 4.87859C19.91 5.67859 19.94 6.36859 19.94 6.96859L20 7.80859C20 9.99859 19.84 11.6086 19.56 12.6386C19.31 13.5386 18.73 14.1186 17.83 14.3686C17.36 14.4986 16.5 14.5886 15.18 14.6486C13.88 14.7186 12.69 14.7486 11.59 14.7486L10 14.8086C5.81 14.8086 3.2 14.6486 2.17 14.3686C1.27 14.1186 0.69 13.5386 0.44 12.6386C0.31 12.1686 0.22 11.5386 0.16 10.7386C0.0900001 9.93859 0.0599999 9.24859 0.0599999 8.64859L0 7.80859C0 5.61859 0.16 4.00859 0.44 2.97859C0.69 2.07859 1.27 1.49859 2.17 1.24859C2.64 1.11859 3.5 1.02859 4.82 0.968594C6.12 0.898594 7.31 0.868594 8.41 0.868594L10 0.808594C14.19 0.808594 16.8 0.968594 17.83 1.24859C18.73 1.49859 19.31 2.07859 19.56 2.97859Z" fill="#94959C"/>
</svg>
