<?xml version="1.0" encoding="UTF-8"?>
<svg id="Layer_2" data-name="Layer 2" xmlns="http://www.w3.org/2000/svg" viewBox="0 0 181.93 34.52">
  <defs>
    <style>
      .cls-1 {
        fill: #66b22e;
        stroke-width: 0px;
      }
    </style>
  </defs>
  <g id="Layer_2-2" data-name="Layer 2">
    <g id="Layer_1-2" data-name="Layer 1-2">
      <g>
        <g>
          <path class="cls-1" d="M0,24.25c0-.43.02-1.09.07-1.98s.06-1.54.06-1.98c0-1.67.04-2.74.11-3.22.12-.22.22-.36.3-.43.67-.12,2.11-.17,4.33-.17h7.28c2.07,0,3.96.12,5.65.3,1.2.13,2.21.61,3.01,1.45.8.83,1.21,1.84,1.21,3.03,0,.91-.32,1.78-.96,2.59-.03.04-.11.12-.24.24-.07.06-.13.16-.17.3,1.64,1.57,2.46,3.06,2.46,4.48,0,1.64-.67,2.96-2.02,3.96-1.22.9-2.67,1.35-4.37,1.35H1.18c-.78,0-1.17-.22-1.17-.67v-9.24h-.01ZM7.24,22.76c.12.08.31.12.59.12h5.89c.22,0,.44-.08.65-.25.22-.17.33-.35.33-.55,0-.25-.15-.49-.44-.73s-.56-.36-.8-.36h-5.56c-.35,0-.58.11-.7.33-.09.16-.13.43-.13.83,0,.33.06.54.17.62h0ZM7.34,29.53c2.83.1,4.68.15,5.56.15h.87c1.23,0,1.85-.36,1.85-1.09s-.71-1.09-2.13-1.09h-6.15l-.28.26v1.5l.28.26h0Z"/>
          <path class="cls-1" d="M30.19,34.14c-2.29-.3-3.97-1.09-5.04-2.36-1.07-1.27-1.61-3.06-1.61-5.39,0-1.06.02-2.65.07-4.77.04-2.12.06-3.71.06-4.77.26-.26.44-.39.54-.39h5.85c.36,0,.54.18.54.54v10.06c0,.94.4,1.7,1.2,2.26.71.49,1.56.74,2.54.74,1.19,0,2.09-.36,2.72-1.09.29-.35.51-.77.65-1.26.19-.61.29-1.59.3-2.96v-3.11l.06-4.78.26-.26c1.46-.1,2.58-.15,3.35-.15.93,0,1.94.05,3.04.15.19.35.28,1.34.28,2.98v6.8c-.16.17-.26.6-.3,1.28-.06.88-.09,1.36-.11,1.43-.83,3.62-4.25,5.43-10.28,5.43-.64,0-2.01-.14-4.13-.41v.03Z"/>
          <path class="cls-1" d="M46,22.31c.49-1.57,1.27-2.77,2.33-3.61,2.33-1.84,5.59-2.76,9.78-2.76,2.19,0,4.19.32,6,.96,2.23.77,3.84,1.93,4.83,3.49.48.79.72,1.44.72,1.96,0,.22-.14.35-.41.39-.09,0-.59.02-1.5.02h-3.24c-1.3,0-2.3-.06-3-.17-.64-.71-1.19-1.19-1.65-1.44-.57-.32-1.28-.48-2.13-.48-1.35,0-2.44.46-3.27,1.38-.83.92-1.25,2.07-1.25,3.45s.49,2.55,1.46,3.35c.91.72,2.1,1.09,3.56,1.09.74,0,1.46-.09,2.17-.26,1.01-.25,1.52-.62,1.52-1.11,0-.22-.09-.33-.28-.33h-2.17s-.1-.13-.17-.3-.11-.28-.11-.33v-2.85c.23-.33.37-.51.41-.54h9.52c.17,0,.33.07.47.21s.21.29.21.47l-.13,8.7c0,.28-.18.41-.54.41h-2.46c-.23,0-.44-.23-.62-.69s-.38-.68-.6-.68c-.03,0-.34.14-.94.42-.59.28-.94.45-1.04.49-1.59.59-3.56.89-5.91.89-3.71,0-6.54-.62-8.5-1.87-2.39-1.54-3.59-4.06-3.59-7.56,0-.68.18-1.58.54-2.7h-.01Z"/>
          <path class="cls-1" d="M70.63,28.86h8.7c.17,0,.38.11.63.33.3.28.5.43.59.48.42.19,1.13.28,2.13.28.44,0,.83-.07,1.17-.22.45-.2.67-.49.67-.87,0-.54-.51-.86-1.52-.96-1.36-.12-2.73-.22-4.09-.33-1.84-.19-3.35-.46-4.52-.8-1.56-.46-2.68-1.12-3.35-1.96-.43-.52-.67-.99-.7-1.39-.01-.22-.02-.53-.02-.94,0-1.1.19-1.99.56-2.67,1.36-2.49,4.99-3.74,10.89-3.74,4.99,0,8.25,1.17,9.78,3.5.45.71.67,1.25.67,1.61,0,.09-.14.2-.41.33h-2.7c-.13,0-1.58-.04-4.35-.11-.48,0-.85-.02-1.11-.02-.25-.06-.67-.27-1.26-.64-.46-.3-1.07-.45-1.8-.45-1.42,0-2.13.33-2.13.98,0,.45.46.76,1.39.93,2.35.33,4.14.56,5.39.67,2.13.25,3.57.52,4.33.83,2.13.87,3.2,2.4,3.2,4.6s-.89,3.62-2.67,4.58c-1.15.61-2.97,1.06-5.48,1.35-1.26.14-2.38.22-3.35.22-2.65,0-4.6-.16-5.85-.48-2.07-.51-3.63-1.58-4.67-3.22-.38-.58-.56-1.04-.56-1.39,0-.22.14-.38.43-.5h.01Z"/>
          <path class="cls-1" d="M93.21,24.25c0-.43.02-1.09.07-1.98.04-.88.07-1.54.07-1.98,0-1.67.04-2.74.11-3.22.12-.22.22-.36.3-.43.67-.12,2.11-.17,4.33-.17h7.28c2.07,0,3.96.12,5.65.3,1.2.13,2.21.61,3.01,1.45.8.83,1.21,1.84,1.21,3.03,0,.91-.32,1.78-.96,2.59-.03.04-.11.12-.24.24-.07.06-.13.16-.17.3,1.64,1.57,2.46,3.06,2.46,4.48,0,1.64-.67,2.96-2.02,3.96-1.22.9-2.67,1.35-4.37,1.35h-15.54c-.78,0-1.17-.22-1.17-.67v-9.24h-.02ZM100.45,22.76c.12.08.31.12.59.12h5.89c.22,0,.43-.08.65-.25s.33-.35.33-.55c0-.25-.15-.49-.43-.73-.29-.24-.56-.36-.8-.36h-5.57c-.35,0-.58.11-.7.33-.09.16-.13.43-.13.83,0,.33.06.54.17.62h0ZM100.56,29.53c2.83.1,4.68.15,5.57.15h.87c1.23,0,1.85-.36,1.85-1.09s-.71-1.09-2.13-1.09h-6.15l-.28.26v1.5l.28.26h-.01Z"/>
          <path class="cls-1" d="M123.73,27.95c-.32-.48-.64-.96-.96-1.46-.81-1.26-1.37-2.14-1.67-2.65-.19-.35-.33-.62-.41-.8l-3.8-5.98c-.06-.09-.1-.17-.13-.26.1-.19.24-.28.41-.28h7.33c.19,0,.79.95,1.8,2.86,1.01,1.91,1.68,2.86,2,2.86.2,0,.38-.14.54-.41l2.72-4.76c.04-.07.15-.18.32-.33.17-.14.29-.22.36-.22h7.07c.06,0,.2.04.41.13v.15c-.13.23-.22.41-.28.54l-5.7,8.96c-.1.12-.2.2-.28.26l-1.96,3.04v4.43h-5.91c-.2,0-.41-.04-.61-.13-.28-.1-.41-.24-.41-.41v-4.06c-.1-.29-.38-.78-.83-1.48h0Z"/>
          <path class="cls-1" d="M140.41,16.64c1.57-.09,2.46-.13,2.7-.13h12.2c.84,0,2.44.04,4.8.13l.28.28v4.13h-6.11c-.12.06-.25.17-.41.35,0-.23-.04,1.4-.13,4.89-.07,3.32-.12,5.81-.15,7.48l-.13.26h-6.24c-.28,0-.41-.14-.41-.41v-11.67c0-.54-.14-.8-.41-.8-.32,0-.91,0-1.76.02-.85,0-1.5.02-1.93.02-.71,0-1.29-.02-1.74-.07-.54-.03-.8-.16-.8-.39v-3.8l.26-.28h-.02Z"/>
          <path class="cls-1" d="M160.82,33.75v-1.02c0-.45-.02-.79-.02-1.02v-3.11c0-3.1.03-5.67.09-7.72.06-2.04.13-3.41.22-4.11.07-.09.14-.14.2-.17.32-.16,1.67-.24,4.04-.24h3.07c1.54,0,3.33,0,5.39.04,4.03.06,6.22.09,6.59.11.3,0,.49.1.54.26.1.28.15.78.15,1.52,0,1-.05,1.8-.15,2.41l-.13.15c-1.97.1-3.86.15-5.65.15h-4.56c-1.57,0-2.37.02-2.41.06-.1.12-.15.33-.15.65,0,.67.09,1.04.26,1.11.29.13.7.2,1.24.2,4.06,0,7.05.04,8.98.13l.26.26v.39c0,1.49-.04,2.57-.13,3.27-.03.27-.17.41-.41.41h-9.78c-.36,0-.54.4-.54,1.19,0,.54.45.83,1.35.86.2,0,2.02.02,5.46.02.77,0,1.92.02,3.46.05s2.69.05,3.46.05c.19.1.28.28.28.55v3.15c0,.1-.05.24-.14.42-.09.17-.19.26-.27.26h-20.37l-.28-.28h-.05Z"/>
        </g>
        <g>
          <path class="cls-1" d="M8.92,3.12c0,.4-.04.75-.1,1.04.07.28.1.63.1,1.04s-.04.75-.1,1.04c.07.28.1.63.1,1.04s-.04.75-.1,1.04c.07.28.1.63.1,1.04s-.04.75-.1,1.04c.07.28.1.63.1,1.04s-.04.75-.1,1.04c.07.28.1.63.1,1.04s-.04.75-.1,1.04h-2.09c-.07-.3-.1-.64-.1-1.04s.03-.76.1-1.04c-.07-.3-.1-.64-.1-1.04s.03-.76.1-1.04c-.07-.3-.1-.64-.1-1.04s.03-.76.1-1.04H2.56c.07.28.1.63.1,1.04s-.04.75-.1,1.04c.07.28.1.63.1,1.04s-.04.75-.1,1.04c.07.28.1.63.1,1.04s-.04.75-.1,1.04H.47c-.07-.3-.1-.64-.1-1.04s.03-.76.1-1.04c-.07-.3-.1-.64-.1-1.04s.03-.76.1-1.04c-.07-.3-.1-.64-.1-1.04s.03-.76.1-1.04c-.07-.3-.1-.64-.1-1.04s.03-.76.1-1.04c-.07-.3-.1-.64-.1-1.04s.03-.76.1-1.04c-.07-.3-.1-.64-.1-1.04s.03-.76.1-1.04c-.07-.3-.1-.64-.1-1.04s.03-.76.1-1.04h2.09c.07.28.1.63.1,1.04s-.04.75-.1,1.04c.07.28.1.63.1,1.04s-.04.75-.1,1.04c.07.28.1.63.1,1.04s-.04.75-.1,1.04h4.17c-.07-.3-.1-.64-.1-1.04s.03-.76.1-1.04c-.07-.3-.1-.64-.1-1.04s.03-.76.1-1.04c-.07-.3-.1-.64-.1-1.04s.03-.76.1-1.04h2.09c.07.28.1.63.1,1.04s-.04.75-.1,1.04c.07.28.1.63.1,1.04Z"/>
          <path class="cls-1" d="M19.25,12.51c.07.28.1.63.1,1.04s-.04.75-.1,1.04h-2.09c-.07-.3-.1-.64-.1-1.04s.03-.76.1-1.04c-.07-.3-.1-.64-.1-1.04s.03-.76.1-1.04h-4.17c.07.28.1.63.1,1.04s-.04.75-.1,1.04c.07.28.1.63.1,1.04s-.04.75-.1,1.04h-2.09c-.07-.3-.1-.64-.1-1.04s.03-.76.1-1.04c-.07-.3-.1-.64-.1-1.04s.03-.76.1-1.04h.78c-.07-.3-.1-.64-.1-1.04s.03-.76.1-1.04c-.07-.3-.1-.64-.1-1.04s.03-.76.1-1.04h.52c-.07-.3-.1-.64-.1-1.04s.03-.76.1-1.04h.78c-.07-.3-.1-.64-.1-1.04s.03-.76.1-1.04h.52c-.07-.3-.1-.64-.1-1.04s.03-.76.1-1.04h3.13c.07.28.1.63.1,1.04s-.03.75-.1,1.04h.52c.07.28.1.63.1,1.04s-.04.75-.1,1.04h.78c.07.28.1.63.1,1.04s-.04.75-.1,1.04h.52c.07.28.1.63.1,1.04s-.04.75-.1,1.04c.07.28.1.63.1,1.04s-.04.75-.1,1.04h.78c.07.28.1.63.1,1.04s-.04.75-.1,1.04h.02ZM16.28,7.3c0-.42.03-.76.1-1.04h-.52c-.07-.3-.1-.64-.1-1.04s.03-.76.1-1.04h-1.57c.07.28.1.63.1,1.04s-.04.75-.1,1.04h-.52c.07.28.1.63.1,1.04s-.04.75-.1,1.04h2.61c-.07-.3-.1-.64-.1-1.04Z"/>
          <path class="cls-1" d="M29.68,10.43c.07.28.1.63.1,1.04s-.04.75-.1,1.04h-1.04c.07.28.1.63.1,1.04s-.04.75-.1,1.04h-5.22c-.07-.3-.1-.64-.1-1.04s.03-.76.1-1.04h-1.04c-.07-.3-.1-.64-.1-1.04s.03-.76.1-1.04h-1.04c-.07-.3-.1-.64-.1-1.04s.03-.76.1-1.04c-.07-.3-.1-.64-.1-1.04s.03-.76.1-1.04c-.07-.3-.1-.64-.1-1.04s.03-.76.1-1.04h1.04c-.07-.3-.1-.64-.1-1.04s.03-.76.1-1.04h1.04c-.07-.3-.1-.64-.1-1.04s.03-.76.1-1.04h5.22c.07.28.1.63.1,1.04s-.04.75-.1,1.04h1.04c.07.28.1.63.1,1.04s-.04.75-.1,1.04h-2.09c-.07-.3-.1-.64-.1-1.04s.03-.76.1-1.04h-3.13c.07.28.1.63.1,1.04s-.04.75-.1,1.04h-1.04c.07.28.1.63.1,1.04s-.04.75-.1,1.04c.07.28.1.63.1,1.04s-.04.75-.1,1.04c.07.28.1.63.1,1.04s-.04.75-.1,1.04h1.04c.07.28.1.63.1,1.04s-.04.75-.1,1.04h3.13c-.07-.3-.1-.64-.1-1.04s.03-.76.1-1.04c0,0,2.09,0,2.09,0Z"/>
          <path class="cls-1" d="M40.12,12.51c.07.28.1.63.1,1.04s-.04.75-.1,1.04h-2.09c-.07-.3-.1-.64-.1-1.04s.03-.76.1-1.04h-.78c-.07-.3-.1-.64-.1-1.04s.03-.76.1-1.04h-1.56c-.07-.3-.1-.64-.1-1.04s.03-.76.1-1.04h-1.83c.07.28.1.63.1,1.04s-.04.75-.1,1.04c.07.28.1.63.1,1.04s-.04.75-.1,1.04c.07.28.1.63.1,1.04s-.04.75-.1,1.04h-2.09c-.07-.3-.1-.64-.1-1.04s.03-.76.1-1.04c-.07-.3-.1-.64-.1-1.04s.03-.76.1-1.04c-.07-.3-.1-.64-.1-1.04s.03-.76.1-1.04c-.07-.3-.1-.64-.1-1.04s.03-.76.1-1.04c-.07-.3-.1-.64-.1-1.04s.03-.76.1-1.04c-.07-.3-.1-.64-.1-1.04s.03-.76.1-1.04c-.07-.3-.1-.64-.1-1.04s.03-.76.1-1.04h2.09c.07.28.1.63.1,1.04s-.04.75-.1,1.04c.07.28.1.63.1,1.04s-.04.75-.1,1.04c.07.28.1.63.1,1.04s-.04.75-.1,1.04h1.83c-.07-.3-.1-.64-.1-1.04s.03-.76.1-1.04h1.56c-.07-.3-.1-.64-.1-1.04s.03-.76.1-1.04h.78c-.07-.3-.1-.64-.1-1.04s.03-.76.1-1.04h2.09c.07.28.1.63.1,1.04s-.04.75-.1,1.04h-.78c.07.28.1.63.1,1.04s-.04.75-.1,1.04h-1.57c.07.28.1.63.1,1.04s-.04.75-.1,1.04h-1.3c.07.28.1.63.1,1.04s-.03.75-.1,1.04h1.3c.07.28.1.63.1,1.04s-.04.75-.1,1.04h1.57c.07.28.1.63.1,1.04s-.04.75-.1,1.04h.78Z"/>
          <path class="cls-1" d="M50.55,12.51c.07.28.1.63.1,1.04s-.04.75-.1,1.04h-2.09c-.07-.3-.1-.64-.1-1.04s.03-.76.1-1.04c-.07-.3-.1-.64-.1-1.04s.03-.76.1-1.04h-4.17c.07.28.1.63.1,1.04s-.04.75-.1,1.04c.07.28.1.63.1,1.04s-.04.75-.1,1.04h-2.09c-.07-.3-.1-.64-.1-1.04s.03-.76.1-1.04c-.07-.3-.1-.64-.1-1.04s.03-.76.1-1.04h.78c-.07-.3-.1-.64-.1-1.04s.03-.76.1-1.04c-.07-.3-.1-.64-.1-1.04s.03-.76.1-1.04h.52c-.07-.3-.1-.64-.1-1.04s.03-.76.1-1.04h.78c-.07-.3-.1-.64-.1-1.04s.03-.76.1-1.04h.52c-.07-.3-.1-.64-.1-1.04s.03-.76.1-1.04h3.13c.07.28.1.63.1,1.04s-.03.75-.1,1.04h.52c.07.28.1.63.1,1.04s-.04.75-.1,1.04h.78c.07.28.1.63.1,1.04s-.04.75-.1,1.04h.52c.07.28.1.63.1,1.04s-.04.75-.1,1.04c.07.28.1.63.1,1.04s-.04.75-.1,1.04h.78c.07.28.1.63.1,1.04s-.04.75-.1,1.04h.02ZM47.58,7.3c0-.42.03-.76.1-1.04h-.52c-.07-.3-.1-.64-.1-1.04s.03-.76.1-1.04h-1.57c.07.28.1.63.1,1.04s-.04.75-.1,1.04h-.52c.07.28.1.63.1,1.04s-.04.75-.1,1.04h2.61c-.07-.3-.1-.64-.1-1.04Z"/>
          <path class="cls-1" d="M60.99,2.08h-3.13c.07.28.1.63.1,1.04s-.04.75-.1,1.04c.07.28.1.63.1,1.04s-.04.75-.1,1.04c.07.28.1.63.1,1.04s-.04.75-.1,1.04c.07.28.1.63.1,1.04s-.04.75-.1,1.04c.07.28.1.63.1,1.04s-.04.75-.1,1.04c.07.28.1.63.1,1.04s-.04.75-.1,1.04h-2.09c-.07-.3-.1-.64-.1-1.04s.03-.76.1-1.04c-.07-.3-.1-.64-.1-1.04s.03-.76.1-1.04c-.07-.3-.1-.64-.1-1.04s.03-.76.1-1.04c-.07-.3-.1-.64-.1-1.04s.03-.76.1-1.04c-.07-.3-.1-.64-.1-1.04s.03-.76.1-1.04c-.07-.3-.1-.64-.1-1.04s.03-.76.1-1.04h-3.13c-.07-.3-.1-.64-.1-1.04s.03-.76.1-1.04h8.35c.07.28.1.63.1,1.04s-.04.75-.1,1.04Z"/>
          <path class="cls-1" d="M71.53,3.12c0,.4-.04.75-.1,1.04.07.28.1.63.1,1.04s-.04.75-.1,1.04c.07.28.1.63.1,1.04s-.04.75-.1,1.04c.07.28.1.63.1,1.04s-.04.75-.1,1.04c.07.28.1.63.1,1.04s-.04.75-.1,1.04c.07.28.1.63.1,1.04s-.04.75-.1,1.04h-2.09c-.07-.3-.1-.64-.1-1.04s.03-.76.1-1.04c-.07-.3-.1-.64-.1-1.04s.03-.76.1-1.04c-.07-.3-.1-.64-.1-1.04s.03-.76.1-1.04h-4.17c.07.28.1.63.1,1.04s-.04.75-.1,1.04c.07.28.1.63.1,1.04s-.04.75-.1,1.04c.07.28.1.63.1,1.04s-.04.75-.1,1.04h-2.09c-.07-.3-.1-.64-.1-1.04s.03-.76.1-1.04c-.07-.3-.1-.64-.1-1.04s.03-.76.1-1.04c-.07-.3-.1-.64-.1-1.04s.03-.76.1-1.04c-.07-.3-.1-.64-.1-1.04s.03-.76.1-1.04c-.07-.3-.1-.64-.1-1.04s.03-.76.1-1.04c-.07-.3-.1-.64-.1-1.04s.03-.76.1-1.04c-.07-.3-.1-.64-.1-1.04s.03-.76.1-1.04h2.09c.07.28.1.63.1,1.04s-.04.75-.1,1.04c.07.28.1.63.1,1.04s-.04.75-.1,1.04c.07.28.1.63.1,1.04s-.04.75-.1,1.04h4.17c-.07-.3-.1-.64-.1-1.04s.03-.76.1-1.04c-.07-.3-.1-.64-.1-1.04s.03-.76.1-1.04c-.07-.3-.1-.64-.1-1.04s.03-.76.1-1.04h2.09c.07.28.1.63.1,1.04s-.04.75-.1,1.04c.07.28.1.63.1,1.04Z"/>
          <path class="cls-1" d="M81.96,7.3c0,.4-.04.75-.1,1.04.07.28.1.63.1,1.04s-.04.75-.1,1.04h-.78c.07.28.1.63.1,1.04s-.04.75-.1,1.04h-1.3c.07.28.1.63.1,1.04s-.04.75-.1,1.04h-4.17c-.07-.3-.1-.64-.1-1.04s.03-.76.1-1.04h-1.3c-.07-.3-.1-.64-.1-1.04s.03-.76.1-1.04h-.78c-.07-.3-.1-.64-.1-1.04s.03-.76.1-1.04c-.07-.3-.1-.64-.1-1.04s.03-.76.1-1.04c-.07-.3-.1-.64-.1-1.04s.03-.76.1-1.04h.78c-.07-.3-.1-.64-.1-1.04s.03-.76.1-1.04h1.3c-.07-.3-.1-.64-.1-1.04s.03-.76.1-1.04h4.17c.07.28.1.63.1,1.04s-.04.75-.1,1.04h1.3c.07.28.1.63.1,1.04s-.04.75-.1,1.04h.78c.07.28.1.63.1,1.04s-.04.75-.1,1.04c.07.28.1.63.1,1.04ZM79.67,9.38c0-.42.03-.76.1-1.04-.07-.3-.1-.64-.1-1.04s.03-.76.1-1.04c-.07-.3-.1-.64-.1-1.04s.03-.76.1-1.04h-.78c-.07-.3-.1-.64-.1-1.04s.03-.76.1-1.04h-2.61c.07.28.1.63.1,1.04s-.04.75-.1,1.04h-.78c.07.28.1.63.1,1.04s-.04.75-.1,1.04c.07.28.1.63.1,1.04s-.04.75-.1,1.04c.07.28.1.63.1,1.04s-.04.75-.1,1.04h.78c.07.28.1.63.1,1.04s-.04.75-.1,1.04h2.61c-.07-.3-.1-.64-.1-1.04s.03-.76.1-1.04h.78c-.07-.3-.1-.64-.1-1.04Z"/>
          <path class="cls-1" d="M92.4,3.12c0,.4-.04.75-.1,1.04.07.28.1.63.1,1.04s-.04.75-.1,1.04c.07.28.1.63.1,1.04s-.04.75-.1,1.04c.07.28.1.63.1,1.04s-.04.75-.1,1.04c.07.28.1.63.1,1.04s-.04.75-.1,1.04c.07.28.1.63.1,1.04s-.04.75-.1,1.04h-2.09c-.07-.3-.1-.64-.1-1.04s.03-.76.1-1.04h-1.3c-.07-.3-.1-.64-.1-1.04s.03-.76.1-1.04h-.78c-.07-.3-.1-.64-.1-1.04s.03-.76.1-1.04h-1.04c-.07-.3-.1-.64-.1-1.04s.03-.76.1-1.04h-1.04c.07.28.1.63.1,1.04s-.04.75-.1,1.04c.07.28.1.63.1,1.04s-.04.75-.1,1.04c.07.28.1.63.1,1.04s-.04.75-.1,1.04c.07.28.1.63.1,1.04s-.04.75-.1,1.04h-2.09c-.07-.3-.1-.64-.1-1.04s.03-.76.1-1.04c-.07-.3-.1-.64-.1-1.04s.03-.76.1-1.04c-.07-.3-.1-.64-.1-1.04s.03-.76.1-1.04c-.07-.3-.1-.64-.1-1.04s.03-.76.1-1.04c-.07-.3-.1-.64-.1-1.04s.03-.76.1-1.04c-.07-.3-.1-.64-.1-1.04s.03-.76.1-1.04c-.07-.3-.1-.64-.1-1.04s.03-.76.1-1.04h2.61c.07.28.1.63.1,1.04s-.03.75-.1,1.04h.78c.07.28.1.63.1,1.04s-.04.75-.1,1.04h.78c.07.28.1.63.1,1.04s-.04.75-.1,1.04h1.04c.07.28.1.63.1,1.04s-.04.75-.1,1.04h1.04c-.07-.3-.1-.64-.1-1.04s.03-.76.1-1.04c-.07-.3-.1-.64-.1-1.04s.03-.76.1-1.04c-.07-.3-.1-.64-.1-1.04s.03-.76.1-1.04c-.07-.3-.1-.64-.1-1.04s.03-.76.1-1.04h2.09c.07.28.1.63.1,1.04s-.04.75-.1,1.04c.07.28.1.63.1,1.04Z"/>
        </g>
      </g>
    </g>
  </g>
</svg>