<svg width="162" height="48" viewBox="0 0 162 48" fill="none" xmlns="http://www.w3.org/2000/svg">
<g clip-path="url(#clip0_2718_572)">
<path d="M47.139 23.7252C47.139 36.6258 36.611 47.0984 23.6422 47.0984C10.6735 47.0984 0.145508 36.6258 0.145508 23.7252C0.145508 10.8247 10.6735 0.352051 23.6422 0.352051C36.611 0.352051 47.139 10.8066 47.139 23.7252Z" fill="white"/>
<path d="M23.6425 47.189C10.6373 47.189 0.0546875 36.662 0.0546875 23.7252C0.0546875 10.7885 10.6373 0.261475 23.6425 0.261475C36.6477 0.261475 47.2303 10.7885 47.2303 23.7252C47.2303 36.662 36.6477 47.189 23.6425 47.189ZM23.6425 0.442662C10.7466 0.442662 0.236833 10.8791 0.236833 23.7252C0.236833 36.5714 10.7284 47.0078 23.6425 47.0078C36.5566 47.0078 47.0482 36.5714 47.0482 23.7252C47.0482 10.8791 36.5566 0.442662 23.6425 0.442662Z" fill="#262626"/>
<path d="M23.6428 0.352051C24.8086 0.352051 27.7411 0.51512 30.5644 2.50818C30.8011 2.67125 35.6462 6.2044 35.5734 12.1836C35.4823 18.507 29.9451 22.0583 29.5261 22.3301C24.8268 25.2472 21.9125 22.475 17.4681 25.5009C14.5538 27.4758 12.0766 31.172 12.0948 35.4118C12.113 39.7965 14.7724 42.7137 15.3917 43.3841C18.6521 46.7904 22.7868 47.0622 23.661 47.0984C36.5569 47.0984 47.1578 36.5533 47.1578 23.7252C47.1578 10.8972 36.5387 0.352051 23.6428 0.352051Z" fill="#323333"/>
<path d="M23.6426 47.189C22.1491 47.1165 18.3604 46.6273 15.3186 43.4384C14.3168 42.3875 12.0036 39.5248 11.9854 35.3937C11.9854 31.5706 14.0982 27.6389 17.4133 25.4103C19.6901 23.8702 21.6026 23.8339 23.4423 23.7796C25.2637 23.7252 27.1581 23.689 29.4713 22.2395C29.7081 22.0945 35.391 18.4889 35.4821 12.1655C35.5732 6.1863 30.7281 2.7075 30.5095 2.56255C27.8866 0.732562 25.0816 0.442662 23.6426 0.442662V0.261475C29.9084 0.261475 35.81 2.7075 40.2907 7.16471C44.7715 11.6219 47.2305 17.4924 47.2305 23.7252C47.2305 29.9581 44.7715 35.8285 40.2907 40.2858C35.8282 44.743 29.9084 47.189 23.6426 47.189ZM26.6298 0.623849C27.8684 0.931868 29.2709 1.47543 30.6188 2.4176C30.8192 2.56255 35.7553 6.09571 35.6642 12.1655C35.5732 18.5795 29.8174 22.2395 29.5806 22.3844C27.2309 23.8521 25.3184 23.8883 23.4605 23.9427C21.548 23.997 19.7447 24.0333 17.5226 25.5371C14.2622 27.7295 12.1675 31.6069 12.1857 35.3756C12.2039 39.4342 14.4807 42.2607 15.4643 43.2935C18.4697 46.428 22.2037 46.9172 23.6609 46.9897C29.872 46.9897 35.7371 44.5618 40.1814 40.1408C44.6258 35.7198 47.0665 29.8856 47.0665 23.7071C47.0665 17.5286 44.6258 11.6944 40.1814 7.27342C36.4475 3.59532 31.7299 1.27612 26.6298 0.623849Z" fill="#262626"/>
<path d="M28.4327 10.6435C28.4327 10.6435 28.3599 10.6435 28.3417 10.6072V10.5891C28.3417 10.1362 28.3599 9.68319 28.3599 9.23022C28.3599 9.23022 28.3599 9.23022 28.3417 9.23022C28.3234 9.23022 28.3052 9.23022 28.287 9.2121C28.2688 9.19398 28.2506 9.17586 28.2506 9.17586V9.15774C28.2324 9.10339 28.2142 9.01279 28.2324 8.99467H28.2506C28.2506 8.99467 28.2506 8.99467 28.2688 8.99467C28.287 8.99467 28.3234 8.99467 28.3963 8.99467C28.287 8.03438 28.2506 7.59953 28.2324 7.45458C28.2324 7.43646 28.2324 7.41834 28.2324 7.38211C28.2142 7.29151 28.2142 7.14656 28.1777 6.96538C28.1595 6.82043 28.1231 6.63924 28.0867 6.45805C28.0684 6.40369 28.0684 6.34934 28.0684 6.3131C28.0684 6.27686 28.0684 6.25874 28.0867 6.24063C28.1049 6.22251 28.1231 6.18627 28.1231 6.18627C28.1413 6.16815 28.1413 6.16815 28.1413 6.15003C28.1413 6.13191 28.1413 6.09568 28.1231 6.09568C28.0867 6.0232 28.0684 6.00508 28.032 5.96885C28.0138 5.95073 27.9956 5.91449 27.9956 5.86013C27.9956 5.87825 27.9956 5.89637 27.9774 5.93261C27.9592 5.96884 27.9409 5.96884 27.9227 6.0232C27.9045 6.05944 27.8863 6.09568 27.8863 6.11379C27.8863 6.16815 27.8863 6.20439 27.8863 6.20439C27.9045 6.24063 27.9045 6.24063 27.9227 6.27686C27.9227 6.3131 27.9227 6.33122 27.9227 6.36746C27.9227 6.42181 27.9227 6.45805 27.9227 6.45805C27.9227 6.51241 27.8863 6.71171 27.8317 6.98349C27.8317 7.01973 27.8134 7.07409 27.8134 7.11033C27.777 7.29151 27.7042 7.79884 27.5949 8.99467C27.6313 8.99467 27.6677 8.99467 27.7042 8.99467H27.7224C27.7224 8.99467 27.7224 8.99467 27.7406 8.99467C27.7406 8.99467 27.7406 8.99467 27.7406 9.01279C27.7406 9.03091 27.7406 9.03091 27.7406 9.03091C27.7406 9.08527 27.7406 9.10339 27.7406 9.10339C27.7406 9.13962 27.7224 9.15774 27.7224 9.17586C27.7224 9.19398 27.7042 9.19398 27.7042 9.2121L27.6859 9.23022C27.6677 9.23022 27.6677 9.23022 27.6495 9.24834C27.6313 9.24834 27.6313 9.24834 27.6131 9.24834C27.6131 9.59259 27.6313 9.95497 27.6313 10.2992L27.5038 10.118C27.5038 9.82814 27.5038 9.53824 27.5038 9.23022H27.4856C27.4674 9.23022 27.4491 9.23022 27.4309 9.2121C27.4127 9.19398 27.3945 9.19398 27.3945 9.17586C27.3945 9.17586 27.3945 9.15774 27.3763 9.15774C27.3581 9.12151 27.3581 9.08527 27.3581 9.06715C27.3581 9.04903 27.3581 9.03091 27.3581 9.01279C27.3581 9.01279 27.3581 9.01279 27.3581 8.99467H27.3763C27.3945 8.99467 27.3945 8.99467 27.4127 8.99467C27.4309 8.99467 27.4127 8.99467 27.4309 8.99467C27.4491 8.99467 27.4491 8.99467 27.4674 8.99467C27.3581 8.10686 27.2488 7.20092 27.1213 6.3131C27.1213 6.3131 27.1213 6.29498 27.1213 6.27686C27.1213 6.27686 27.1213 6.25874 27.1395 6.24063C27.1577 6.22251 27.1577 6.20439 27.1577 6.20439C27.1759 6.18627 27.1759 6.18627 27.1759 6.16815C27.1759 6.16815 27.1759 6.15003 27.1759 6.13191C27.1759 6.11379 27.1577 6.09568 27.1577 6.07756C27.1395 6.05944 27.1213 6.0232 27.1031 6.00508C27.0849 5.98696 27.0849 5.96885 27.0666 5.95073C27.0666 5.93261 27.0484 5.89637 27.0484 5.86013C27.0484 5.87825 27.0484 5.89637 27.0302 5.91449C27.0302 5.91449 27.012 5.95073 26.9938 5.96885C26.9756 5.98696 26.9756 5.98696 26.9391 6.0232C26.9209 6.04132 26.9209 6.05944 26.9027 6.07756C26.9027 6.09568 26.8845 6.11379 26.8845 6.13191C26.8845 6.15003 26.8845 6.16815 26.8845 6.18627C26.8845 6.20439 26.9027 6.22251 26.9027 6.22251C26.9027 6.24063 26.9027 6.24063 26.9209 6.24063C26.9209 6.25874 26.9391 6.27686 26.9391 6.29498C26.9391 6.3131 26.9391 6.3131 26.9391 6.34934C26.9391 6.38558 26.9391 6.40369 26.9391 6.43993C26.9391 6.45805 26.9391 6.47617 26.9391 6.49429C26.9391 6.51241 26.8299 7.23716 26.5931 8.97656C26.6295 8.97656 26.6841 8.97656 26.7206 8.97656C26.7388 8.97656 26.7388 8.97656 26.7388 8.97656C26.7388 8.97656 26.7388 8.97656 26.757 8.97656C26.757 8.97656 26.757 8.97656 26.757 8.99467V9.01279C26.757 9.04903 26.757 9.06715 26.757 9.08527C26.7388 9.13962 26.7388 9.15774 26.7206 9.17586C26.7206 9.19398 26.7024 9.19398 26.7024 9.19398C26.6841 9.19398 26.6841 9.2121 26.6659 9.2121C26.6477 9.2121 26.6477 9.2121 26.6113 9.2121C26.6113 9.24834 26.6113 9.28457 26.6113 9.30269C26.6295 9.33893 26.6477 9.35705 26.6477 9.39329C26.6477 9.41141 26.6477 9.42952 26.6295 9.42952C26.5931 9.41141 26.5566 9.41141 26.5202 9.39329C26.4656 9.37517 26.4291 9.33893 26.4109 9.33893C26.3563 9.32081 26.3016 9.26646 26.1923 9.23022C26.2288 9.35705 26.2652 9.46576 26.3016 9.59259C26.2834 9.71942 26.2652 9.81002 26.2288 9.88249C26.1923 10.0093 26.1559 10.0999 26.0831 10.1905C26.0284 10.2449 25.9738 10.2811 25.9556 10.2992C25.8098 10.3717 25.6641 10.3536 25.6095 10.3536C25.5731 10.3536 25.2452 10.2992 25.1359 10.0456C25.1177 10.0093 25.1177 9.97309 25.0995 9.90061C25.0813 9.7919 25.0813 9.7013 25.0813 9.66507C25.063 9.502 25.0266 9.32081 25.0084 9.28457C24.9902 9.2121 24.972 9.17586 24.972 9.10339C24.972 9.10339 24.9538 9.01279 24.9538 8.94032C24.9538 8.94032 24.9538 8.9222 24.972 8.90408C24.972 8.90408 24.972 8.90408 24.9902 8.90408C24.9902 8.90408 25.0084 8.90408 25.0266 8.9222L25.4273 9.03091C25.4455 9.03091 25.4455 9.01279 25.4638 9.01279C25.4638 8.99467 25.4638 8.99467 25.4638 8.97656C25.4638 8.95844 25.4638 8.9222 25.482 8.90408C25.482 8.90408 25.5002 8.86784 25.5184 8.86784C25.5366 8.86784 25.5366 8.86784 25.5548 8.86784C25.5731 8.86784 25.5913 8.86784 25.6277 8.86784C25.6459 8.81349 25.6459 8.77725 25.6641 8.74101C25.6641 8.72289 25.6823 8.70477 25.6641 8.68666C25.6641 8.66854 25.6459 8.66854 25.6459 8.66854C25.5366 8.61418 25.482 8.59606 25.482 8.59606C25.318 8.57794 25.318 8.50547 25.0995 8.46923C25.0266 8.45111 24.9538 8.45111 24.8445 8.41487C24.808 8.39676 24.7534 8.37864 24.7352 8.3424C24.717 8.30616 24.717 8.25181 24.717 8.25181C24.717 8.23369 24.7352 8.21557 24.7534 8.19745C24.7716 8.16121 24.7898 8.14309 24.808 8.12497C24.808 8.10686 24.808 8.08874 24.808 8.07062C24.7716 8.01626 24.7352 7.96191 24.6988 7.90755C24.6988 7.90755 24.6805 7.88943 24.6623 7.88943C24.6077 7.87131 24.5713 7.88943 24.5348 7.87131C24.4984 7.85319 24.462 7.81696 24.462 7.81696C24.4438 7.79884 24.4438 7.78072 24.4255 7.72636C24.4073 7.70824 24.4073 7.69012 24.3891 7.67201C24.3709 7.65389 24.3709 7.63577 24.3345 7.59953C24.3162 7.58141 24.298 7.56329 24.2798 7.54518C24.2616 7.54518 24.2252 7.52706 24.1887 7.52706C24.1705 7.52706 24.1523 7.52706 24.1341 7.52706C24.1341 7.54518 24.1159 7.56329 24.0795 7.58141C24.0612 7.58141 24.043 7.59953 23.9884 7.59953C23.9702 7.59953 23.952 7.58141 23.9155 7.56329C23.9155 7.56329 23.8791 7.52706 23.8245 7.49082C23.788 7.45458 23.788 7.43646 23.788 7.43646C23.788 7.43646 23.7698 7.40023 23.788 7.36399C23.8062 7.32775 23.8245 7.32775 23.8427 7.30963C23.8609 7.29151 23.8973 7.29151 23.9155 7.29151C24.0612 7.29151 24.1887 7.29151 24.3345 7.29151C24.3345 7.29151 24.3891 7.29151 24.4073 7.25528C24.4073 7.25528 24.4255 7.23716 24.4073 7.1828C24.3891 7.14656 24.3709 7.11033 24.3162 7.05597C24.2798 7.01973 24.2434 6.98349 24.1705 6.96538C24.1341 6.94726 24.1159 6.94726 24.0795 6.91102C24.0612 6.8929 24.0612 6.87478 24.0612 6.85666C24.0612 6.83854 24.0612 6.80231 24.0795 6.76607C24.0795 6.72983 24.0977 6.69359 24.0977 6.65736C24.1159 6.63924 24.1159 6.62112 24.1341 6.603C24.207 6.51241 24.2252 6.51241 24.2434 6.47617C24.2798 6.42181 24.298 6.36746 24.298 6.34934C24.298 6.33122 24.298 6.3131 24.298 6.27686C24.298 6.24063 24.298 6.18627 24.2798 6.11379C24.2616 6.05944 24.2434 6.00508 24.2434 5.98696C24.2434 5.89637 24.2616 5.84201 24.2616 5.80578C24.2798 5.75142 24.298 5.75142 24.298 5.69706C24.298 5.64271 24.298 5.60647 24.2798 5.55211C24.2616 5.51588 24.2434 5.4434 24.207 5.37093C24.1705 5.28033 24.1523 5.20786 24.1341 5.1535C24.1341 5.13538 24.1159 5.08103 24.0795 5.04479C24.0612 5.02667 24.043 5.00855 24.0066 5.00855C23.9702 5.00855 23.9337 5.02667 23.9155 5.06291C23.9155 5.08103 23.8973 5.08103 23.8791 5.09915C23.8609 5.09915 23.8427 5.09915 23.8427 5.09915C23.8245 5.09915 23.8062 5.08103 23.8062 5.06291C23.8062 5.00855 23.8245 4.9542 23.8245 4.91796C23.8245 4.77301 23.8062 4.75489 23.8245 4.6643C23.8245 4.62806 23.8427 4.60994 23.8427 4.5737C23.8427 4.53746 23.8427 4.50123 23.8062 4.46499C23.788 4.42875 23.7516 4.42875 23.697 4.41063C23.6423 4.39251 23.6059 4.3744 23.5512 4.39251C23.5148 4.41063 23.4602 4.42875 23.442 4.44687C23.4055 4.46499 23.4055 4.48311 23.3691 4.48311C23.3509 4.48311 23.3327 4.48311 23.3144 4.48311C23.2598 4.48311 23.2052 4.50123 23.1687 4.53746C23.1323 4.5737 23.1323 4.60994 23.1141 4.6643C23.0594 4.89984 23.0594 4.84548 23.0412 4.97231C23.0412 4.97231 23.023 5.06291 23.0412 5.33469C23.0412 5.35281 23.0412 5.37093 23.0594 5.38905C23.0594 5.38905 23.0777 5.42528 23.1141 5.4434C23.1505 5.46152 23.2052 5.4434 23.2052 5.4434C23.2416 5.42528 23.2416 5.40716 23.278 5.40716C23.2962 5.40716 23.3144 5.40716 23.3144 5.40716C23.3327 5.40716 23.3327 5.42528 23.3327 5.4434C23.3145 5.4434 23.2052 5.51588 23.1323 5.55211C23.1323 5.55211 23.1141 5.55211 23.1141 5.57023C23.0777 5.58835 23.0594 5.60647 23.0412 5.64271C23.023 5.67895 23.023 5.69706 23.0412 5.69706C23.0594 5.75142 23.0959 5.78766 23.1141 5.78766C23.1141 5.80578 23.1323 5.82389 23.1141 5.84201C23.1141 5.86013 23.0777 5.87825 23.0412 5.89637C23.023 5.89637 22.9866 5.91449 22.9502 5.91449C22.9137 5.91449 22.8773 5.91449 22.8591 5.89637C22.8591 5.95073 22.8409 5.98696 22.8409 6.00508C22.8409 6.0232 22.8409 6.04132 22.8409 6.05944C22.8409 6.11379 22.8773 6.11379 22.8773 6.15003C22.8773 6.16815 22.8773 6.16815 22.8773 6.24063C22.8591 6.33122 22.8773 6.34934 22.8773 6.34934C22.8773 6.36746 22.8955 6.40369 22.9319 6.42181C22.9866 6.43993 23.023 6.45805 23.0412 6.45805C23.0594 6.45805 23.0777 6.45805 23.1323 6.45805C23.1687 6.45805 23.1869 6.47617 23.2052 6.47617C23.2234 6.49429 23.2234 6.51241 23.2234 6.53053C23.2234 6.54864 23.278 6.71171 23.278 6.78419C23.278 6.80231 23.278 6.82043 23.2598 6.82043C23.2416 6.83854 23.2234 6.83854 23.2052 6.83854C23.1869 6.83854 23.1869 6.83854 23.1687 6.83854C23.1505 6.83854 23.1323 6.83854 23.0959 6.85666C23.0959 6.87478 23.0959 6.8929 23.0959 6.92914C23.0959 6.92914 23.0959 6.96538 23.0959 6.98349C23.0777 7.05597 23.0048 7.12844 22.9684 7.1828C22.9684 7.1828 22.9684 7.20092 22.9502 7.21904C22.9502 7.23716 22.9502 7.23716 22.9502 7.25528C22.9684 7.27339 22.9866 7.27339 22.9866 7.27339C23.023 7.27339 23.2598 7.25528 23.3691 7.27339C23.4055 7.27339 23.4237 7.29151 23.4602 7.30963C23.4602 7.30963 23.4784 7.34587 23.4784 7.38211C23.4784 7.41834 23.442 7.43646 23.4055 7.4727C23.3509 7.52706 23.3144 7.54518 23.2962 7.54518C23.2598 7.56329 23.2416 7.56329 23.2234 7.56329C23.2234 7.56329 23.2234 7.56329 23.1687 7.54518C23.1505 7.52706 23.1323 7.52706 23.1323 7.52706C23.1141 7.52706 23.0959 7.52706 23.0777 7.52706C23.023 7.54518 22.9866 7.56329 22.9319 7.58141C22.9319 7.58141 22.9137 7.59953 22.8955 7.59953C22.8773 7.61765 22.8773 7.63577 22.8773 7.63577C22.8409 7.74448 22.8409 7.7626 22.8227 7.79884C22.8227 7.81696 22.7862 7.85319 22.7316 7.85319C22.7134 7.85319 22.6769 7.85319 22.6769 7.85319C22.6587 7.85319 22.6587 7.85319 22.6405 7.85319C22.6223 7.85319 22.6041 7.87131 22.6041 7.87131C22.5494 7.94379 22.4948 7.98003 22.4766 7.99814C22.4766 7.99814 22.4584 8.01626 22.4584 8.03438C22.4584 8.0525 22.4584 8.07062 22.4584 8.07062C22.4766 8.12497 22.513 8.16121 22.5312 8.21557C22.5312 8.21557 22.5494 8.26992 22.513 8.30616C22.4948 8.3424 22.4402 8.36052 22.4037 8.37864C22.2944 8.41487 22.2216 8.41487 22.1487 8.43299C21.9301 8.46923 21.9119 8.54171 21.7662 8.55982C21.7662 8.55982 21.7116 8.55982 21.6023 8.6323C21.6023 8.6323 21.5841 8.6323 21.5841 8.65042C21.5841 8.66854 21.5841 8.68666 21.5841 8.70477C21.6023 8.72289 21.6023 8.77725 21.6205 8.83161C21.6569 8.83161 21.6751 8.83161 21.6934 8.83161C21.7116 8.83161 21.7298 8.83161 21.7298 8.83161C21.748 8.84972 21.7662 8.86784 21.7662 8.86784C21.7844 8.90408 21.7844 8.94032 21.7844 8.94032C21.7844 8.95844 21.7844 8.97656 21.7844 8.97656C21.7844 8.99467 21.8026 8.99467 21.8209 8.99467L22.2216 8.88596C22.2398 8.88596 22.258 8.86784 22.258 8.86784C22.2762 8.86784 22.2762 8.86784 22.2762 8.86784C22.2944 8.86784 22.2944 8.88596 22.2944 8.90408C22.2944 8.97656 22.2762 9.06715 22.2762 9.06715C22.258 9.13962 22.258 9.15774 22.2398 9.24834C22.2216 9.28457 22.1851 9.46576 22.1669 9.64695C22.1669 9.68319 22.1669 9.77378 22.1487 9.88249C22.1305 9.97309 22.1305 10.0093 22.1123 10.0274C22.0212 10.2811 21.6934 10.3173 21.6387 10.3355C21.5841 10.3355 21.4384 10.3536 21.2926 10.2811C21.2744 10.2811 21.2198 10.2449 21.1651 10.1724C21.0923 10.0818 21.0558 10.0093 21.0194 9.86437C21.0012 9.7919 20.9648 9.7013 20.9466 9.57447C20.983 9.44764 21.0194 9.33893 21.0558 9.2121C20.9648 9.24834 20.8919 9.28457 20.8373 9.32081C20.8191 9.33893 20.7826 9.35705 20.728 9.37517C20.6916 9.39329 20.6551 9.41141 20.6369 9.41141C20.6369 9.41141 20.6187 9.39329 20.6187 9.37517C20.6187 9.33893 20.6369 9.32081 20.6551 9.28457C20.6551 9.26646 20.6733 9.23022 20.6551 9.19398C20.6369 9.19398 20.6187 9.19398 20.6005 9.19398C20.5823 9.19398 20.5823 9.19398 20.5641 9.17586C20.5458 9.17586 20.5458 9.15774 20.5458 9.15774C20.5458 9.13962 20.5276 9.12151 20.5094 9.06715C20.5094 9.04903 20.5094 9.03091 20.5094 8.99467V8.97656C20.5094 8.97656 20.5094 8.97656 20.5094 8.95844C20.5094 8.95844 20.5094 8.95844 20.5276 8.95844H20.5458C20.5823 8.95844 20.6369 8.95844 20.6733 8.95844C20.4366 7.21904 20.3273 6.49429 20.3273 6.47617C20.3273 6.45805 20.3273 6.43993 20.3273 6.42181C20.3273 6.38558 20.3273 6.36746 20.3273 6.33122C20.3273 6.29498 20.3273 6.27686 20.3273 6.27686C20.3273 6.25874 20.3273 6.24063 20.3455 6.22251C20.3455 6.20439 20.3455 6.20439 20.3637 6.20439C20.3637 6.20439 20.3637 6.18627 20.3819 6.16815C20.3819 6.15003 20.3819 6.13191 20.3819 6.11379C20.3819 6.09568 20.3637 6.07756 20.3637 6.05944C20.3455 6.04132 20.3455 6.0232 20.3273 6.00508C20.3091 5.96884 20.2908 5.96885 20.2726 5.95073C20.2544 5.91449 20.2362 5.89637 20.2362 5.87825C20.2362 5.86013 20.218 5.84201 20.218 5.82389C20.218 5.86013 20.1998 5.89637 20.1998 5.91449C20.1998 5.93261 20.1816 5.95073 20.1633 5.96885C20.1451 5.98696 20.1269 6.0232 20.1087 6.04132C20.0905 6.05944 20.0905 6.07756 20.0905 6.09568C20.0905 6.1138 20.0905 6.13191 20.0905 6.13191C20.0905 6.15003 20.0905 6.15003 20.1087 6.16815C20.1087 6.16815 20.1269 6.18627 20.1269 6.20439C20.1451 6.22251 20.1451 6.24063 20.1451 6.24063C20.1451 6.25874 20.1451 6.25874 20.1451 6.27686C20.0358 7.16468 19.9265 8.07062 19.799 8.95844C19.8173 8.95844 19.8355 8.95844 19.8355 8.95844C19.8537 8.95844 19.8537 8.95844 19.8537 8.95844C19.8719 8.95844 19.8719 8.95844 19.8901 8.95844H19.9083V8.97656C19.9083 8.99467 19.9083 9.01279 19.9083 9.03091C19.9083 9.04903 19.9083 9.08527 19.8901 9.12151C19.8901 9.13962 19.8901 9.13962 19.8719 9.13962C19.8719 9.13962 19.8537 9.15774 19.8355 9.17586C19.8173 9.17586 19.8173 9.17586 19.7808 9.19398H19.7626V10.0818C19.7262 10.1362 19.6715 10.1905 19.6351 10.263C19.6351 9.91873 19.6533 9.55635 19.6533 9.2121C19.6533 9.2121 19.6351 9.2121 19.6169 9.2121C19.5987 9.2121 19.5987 9.2121 19.5805 9.19398C19.5623 9.19398 19.5623 9.17586 19.5623 9.17586C19.544 9.15774 19.544 9.15774 19.544 9.13962C19.5258 9.12151 19.5258 9.10339 19.5258 9.06715C19.5258 9.06715 19.5258 9.04903 19.5258 8.99467C19.5258 8.99467 19.5258 8.99467 19.5258 8.97656C19.5258 8.97656 19.5258 8.97656 19.5258 8.95844C19.5258 8.95844 19.5258 8.95844 19.544 8.95844C19.5623 8.95844 19.5623 8.95844 19.5623 8.95844C19.5987 8.95844 19.6351 8.95844 19.6715 8.95844C19.544 7.7626 19.4894 7.25528 19.453 7.07409C19.453 7.03785 19.4348 6.98349 19.4348 6.94726C19.3801 6.67548 19.3437 6.47617 19.3437 6.42181C19.3437 6.42181 19.3437 6.38558 19.3437 6.33122C19.3437 6.29498 19.3437 6.27686 19.3437 6.24063C19.3619 6.20439 19.3619 6.20439 19.3619 6.16815C19.3619 6.15003 19.3801 6.11379 19.3619 6.07756C19.3619 6.04132 19.3437 6.0232 19.3255 5.98696C19.289 5.93261 19.289 5.93261 19.2708 5.89637C19.2526 5.86013 19.2526 5.84201 19.2526 5.82389C19.2526 5.87825 19.2344 5.91449 19.2162 5.93261C19.198 5.96884 19.1615 6.00508 19.1251 6.05944C19.1251 6.07756 19.1069 6.09568 19.1069 6.11379C19.1069 6.13191 19.1069 6.13191 19.1251 6.15003C19.1251 6.15003 19.1433 6.18627 19.1615 6.20439C19.1615 6.22251 19.1798 6.24063 19.1798 6.27686C19.1798 6.3131 19.1615 6.34934 19.1615 6.42181C19.1251 6.62112 19.1069 6.78419 19.0705 6.92914C19.0523 7.11033 19.034 7.25528 19.0158 7.34587C19.0158 7.38211 19.0158 7.40023 19.0158 7.41834C18.9976 7.56329 18.9612 7.99814 18.8519 8.95844C18.9065 8.95844 18.9612 8.95844 18.9794 8.95844H18.9976C18.9976 8.95844 18.9976 8.95844 19.0158 8.95844C19.034 8.97656 19.0158 9.06715 18.9976 9.12151C18.9976 9.12151 18.9976 9.12151 18.9976 9.13962C18.9976 9.13962 18.9794 9.15774 18.9612 9.17586C18.943 9.17586 18.943 9.17586 18.9065 9.19398H18.8883C18.8883 9.64695 18.9065 10.0999 18.9065 10.5529V10.571C18.8883 10.6072 18.8155 10.6072 18.8155 10.6072C18.688 10.6072 18.5787 10.6072 18.4512 10.6072C18.4694 10.6254 18.4876 10.6616 18.5058 10.716C18.524 10.7703 18.5058 10.8065 18.5058 10.8247C18.524 10.8428 18.524 10.8609 18.5422 10.879C18.5787 10.9334 18.5969 10.9696 18.5969 11.0059C18.6333 11.0059 18.6697 11.0059 18.7244 10.9877C18.779 10.9696 18.8155 10.9515 18.8337 10.9334C18.8519 10.9334 18.8701 10.9515 18.8883 10.9696C18.9247 11.0059 18.8883 11.0602 18.8883 11.0783C18.8701 11.1508 18.8701 14.1404 18.8883 19.1955C19.799 19.1955 20.7098 19.1955 21.6387 19.1955V14.5752C21.7116 13.5606 22.5494 12.7634 23.5695 12.7453C24.6077 12.7271 25.482 13.5425 25.5366 14.5752V19.2318H28.2324C28.2324 16.5321 28.2324 13.8324 28.2324 11.1146C28.2142 11.0783 28.2142 11.0421 28.2324 11.0059C28.2506 10.9877 28.287 10.9696 28.287 10.9696C28.3052 10.9877 28.3417 11.0059 28.3963 11.024C28.4509 11.0421 28.4874 11.0421 28.5238 11.0421C28.542 10.9515 28.5784 10.8428 28.6331 10.7341C28.6513 10.6978 28.6695 10.6616 28.6877 10.6254C28.6695 10.6435 28.542 10.6435 28.4327 10.6435ZM23.2962 5.02667C23.278 4.93608 23.3327 4.8636 23.3327 4.8636L23.3691 5.00855L23.4055 5.13538C23.3873 5.13538 23.3144 5.09915 23.2962 5.02667ZM23.4237 4.9542C23.4055 4.88172 23.3873 4.82736 23.3691 4.77301C23.442 4.84548 23.4602 4.91796 23.4784 4.9542C23.4784 4.99043 23.4966 5.02667 23.4966 5.04479C23.4966 5.09915 23.5148 5.1535 23.5148 5.18974C23.4784 5.11726 23.442 5.04479 23.4237 4.9542Z" fill="#323333"/>
<path d="M23.0781 3.54102C23.1146 3.7222 23.151 3.88527 23.2056 4.06646L23.3331 4.57378L23.5881 5.60655L23.5335 5.62467C23.4606 5.28041 23.3878 4.95428 23.3149 4.5919C23.2421 4.26577 23.1692 3.90339 23.0781 3.54102ZM23.0781 3.54102C23.151 3.86715 23.2421 4.21141 23.3331 4.55566C23.4242 4.89992 23.4971 5.2623 23.5881 5.60655L23.5335 5.62467C23.4606 5.28041 23.3696 4.93616 23.2967 4.5919L23.1874 4.06646C23.1328 3.90339 23.1146 3.7222 23.0781 3.54102Z" fill="#323333"/>
<path d="M20.9648 30.8639C21.2563 30.2298 21.5477 29.5775 21.8391 28.9434C22.8774 28.9434 23.9156 28.9434 24.972 28.9434V40.7387H22.7681V30.8639H20.9648Z" fill="white"/>
<path d="M25.0451 40.8293H22.659V30.9546H20.8193L21.7847 28.8528H25.0633V40.8293H25.0451ZM22.8411 40.6481H24.863V29.034H21.894L21.0926 30.7734H22.8411V40.6481Z" fill="#262626"/>
<path d="M62.8398 20.2285C62.9673 20.2285 63.0766 20.2829 63.1677 20.3735L64.0784 21.3519C63.3863 22.1491 62.5484 22.7833 61.5466 23.2181C60.563 23.6711 59.3609 23.8885 57.9583 23.8885C56.738 23.8885 55.6451 23.6711 54.6433 23.2543C53.6415 22.8376 52.8036 22.2397 52.0933 21.4787C51.3829 20.7177 50.8547 19.8118 50.454 18.7609C50.0715 17.6919 49.8711 16.5323 49.8711 15.264C49.8711 13.9957 50.0715 12.8179 50.4722 11.7671C50.8729 10.7162 51.4375 9.79212 52.1661 9.03113C52.8947 8.27014 53.769 7.67222 54.789 7.25549C55.809 6.83876 56.9383 6.62134 58.1587 6.62134C59.3609 6.62134 60.4355 6.82064 61.3462 7.20114C62.2752 7.58163 63.0766 8.10707 63.787 8.75935L63.022 9.81024C62.9673 9.88271 62.9127 9.95519 62.8398 10.0095C62.767 10.0639 62.6577 10.082 62.5302 10.082C62.3845 10.082 62.2205 10.0095 62.002 9.84647C61.8016 9.70152 61.5284 9.52034 61.2005 9.33915C60.8727 9.15796 60.4537 8.97677 59.9619 8.83182C59.4702 8.68687 58.8509 8.59628 58.1223 8.59628C57.248 8.59628 56.4465 8.74123 55.718 9.04925C54.9894 9.35727 54.3701 9.79212 53.8419 10.3538C53.3136 10.9336 52.9129 11.6221 52.6215 12.4556C52.3301 13.2709 52.1843 14.2131 52.1843 15.2459C52.1843 16.2967 52.3301 17.2389 52.6397 18.0543C52.9494 18.8696 53.3501 19.5762 53.8783 20.1379C54.4065 20.6996 55.0258 21.1344 55.7362 21.4425C56.4465 21.7324 57.2298 21.8954 58.0494 21.8954C58.5594 21.8954 59.0148 21.8592 59.4155 21.8048C59.8162 21.7505 60.1987 21.6599 60.5448 21.5331C60.8909 21.4062 61.2005 21.2432 61.5102 21.062C61.8016 20.8627 62.093 20.6452 62.3845 20.3735C62.5666 20.2829 62.7123 20.2285 62.8398 20.2285Z" fill="#323333"/>
<path d="M71.3098 11.604C72.1841 11.604 72.9674 11.749 73.6777 12.0389C74.3881 12.3288 74.971 12.7455 75.481 13.2709C75.9728 13.7964 76.3553 14.4486 76.6285 15.2096C76.9017 15.9706 77.0292 16.8222 77.0292 17.7463C77.0292 18.6884 76.9017 19.54 76.6285 20.2829C76.3553 21.0439 75.991 21.678 75.481 22.2216C74.9892 22.747 74.3881 23.1638 73.6777 23.4537C72.9674 23.7436 72.1841 23.8885 71.3098 23.8885C70.4173 23.8885 69.6341 23.7436 68.9237 23.4537C68.2134 23.1638 67.6123 22.7651 67.1205 22.2216C66.6287 21.6961 66.2462 21.0439 65.973 20.2829C65.6998 19.5219 65.5723 18.6884 65.5723 17.7463C65.5723 16.8041 65.6998 15.9706 65.973 15.2096C66.2462 14.4486 66.6105 13.8145 67.1205 13.2709C67.6123 12.7455 68.2134 12.3288 68.9237 12.0389C69.6341 11.749 70.4173 11.604 71.3098 11.604ZM71.3098 22.2397C72.4938 22.2397 73.3863 21.8411 73.9692 21.062C74.552 20.2648 74.8435 19.1776 74.8435 17.7644C74.8435 16.3511 74.552 15.2278 73.9692 14.4486C73.3863 13.6514 72.4938 13.2528 71.3098 13.2528C70.7088 13.2528 70.1805 13.3615 69.7434 13.5608C69.3062 13.7601 68.9237 14.0682 68.6323 14.4486C68.3409 14.8291 68.1223 15.3002 67.9766 15.8619C67.8309 16.4236 67.758 17.0577 67.758 17.7644C67.758 19.1776 68.0494 20.2829 68.6323 21.062C69.2152 21.8411 70.1077 22.2397 71.3098 22.2397Z" fill="#323333"/>
<path d="M89.5973 6.36768V23.7073H88.3405C88.0491 23.7073 87.8487 23.5624 87.7758 23.2725L87.5937 21.823C87.0837 22.439 86.5008 22.9282 85.8451 23.3087C85.1894 23.6892 84.4244 23.8704 83.5683 23.8704C82.8761 23.8704 82.2568 23.7435 81.6922 23.4718C81.1275 23.2 80.654 22.8195 80.2532 22.3122C79.8525 21.8048 79.5611 21.1707 79.3425 20.4097C79.1239 19.6487 79.0146 18.779 79.0146 17.7825C79.0146 16.8947 79.1422 16.0793 79.3789 15.3183C79.6157 14.5573 79.9618 13.9051 80.399 13.3434C80.8361 12.7817 81.3825 12.3469 82.02 12.0388C82.6576 11.7127 83.3861 11.5678 84.1876 11.5678C84.9162 11.5678 85.5537 11.6946 86.0819 11.9301C86.6101 12.1838 87.0655 12.528 87.4844 12.9629V6.36768H89.5973ZM87.4844 14.6298C87.0837 14.1044 86.6647 13.742 86.2094 13.5246C85.754 13.3253 85.244 13.2166 84.6612 13.2166C83.5501 13.2166 82.694 13.6152 82.0929 14.4124C81.4918 15.2096 81.2004 16.333 81.2004 17.8006C81.2004 18.5797 81.2733 19.2501 81.4008 19.7937C81.5283 20.3553 81.7286 20.8083 81.9836 21.1526C82.2386 21.5149 82.5665 21.7686 82.949 21.9317C83.3315 22.0947 83.7504 22.1853 84.2422 22.1853C84.9344 22.1853 85.5355 22.0223 86.0637 21.7142C86.5737 21.4062 87.0473 20.9533 87.4844 20.3916V14.6298Z" fill="#323333"/>
<path d="M102.675 22.0404C102.42 22.3485 102.11 22.6202 101.746 22.8558C101.382 23.0913 100.999 23.2725 100.58 23.4356C100.161 23.5805 99.7424 23.6893 99.287 23.7798C98.8499 23.8523 98.4127 23.8886 97.9756 23.8886C97.1559 23.8886 96.3909 23.7436 95.6805 23.4718C94.9702 23.2 94.3691 22.7833 93.8773 22.2398C93.3673 21.6962 92.9666 21.0439 92.6933 20.2467C92.4019 19.4495 92.2744 18.5435 92.2744 17.5108C92.2744 16.6773 92.4019 15.8982 92.6569 15.1734C92.9119 14.4487 93.2762 13.8327 93.768 13.2891C94.2416 12.7637 94.8427 12.3469 95.5348 12.0389C96.227 11.7309 97.0102 11.5859 97.8845 11.5859C98.5949 11.5859 99.2688 11.7128 99.8881 11.9483C100.507 12.1839 101.036 12.5281 101.473 12.9811C101.91 13.434 102.274 13.9957 102.529 14.648C102.784 15.3184 102.912 16.0613 102.912 16.9128C102.912 17.239 102.875 17.4564 102.802 17.5651C102.73 17.6738 102.602 17.7282 102.402 17.7282H94.3873C94.4055 18.4892 94.5148 19.1414 94.6969 19.7031C94.8791 20.2648 95.1341 20.7178 95.4802 21.0983C95.808 21.4788 96.2088 21.7505 96.6641 21.9317C97.1195 22.1129 97.6295 22.2035 98.1941 22.2035C98.7224 22.2035 99.1777 22.1492 99.5602 22.0223C99.9427 21.8955 100.271 21.7687 100.544 21.6237C100.817 21.4788 101.054 21.3519 101.236 21.2251C101.418 21.0983 101.582 21.0439 101.71 21.0439C101.892 21.0439 102.019 21.1164 102.11 21.2432L102.675 22.0404ZM100.963 16.4418C100.963 15.9526 100.89 15.5177 100.762 15.101C100.617 14.7024 100.416 14.34 100.161 14.0501C99.8881 13.7602 99.5784 13.5246 99.1959 13.3616C98.8134 13.1985 98.3945 13.126 97.9027 13.126C96.9009 13.126 96.0995 13.4159 95.4984 13.9957C94.9155 14.5755 94.5512 15.3909 94.4055 16.4236H100.963V16.4418Z" fill="#323333"/>
<path d="M107.448 14.177C107.83 13.3616 108.285 12.7275 108.85 12.2564C109.397 11.8034 110.07 11.5679 110.872 11.5679C111.127 11.5679 111.364 11.6041 111.601 11.6585C111.837 11.7128 112.038 11.8034 112.22 11.9121L112.074 13.4703C112.019 13.6696 111.91 13.7602 111.71 13.7602C111.601 13.7602 111.437 13.7421 111.218 13.6878C110.999 13.6334 110.763 13.6153 110.489 13.6153C110.107 13.6153 109.779 13.6696 109.469 13.7784C109.178 13.8871 108.905 14.0501 108.668 14.2676C108.431 14.485 108.231 14.7568 108.049 15.0648C107.867 15.3909 107.703 15.7533 107.539 16.1519V23.6893H105.426V11.7853H106.628C106.865 11.7853 107.01 11.8215 107.102 11.9121C107.193 12.0027 107.247 12.1477 107.284 12.3651L107.448 14.177Z" fill="#323333"/>
<path d="M129.268 15.2822C129.268 16.5505 129.068 17.692 128.667 18.7248C128.266 19.7575 127.702 20.6453 126.955 21.3882C126.226 22.1311 125.334 22.6928 124.314 23.1095C123.276 23.5081 122.146 23.7074 120.889 23.7074H114.551V6.83887H120.889C122.128 6.83887 123.276 7.03817 124.314 7.43679C125.352 7.8354 126.226 8.4152 126.955 9.15807C127.683 9.90093 128.248 10.7888 128.667 11.8215C129.05 12.8724 129.268 14.0139 129.268 15.2822ZM126.9 15.2822C126.9 14.2494 126.755 13.3254 126.481 12.51C126.19 11.6947 125.789 11.0062 125.279 10.4445C124.751 9.88281 124.132 9.44797 123.385 9.13995C122.638 8.85005 121.818 8.68698 120.889 8.68698H116.846V21.8593H120.889C121.8 21.8593 122.638 21.7143 123.385 21.4063C124.132 21.1164 124.751 20.6816 125.279 20.1199C125.807 19.5582 126.208 18.8697 126.481 18.0544C126.755 17.239 126.9 16.315 126.9 15.2822Z" fill="#323333"/>
<path d="M137.118 11.604C137.993 11.604 138.776 11.749 139.486 12.0389C140.197 12.3288 140.798 12.7455 141.29 13.2709C141.781 13.7964 142.164 14.4486 142.437 15.2096C142.71 15.9706 142.838 16.8222 142.838 17.7463C142.838 18.6884 142.71 19.54 142.437 20.2829C142.164 21.0439 141.8 21.678 141.29 22.2216C140.798 22.747 140.197 23.1638 139.486 23.4537C138.776 23.7436 137.993 23.8885 137.118 23.8885C136.226 23.8885 135.443 23.7436 134.732 23.4537C134.022 23.1638 133.421 22.7651 132.929 22.2216C132.437 21.6961 132.055 21.0439 131.782 20.2829C131.508 19.5219 131.381 18.6884 131.381 17.7463C131.381 16.8041 131.508 15.9706 131.782 15.2096C132.055 14.4486 132.419 13.8145 132.929 13.2709C133.421 12.7455 134.022 12.3288 134.732 12.0389C135.443 11.749 136.244 11.604 137.118 11.604ZM137.118 22.2397C138.302 22.2397 139.195 21.8411 139.778 21.062C140.361 20.2648 140.652 19.1776 140.652 17.7644C140.652 16.3511 140.361 15.2278 139.778 14.4486C139.195 13.6514 138.302 13.2528 137.118 13.2528C136.517 13.2528 135.989 13.3615 135.552 13.5608C135.115 13.7601 134.732 14.0682 134.441 14.4486C134.149 14.8291 133.931 15.3002 133.785 15.8619C133.639 16.4236 133.567 17.0577 133.567 17.7644C133.567 19.1776 133.858 20.2829 134.441 21.062C135.024 21.8411 135.916 22.2397 137.118 22.2397Z" fill="#323333"/>
<path d="M147.72 11.7852V24.5951C147.72 25.0662 147.665 25.5192 147.537 25.9359C147.41 26.3527 147.21 26.715 146.936 27.0049C146.663 27.3129 146.299 27.5485 145.88 27.7297C145.443 27.9109 144.933 28.0015 144.332 28.0015C144.077 28.0015 143.84 27.9833 143.639 27.9471C143.421 27.9109 143.221 27.8565 143.002 27.7659L143.093 26.6426C143.111 26.5701 143.129 26.5157 143.166 26.4795C143.202 26.4432 143.257 26.4251 143.312 26.407C143.366 26.3889 143.457 26.3889 143.548 26.407C143.639 26.407 143.767 26.407 143.913 26.407C144.532 26.407 144.969 26.2621 145.224 25.9722C145.479 25.6823 145.607 25.2293 145.607 24.5951V11.7852H147.72ZM148.157 8.03462C148.157 8.23392 148.12 8.43323 148.029 8.61442C147.938 8.7956 147.829 8.94055 147.701 9.0855C147.556 9.23045 147.41 9.33917 147.228 9.41164C147.046 9.48412 146.845 9.52035 146.645 9.52035C146.444 9.52035 146.244 9.48412 146.062 9.41164C145.88 9.33917 145.734 9.23045 145.588 9.0855C145.461 8.94055 145.352 8.7956 145.261 8.61442C145.188 8.43323 145.133 8.25204 145.133 8.03462C145.133 7.83531 145.169 7.636 145.261 7.45482C145.333 7.27363 145.443 7.11056 145.588 6.96561C145.716 6.82066 145.88 6.71195 146.062 6.63947C146.244 6.567 146.426 6.53076 146.645 6.53076C146.863 6.53076 147.046 6.567 147.228 6.63947C147.41 6.71195 147.574 6.82066 147.701 6.96561C147.847 7.11056 147.956 7.25551 148.029 7.45482C148.12 7.636 148.157 7.83531 148.157 8.03462Z" fill="#323333"/>
<path d="M156.226 11.604C157.1 11.604 157.883 11.749 158.594 12.0389C159.304 12.3288 159.905 12.7455 160.397 13.2709C160.889 13.7964 161.271 14.4486 161.544 15.2096C161.818 15.9706 161.945 16.8222 161.945 17.7463C161.945 18.6884 161.818 19.54 161.544 20.2829C161.271 21.0439 160.907 21.678 160.397 22.2216C159.905 22.747 159.304 23.1638 158.594 23.4537C157.883 23.7436 157.1 23.8885 156.226 23.8885C155.333 23.8885 154.55 23.7436 153.84 23.4537C153.129 23.1638 152.528 22.7651 152.037 22.2216C151.545 21.6961 151.162 21.0439 150.889 20.2829C150.616 19.5219 150.488 18.6884 150.488 17.7463C150.488 16.8041 150.616 15.9706 150.889 15.2096C151.162 14.4486 151.527 13.8145 152.037 13.2709C152.528 12.7455 153.129 12.3288 153.84 12.0389C154.55 11.749 155.352 11.604 156.226 11.604ZM156.226 22.2397C157.41 22.2397 158.302 21.8411 158.885 21.062C159.468 20.2648 159.759 19.1776 159.759 17.7644C159.759 16.3511 159.468 15.2278 158.885 14.4486C158.302 13.6514 157.41 13.2528 156.226 13.2528C155.625 13.2528 155.097 13.3615 154.659 13.5608C154.222 13.7601 153.84 14.0682 153.548 14.4486C153.257 14.8291 153.038 15.3002 152.893 15.8619C152.747 16.4236 152.674 17.0577 152.674 17.7644C152.674 19.1776 152.965 20.2829 153.548 21.062C154.131 21.8411 155.024 22.2397 156.226 22.2397Z" fill="#323333"/>
<path d="M54.3707 27.929C55.0993 27.929 55.7368 28.0015 56.2833 28.1464C56.8297 28.2914 57.2669 28.5088 57.6311 28.7806C57.9772 29.0705 58.2504 29.3966 58.4144 29.8134C58.5783 30.212 58.6694 30.6831 58.6694 31.1904C58.6694 31.5346 58.6147 31.8608 58.4872 32.1688C58.3597 32.4768 58.1958 32.7667 57.9772 33.0385C57.7586 33.3103 57.4854 33.5277 57.1576 33.727C56.8297 33.9263 56.4654 34.0713 56.0465 34.18C57.0665 34.3249 57.8315 34.6511 58.3779 35.1765C58.9244 35.7019 59.1976 36.3905 59.1976 37.242C59.1976 37.7856 59.1065 38.2748 58.9062 38.7097C58.7058 39.1445 58.4326 39.5069 58.0683 39.8149C57.704 40.1229 57.2486 40.3403 56.7022 40.5034C56.1558 40.6665 55.5547 40.739 54.8625 40.739H50.6914V27.9109H54.3707V27.929ZM51.6021 28.6719V33.9263H54.389C54.99 33.9263 55.5 33.8538 55.919 33.7089C56.3379 33.5639 56.684 33.3646 56.9572 33.111C57.2304 32.8573 57.4308 32.5855 57.5583 32.2775C57.6858 31.9695 57.7404 31.6433 57.7404 31.2991C57.7404 30.4294 57.4672 29.7771 56.9208 29.3423C56.3743 28.9074 55.5183 28.6719 54.3707 28.6719H51.6021ZM54.8443 40.0142C55.9736 40.0142 56.8297 39.7787 57.4126 39.2895C57.9954 38.8002 58.2869 38.1117 58.2869 37.242C58.2869 36.8434 58.214 36.481 58.0501 36.1549C57.9044 35.8288 57.6676 35.557 57.3761 35.3214C57.0847 35.0859 56.7204 34.9228 56.3015 34.796C55.8825 34.6692 55.3908 34.6148 54.8443 34.6148H51.6021V40.0142H54.8443Z" fill="#323333"/>
<path d="M62.6038 33.9083C62.7495 33.5459 62.8953 33.2198 63.0774 32.9299C63.2596 32.64 63.4599 32.4045 63.6967 32.2051C63.9335 32.0058 64.1885 31.8609 64.4799 31.7522C64.7714 31.6435 65.081 31.5891 65.4453 31.5891C65.6274 31.5891 65.8096 31.6072 65.9917 31.6435C66.1739 31.6797 66.3378 31.7341 66.4653 31.8247L66.3925 32.4226C66.356 32.5132 66.3014 32.5675 66.2285 32.5675C66.1557 32.5675 66.0464 32.5494 65.9007 32.5132C65.7549 32.4769 65.5546 32.4407 65.3178 32.4407C64.9717 32.4407 64.6621 32.495 64.3889 32.6038C64.1156 32.7125 63.8788 32.8755 63.6603 33.0748C63.4417 33.2923 63.2596 33.5459 63.0956 33.854C62.9317 34.162 62.786 34.5243 62.6585 34.923V40.7572H61.7842V31.7341H62.2395C62.3488 31.7341 62.4217 31.7522 62.4581 31.7884C62.4945 31.8247 62.531 31.8971 62.531 32.0058L62.6038 33.9083Z" fill="#323333"/>
<path d="M67.5218 33.0205C67.9953 32.5494 68.4871 32.187 69.0154 31.9515C69.5436 31.7159 70.1264 31.5891 70.8004 31.5891C71.2922 31.5891 71.7111 31.6616 72.0754 31.8247C72.4397 31.9877 72.7493 32.2051 72.9861 32.495C73.2229 32.7849 73.4051 33.1292 73.5326 33.5459C73.6601 33.9445 73.7147 34.4156 73.7147 34.9048V40.7753H73.3686C73.1865 40.7753 73.0772 40.6847 73.0408 40.5216L72.9133 39.362C72.6583 39.5976 72.4215 39.815 72.1665 40.0143C71.9297 40.2136 71.6565 40.3767 71.4015 40.5035C71.1282 40.6304 70.8368 40.7391 70.5272 40.8115C70.2175 40.884 69.8714 40.9203 69.5072 40.9203C69.1975 40.9203 68.8879 40.884 68.5964 40.7753C68.305 40.6666 68.05 40.5398 67.8132 40.3586C67.5764 40.1774 67.4125 39.9237 67.2668 39.6338C67.121 39.3439 67.0664 38.9816 67.0664 38.5829C67.0664 38.2024 67.1757 37.8582 67.3943 37.5139C67.6128 37.1878 67.9589 36.8979 68.4325 36.6624C68.9061 36.4268 69.5072 36.2275 70.2357 36.0826C70.9643 35.9376 71.8386 35.847 72.8768 35.8289V34.8867C72.8768 34.0533 72.6947 33.4191 72.3304 32.9661C71.9661 32.5132 71.4379 32.2957 70.7275 32.2957C70.2904 32.2957 69.9261 32.3501 69.6164 32.4769C69.3068 32.6038 69.0518 32.7306 68.8332 32.8755C68.6146 33.0205 68.4507 33.1473 68.305 33.2742C68.1775 33.401 68.05 33.4553 67.9589 33.4553C67.8861 33.4553 67.8314 33.4372 67.795 33.4191C67.7586 33.3829 67.7221 33.3466 67.6857 33.2923L67.5218 33.0205ZM72.8404 36.3906C71.9843 36.4268 71.2375 36.4812 70.6182 36.5899C69.9989 36.6986 69.4889 36.8435 69.07 37.0247C68.6693 37.2059 68.3596 37.4233 68.1775 37.677C67.9771 37.9307 67.8861 38.2206 67.8861 38.5286C67.8861 38.8366 67.9407 39.0903 68.0318 39.3077C68.1411 39.5251 68.2686 39.7063 68.4325 39.8513C68.5964 39.9962 68.7968 40.1049 69.0154 40.1593C69.2339 40.2317 69.4707 40.2499 69.7075 40.2499C70.0536 40.2499 70.3814 40.2136 70.6729 40.1412C70.9643 40.0687 71.2375 39.96 71.4925 39.815C71.7475 39.6701 71.9843 39.5251 72.2029 39.3258C72.4215 39.1446 72.64 38.9453 72.8404 38.7279V36.3906Z" fill="#323333"/>
<path d="M83.8779 32.1325V32.4224C83.8779 32.5492 83.7869 32.6398 83.6229 32.676L82.2386 32.7666C82.4025 33.0022 82.5301 33.2558 82.6211 33.5276C82.7122 33.8175 82.7668 34.1255 82.7668 34.4517C82.7668 34.8865 82.694 35.2851 82.5301 35.6294C82.3661 35.9737 82.1658 36.2817 81.8743 36.5353C81.6011 36.789 81.255 36.9883 80.8543 37.1151C80.4536 37.2601 80.0164 37.3326 79.5429 37.3326C79.0329 37.3326 78.5593 37.2601 78.1221 37.097C77.8671 37.242 77.6668 37.405 77.5211 37.6043C77.3753 37.8036 77.3025 38.003 77.3025 38.1841C77.3025 38.4378 77.3936 38.6371 77.5757 38.7821C77.7578 38.927 78.0128 39.0176 78.3043 39.0901C78.6139 39.1625 78.9418 39.1988 79.3425 39.2169C79.725 39.235 80.1257 39.2531 80.5265 39.2713C80.9272 39.2894 81.3279 39.3256 81.7104 39.38C82.0929 39.4343 82.439 39.5249 82.7304 39.6699C83.0401 39.8148 83.2768 39.996 83.459 40.2497C83.6411 40.4852 83.7322 40.8114 83.7322 41.2281C83.7322 41.6086 83.6411 41.9528 83.4408 42.3152C83.2586 42.6595 82.9854 42.9675 82.6211 43.2211C82.275 43.4929 81.8379 43.6922 81.3279 43.8553C80.8179 44.0184 80.2532 44.0908 79.6339 44.0908C78.9964 44.0908 78.4318 44.0184 77.9582 43.8915C77.4846 43.7647 77.0839 43.5835 76.756 43.3661C76.4282 43.1487 76.1914 42.895 76.0275 42.6051C75.8635 42.3152 75.7725 42.0072 75.7725 41.6811C75.7725 41.21 75.9364 40.7932 76.246 40.449C76.5557 40.1047 76.9928 39.8329 77.5393 39.6518C77.2296 39.543 76.9928 39.3981 76.8107 39.1988C76.6285 38.9995 76.5375 38.7277 76.5375 38.4016C76.5375 38.2747 76.5557 38.1479 76.6103 38.003C76.665 37.858 76.7378 37.7312 76.8289 37.5862C76.92 37.4413 77.0475 37.3144 77.175 37.2057C77.3207 37.0789 77.4664 36.9702 77.6486 36.8796C77.2114 36.6259 76.8835 36.2998 76.6468 35.8831C76.41 35.4663 76.2825 34.9952 76.2825 34.4336C76.2825 33.9987 76.3553 33.6001 76.5193 33.2558C76.6832 32.8935 76.9018 32.6036 77.175 32.3499C77.4664 32.0962 77.7943 31.8969 78.195 31.7701C78.5957 31.6252 79.0329 31.5708 79.5247 31.5708C79.9254 31.5708 80.2897 31.6252 80.6357 31.7158C80.9818 31.8063 81.2733 31.9513 81.5465 32.1144H83.8779V32.1325ZM82.9308 41.3549C82.9308 41.065 82.8579 40.8476 82.7122 40.6664C82.5665 40.4852 82.3661 40.3584 82.1111 40.2678C81.8561 40.1772 81.5829 40.1047 81.255 40.0685C80.9272 40.0322 80.5811 39.996 80.235 39.9779C79.8707 39.9598 79.5247 39.9417 79.1604 39.9235C78.7961 39.9054 78.4682 39.8692 78.1403 39.8148C77.9036 39.9054 77.7032 40.0141 77.5028 40.1228C77.3025 40.2316 77.1386 40.3765 76.9928 40.5215C76.8471 40.6664 76.7378 40.8295 76.665 41.0107C76.5921 41.1918 76.5557 41.373 76.5557 41.5905C76.5557 41.8622 76.6285 42.0978 76.756 42.3333C76.8835 42.5689 77.1021 42.7501 77.3571 42.9131C77.6303 43.0762 77.94 43.203 78.3225 43.3117C78.705 43.4023 79.1422 43.4567 79.6339 43.4567C80.0893 43.4567 80.5265 43.4023 80.9272 43.3117C81.3279 43.203 81.674 43.0581 81.9654 42.8769C82.2568 42.6957 82.4936 42.4602 82.6576 42.2065C82.8579 41.9528 82.9308 41.6629 82.9308 41.3549ZM79.5429 36.7709C79.9254 36.7709 80.2714 36.7165 80.5811 36.6078C80.8907 36.4991 81.1457 36.336 81.3461 36.1367C81.5465 35.9374 81.7104 35.7019 81.8197 35.412C81.929 35.1402 81.9836 34.8322 81.9836 34.4879C81.9836 34.1437 81.929 33.8356 81.8197 33.5639C81.7104 33.2921 81.5465 33.0384 81.3461 32.8391C81.1457 32.6398 80.8907 32.4949 80.5811 32.3861C80.2714 32.2774 79.9436 32.2231 79.5611 32.2231C79.1786 32.2231 78.8325 32.2774 78.5411 32.3861C78.2314 32.4949 77.9764 32.6579 77.7761 32.8391C77.5757 33.0384 77.4118 33.274 77.3025 33.5639C77.1932 33.8538 77.1386 34.1618 77.1386 34.4879C77.1386 34.8322 77.1932 35.1402 77.3025 35.412C77.4118 35.6838 77.5757 35.9374 77.7761 36.1367C77.9764 36.336 78.2314 36.4991 78.5411 36.6078C78.8143 36.6984 79.1604 36.7709 79.5429 36.7709Z" fill="#323333"/>
<path d="M85.6266 33.0205C86.1002 32.5494 86.592 32.187 87.1202 31.9515C87.6484 31.7159 88.2313 31.5891 88.9052 31.5891C89.397 31.5891 89.8159 31.6616 90.1802 31.8247C90.5445 31.9877 90.8542 32.2051 91.091 32.495C91.3277 32.7849 91.5099 33.1292 91.6374 33.5459C91.7649 33.9445 91.8195 34.4156 91.8195 34.9048V40.7753H91.4735C91.2913 40.7753 91.182 40.6847 91.1456 40.5216L91.0181 39.362C90.7631 39.5976 90.5263 39.815 90.2713 40.0143C90.0345 40.2136 89.7613 40.3767 89.5063 40.5035C89.2331 40.6304 88.9599 40.7391 88.632 40.8115C88.3224 40.884 87.9763 40.9203 87.612 40.9203C87.3023 40.9203 87.0109 40.884 86.7195 40.7753C86.428 40.6847 86.173 40.5398 85.9362 40.3586C85.6995 40.1774 85.5355 39.9237 85.3898 39.6338C85.2441 39.3439 85.1895 38.9816 85.1895 38.5829C85.1895 38.2024 85.2987 37.8582 85.5173 37.5139C85.7359 37.1878 86.082 36.8979 86.5555 36.6624C87.0291 36.4268 87.6302 36.2275 88.3588 36.0826C89.0874 35.9376 89.9617 35.847 90.9999 35.8289V34.8867C90.9999 34.0533 90.8177 33.4191 90.4535 32.9661C90.0892 32.5132 89.5609 32.2957 88.8506 32.2957C88.4134 32.2957 88.0491 32.3501 87.7395 32.4769C87.4298 32.6038 87.1748 32.7306 86.9563 32.8755C86.7377 33.0205 86.5738 33.1473 86.4463 33.2742C86.3188 33.401 86.2095 33.4553 86.1184 33.4553C86.0455 33.4553 85.9909 33.4372 85.9545 33.4191C85.918 33.3829 85.8816 33.3466 85.8452 33.2923L85.6266 33.0205ZM90.9635 36.3906C90.1074 36.4268 89.3606 36.4812 88.7413 36.5899C88.122 36.6986 87.612 36.8435 87.1931 37.0247C86.7741 37.2059 86.4827 37.4233 86.3005 37.677C86.1002 37.9307 86.0091 38.2206 86.0091 38.5286C86.0091 38.8366 86.0637 39.0903 86.1548 39.3077C86.2459 39.5251 86.3916 39.7063 86.5555 39.8513C86.7195 39.9962 86.9198 40.1049 87.1384 40.1593C87.357 40.2317 87.5938 40.2499 87.8306 40.2499C88.1766 40.2499 88.5045 40.2136 88.7959 40.1412C89.0874 40.0687 89.3606 39.96 89.6156 39.815C89.8706 39.6701 90.1074 39.5251 90.3259 39.3258C90.5445 39.1446 90.7631 38.9453 90.9635 38.7279V36.3906Z" fill="#323333"/>
</g>
<defs>
<clipPath id="clip0_2718_572">
<rect width="162" height="47" fill="white" transform="translate(0 0.225342)"/>
</clipPath>
</defs>
</svg>
