<svg id="Layer_1" data-name="Layer 1" xmlns="http://www.w3.org/2000/svg" xmlns:xlink="http://www.w3.org/1999/xlink" viewBox="0 0 728.4 186.98"><defs><style>.cls-1{fill:none;}.cls-2,.cls-3{fill:#232020;}.cls-3,.cls-6,.cls-7,.cls-8{fill-rule:evenodd;}.cls-4{clip-path:url(#clip-path);}.cls-5{fill:url(#linear-gradient);}.cls-6{fill:#08aebb;}.cls-7{fill:#70cde6;}.cls-8{fill:#056899;}.cls-9{clip-path:url(#clip-path-2);}.cls-10{fill:url(#linear-gradient-2);}.cls-11{clip-path:url(#clip-path-3);}.cls-12{fill:url(#linear-gradient-3);}.cls-13{clip-path:url(#clip-path-4);}.cls-14{fill:url(#linear-gradient-4);}.cls-15{clip-path:url(#clip-path-5);}.cls-16{fill:url(#linear-gradient-5);}.cls-17{fill:#f8ec0a;}.cls-18{clip-path:url(#clip-path-6);}.cls-19{fill:url(#linear-gradient-6);}</style><clipPath id="clip-path" transform="translate(-114.19 -124.13)"><rect class="cls-1" x="114.19" y="145.98" width="13.48" height="69.49"/></clipPath><linearGradient id="linear-gradient" x1="-610.58" y1="2964.82" x2="-609.69" y2="2964.82" gradientTransform="matrix(0, -78.71, -78.71, 0, 233361.81, -47966)" gradientUnits="userSpaceOnUse"><stop offset="0" stop-color="#a0c33b"/><stop offset="0.8" stop-color="#87a63d"/><stop offset="1" stop-color="#809e3d"/></linearGradient><clipPath id="clip-path-2" transform="translate(-114.19 -124.13)"><path class="cls-1" d="M271.6,149.19v36.86a68.62,68.62,0,0,1-.91,9.58,44.26,44.26,0,0,1-74.87,22.53,7.08,7.08,0,0,0-1.5-1.14v17.55a57.79,57.79,0,0,0,31.2,10.29h3.54a57.89,57.89,0,0,0,55.12-47.24c.28-1.52.64-5.17.81-8.22V149.19Z"/></clipPath><linearGradient id="linear-gradient-2" x1="-619.42" y1="2964.14" x2="-618.54" y2="2964.14" gradientTransform="matrix(0, -108.39, -108.39, 0, 321401.58, -67016.59)" gradientUnits="userSpaceOnUse"><stop offset="0" stop-color="#ea1e52"/><stop offset="1" stop-color="#bb2243"/></linearGradient><clipPath id="clip-path-3" transform="translate(-114.19 -124.13)"><path class="cls-1" d="M271.32,143.54h13.42v-16c-7,0-13.38,6.44-13.42,16"/></clipPath><linearGradient id="linear-gradient-3" x1="-504.8" y1="2975.72" x2="-503.92" y2="2975.72" gradientTransform="matrix(0, -18.4, -18.4, 0, 54908.49, -9267.48)" xlink:href="#linear-gradient-2"/><clipPath id="clip-path-4" transform="translate(-114.19 -124.13)"><path class="cls-1" d="M217.35,203.34a20.61,20.61,0,0,1-6.67-4.44,20.89,20.89,0,0,1-6.05-14.78,20.22,20.22,0,0,1,1.61-8,20.56,20.56,0,0,1,11.11-11,20.77,20.77,0,0,1,8.11-1.61h20.68v20.68a20.71,20.71,0,0,1-12.63,19.22,20.13,20.13,0,0,1-8,1.61,20.6,20.6,0,0,1-8.11-1.61m28.79-59.62h0v6.08H225.46a33.72,33.72,0,0,0-13.32,2.68,35.36,35.36,0,0,0-11,7.36,34.18,34.18,0,0,0-7.43,10.87,34.67,34.67,0,0,0,0,26.73,34.77,34.77,0,0,0,18.46,18.45,34.13,34.13,0,0,0,37.6-7.43,35.11,35.11,0,0,0,7.35-11,33.56,33.56,0,0,0,2.68-13.33v-56.6c-7.18,0-13.67,6.49-13.63,16.2"/></clipPath><linearGradient id="linear-gradient-4" x1="-618.33" y1="2964.23" x2="-617.45" y2="2964.23" gradientTransform="matrix(0, -103.46, -103.46, 0, 306783.62, -63876.14)" xlink:href="#linear-gradient-2"/><clipPath id="clip-path-5" transform="translate(-114.19 -124.13)"><path class="cls-1" d="M149.57,181.24a20.22,20.22,0,0,1,1.61-8,21,21,0,0,1,4.44-6.59,20.81,20.81,0,0,1,6.59-4.44,20.22,20.22,0,0,1,8-1.61,20.79,20.79,0,0,1,8.12,1.61,20.58,20.58,0,0,1,11.1,11,20.22,20.22,0,0,1,1.61,8,20.77,20.77,0,0,1-1.61,8.11,20.38,20.38,0,0,1-11.1,11.11,20.79,20.79,0,0,1-8.12,1.61H149.57Zm7.36-31.63a34.35,34.35,0,0,0-18.31,18.22,33.59,33.59,0,0,0-2.68,13.41v41.27h0v16.21c7.15,0,13.63-6.45,13.63-16.11h0V215.7h20.68a33.34,33.34,0,0,0,13.4-2.68A35,35,0,0,0,202,194.56a33,33,0,0,0,2.57-10.44v-5.81A32.7,32.7,0,0,0,202,167.83,34,34,0,0,0,194.6,157a35.61,35.61,0,0,0-10.95-7.35,34.64,34.64,0,0,0-26.72,0"/></clipPath><linearGradient id="linear-gradient-5" x1="-618.5" y1="2964.14" x2="-617.62" y2="2964.14" gradientTransform="matrix(0, -104.29, -104.29, 0, 309192.29, -64389.92)" xlink:href="#linear-gradient"/><clipPath id="clip-path-6" transform="translate(-114.19 -124.13)"><path class="cls-1" d="M114.19,140.34h13.48c0-9.71-6.38-16.19-13.48-16.21Z"/></clipPath><linearGradient id="linear-gradient-6" x1="-504.53" y1="2974.67" x2="-503.65" y2="2974.67" gradientTransform="matrix(0, -18.36, -18.36, 0, 54615.62, -9245.94)" xlink:href="#linear-gradient"/></defs><path class="cls-2" d="M302.28,183.5a1.27,1.27,0,0,1,1.43-1.45,1.36,1.36,0,0,1,1,.36,1.42,1.42,0,0,1,.38,1.09V203a1.44,1.44,0,0,1-.42,1.19,1.48,1.48,0,0,1-.91.33,1.28,1.28,0,0,1-1.43-1.47Z" transform="translate(-114.19 -124.13)"/><path class="cls-2" d="M312.18,183.44a1.68,1.68,0,0,1,.31-1.07,1.06,1.06,0,0,1,.86-.38,1.84,1.84,0,0,1,1.59.93l11.9,16.67h0V183.5a1.4,1.4,0,0,1,.41-1.06,1.31,1.31,0,0,1,1-.39,1.45,1.45,0,0,1,1,.38,1.39,1.39,0,0,1,.41,1.07v19.71a1.51,1.51,0,0,1-.34,1,1.2,1.2,0,0,1-.89.36,2,2,0,0,1-1.56-.87L315,187.08l-.06-.07v16.21a1.23,1.23,0,0,1-.41,1,1.48,1.48,0,0,1-1,.35,1.4,1.4,0,0,1-1-.36,1.33,1.33,0,0,1-.4-1Z" transform="translate(-114.19 -124.13)"/><path class="cls-2" d="M347.11,183.2a1.72,1.72,0,0,1,.92,1.45,1.07,1.07,0,0,1-.37.83,1.51,1.51,0,0,1-.93.39,8.14,8.14,0,0,1-1.57-.6c-.64-.3-1.14-.52-1.51-.66a3.57,3.57,0,0,0-1.29-.2,3.53,3.53,0,0,0-2.49.88,3.78,3.78,0,0,0-1.17,2.35c.07,1.26,1,2.25,2.68,3,.34.13.95.36,1.85.66s1.66.58,2.3.84a9.77,9.77,0,0,1,1.82,1,4.69,4.69,0,0,1,1.39,1.38,6.14,6.14,0,0,1,.85,3.14,6.84,6.84,0,0,1-.87,3.33,6.68,6.68,0,0,1-2.62,2.6,8.15,8.15,0,0,1-4.15,1,12.14,12.14,0,0,1-3.34-.45,7.16,7.16,0,0,1-2.39-1.07,1.52,1.52,0,0,1-.66-1.21,1.41,1.41,0,0,1,.33-1,1.17,1.17,0,0,1,.91-.39,2,2,0,0,1,.79.25,8.41,8.41,0,0,0,4.71,1.46,4,4,0,0,0,2.12-.6A4.4,4.4,0,0,0,346,200a4.29,4.29,0,0,0,.57-2.12,3,3,0,0,0-.67-2,5.18,5.18,0,0,0-1.67-1.3,22.14,22.14,0,0,0-2.6-1c-1.06-.35-1.71-.58-2-.68a11.7,11.7,0,0,1-2-1.2,4.63,4.63,0,0,1-1.3-1.54,5.18,5.18,0,0,1-.51-2.3,5,5,0,0,1,1-3,6.62,6.62,0,0,1,2.56-2.08,7.57,7.57,0,0,1,3.23-.73,8.25,8.25,0,0,1,4.56,1.15" transform="translate(-114.19 -124.13)"/><path class="cls-2" d="M358.75,184.79H354.4a1.23,1.23,0,0,1-.92-.37,1.23,1.23,0,0,1,0-1.81,1.29,1.29,0,0,1,1-.37h11.35a1.34,1.34,0,0,1,1,.37,1.25,1.25,0,0,1,.35.9,1.29,1.29,0,0,1-.33.91,1.2,1.2,0,0,1-.92.37h-4.39v18.37a1.32,1.32,0,0,1-.43,1,1.49,1.49,0,0,1-1,.38,1.37,1.37,0,0,1-1-.38,1.34,1.34,0,0,1-.41-1Z" transform="translate(-114.19 -124.13)"/><path class="cls-2" d="M372,183.5a1.27,1.27,0,0,1,1.42-1.45,1.34,1.34,0,0,1,.95.36,1.42,1.42,0,0,1,.39,1.09V203a1.44,1.44,0,0,1-.42,1.19,1.48,1.48,0,0,1-.92.33,1.28,1.28,0,0,1-1.42-1.47Z" transform="translate(-114.19 -124.13)"/><path class="cls-2" d="M385.64,184.79h-4.35a1.21,1.21,0,0,1-.92-.37,1.54,1.54,0,0,1-.39-.91,1.5,1.5,0,0,1,.41-.9,1.25,1.25,0,0,1,1-.37H392.7a1.34,1.34,0,0,1,1,.37,1.25,1.25,0,0,1,.35.9,1.29,1.29,0,0,1-.33.91,1.17,1.17,0,0,1-.91.37h-4.4v18.37a1.29,1.29,0,0,1-.43,1,1.49,1.49,0,0,1-1,.38,1.37,1.37,0,0,1-1-.38,1.34,1.34,0,0,1-.41-1Z" transform="translate(-114.19 -124.13)"/><path class="cls-2" d="M398.86,183.45a1.32,1.32,0,0,1,.4-1,1.33,1.33,0,0,1,1-.38,1.39,1.39,0,0,1,1,.37,1.33,1.33,0,0,1,.41,1v13.28a5.49,5.49,0,0,0,.79,3,4.93,4.93,0,0,0,2.21,1.86,7.68,7.68,0,0,0,3.18.63,7.1,7.1,0,0,0,3.08-.75,4.89,4.89,0,0,0,2-1.92,5.49,5.49,0,0,0,.7-2.8V183.45a1.35,1.35,0,0,1,.39-1,1.21,1.21,0,0,1,.92-.38,1.43,1.43,0,0,1,1,.37,1.3,1.3,0,0,1,.41,1v12.39a10.57,10.57,0,0,1-.94,4.63,6.63,6.63,0,0,1-2.86,3,9.88,9.88,0,0,1-4.82,1.07,11.44,11.44,0,0,1-3.92-.62,7,7,0,0,1-4.4-4.5,10.92,10.92,0,0,1-.54-3.54Z" transform="translate(-114.19 -124.13)"/><path class="cls-2" d="M427.27,184.79h-4.36a1.23,1.23,0,0,1-.92-.37,1.53,1.53,0,0,1-.38-.91,1.43,1.43,0,0,1,.4-.9,1.27,1.27,0,0,1,1-.37h11.34a1.32,1.32,0,0,1,1,.37,1.21,1.21,0,0,1,.35.9,1.33,1.33,0,0,1-.32.91,1.2,1.2,0,0,1-.92.37h-4.4v18.37a1.29,1.29,0,0,1-.43,1,1.47,1.47,0,0,1-1,.38,1.36,1.36,0,0,1-.95-.38,1.34,1.34,0,0,1-.41-1Z" transform="translate(-114.19 -124.13)"/><path class="cls-2" d="M442.58,193.29a13.65,13.65,0,0,0,.63,4.07,7.63,7.63,0,0,0,2.18,3.43,6,6,0,0,0,4.15,1.41,6.56,6.56,0,0,0,2.7-.56,6,6,0,0,0,2.2-1.68,7.9,7.9,0,0,0,1.5-2.79,12.84,12.84,0,0,0,.57-3.88,12.7,12.7,0,0,0-.54-3.87,7.71,7.71,0,0,0-1.48-2.79,6,6,0,0,0-2.21-1.66,6.62,6.62,0,0,0-2.74-.56,6.31,6.31,0,0,0-3.53,1,6.88,6.88,0,0,0-2.51,3,11.59,11.59,0,0,0-.92,4.81m-3,.06a13.42,13.42,0,0,1,1.17-5.58,9.92,9.92,0,0,1,3.46-4.16,9.16,9.16,0,0,1,5.32-1.56,9.45,9.45,0,0,1,4.19.9,8.72,8.72,0,0,1,3.11,2.46,11.52,11.52,0,0,1,1.92,3.6,14.88,14.88,0,0,1,.71,4.34,13.22,13.22,0,0,1-1.19,5.59,9.9,9.9,0,0,1-3.46,4.1,9.23,9.23,0,0,1-5.28,1.52,9.38,9.38,0,0,1-5.05-1.41,9.75,9.75,0,0,1-3.59-4,12.54,12.54,0,0,1-1.31-5.83" transform="translate(-114.19 -124.13)"/><path class="cls-2" d="M476.1,184.6v9.15h4a4.74,4.74,0,0,0,3.47-1.32,4.45,4.45,0,0,0,1.34-3.33,4.23,4.23,0,0,0-1.33-3.31,4.87,4.87,0,0,0-3.35-1.19Zm-2.76-.91a1.33,1.33,0,0,1,.43-1.12,1.55,1.55,0,0,1,.93-.33h5.63a8.6,8.6,0,0,1,2.8.45,7,7,0,0,1,2.32,1.32,6.19,6.19,0,0,1,1.61,2.17,7.54,7.54,0,0,1,.62,3,6.93,6.93,0,0,1-.53,2.68,7.13,7.13,0,0,1-1.48,2.22,6.89,6.89,0,0,1-2.24,1.5,6.82,6.82,0,0,1-2.72.55H476.1v7.11a1.24,1.24,0,0,1-.42,1,1.43,1.43,0,0,1-1,.36,1.37,1.37,0,0,1-1-.38,1.33,1.33,0,0,1-.4-1Z" transform="translate(-114.19 -124.13)"/><path class="cls-2" d="M495.42,193.29a13.65,13.65,0,0,0,.63,4.07,7.55,7.55,0,0,0,2.18,3.43,6,6,0,0,0,4.15,1.41,6.59,6.59,0,0,0,2.7-.56,6.2,6.2,0,0,0,2.2-1.68,7.9,7.9,0,0,0,1.5-2.79,13.16,13.16,0,0,0,.57-3.88,12.7,12.7,0,0,0-.54-3.87,7.71,7.71,0,0,0-1.48-2.79,6,6,0,0,0-2.21-1.66,6.62,6.62,0,0,0-2.74-.56,6.29,6.29,0,0,0-3.53,1,6.82,6.82,0,0,0-2.51,3,11.44,11.44,0,0,0-.92,4.81m-3,.06a13.42,13.42,0,0,1,1.17-5.58,10,10,0,0,1,3.45-4.16,9.22,9.22,0,0,1,5.33-1.56,9.45,9.45,0,0,1,4.19.9,8.81,8.81,0,0,1,3.11,2.46,11.5,11.5,0,0,1,1.91,3.6,15.23,15.23,0,0,1,.72,4.34,13.08,13.08,0,0,1-1.2,5.59,9.8,9.8,0,0,1-3.45,4.1,9.23,9.23,0,0,1-5.28,1.52,9.44,9.44,0,0,1-5.06-1.41,9.66,9.66,0,0,1-3.58-4,12.54,12.54,0,0,1-1.31-5.83" transform="translate(-114.19 -124.13)"/><path class="cls-2" d="M518.52,183.69a1.33,1.33,0,0,1,.44-1.12,1.55,1.55,0,0,1,.93-.33h5.43a7.4,7.4,0,0,1,3.16.73,6.48,6.48,0,0,1,2.59,2.24,6.24,6.24,0,0,1,1,3.64,7.43,7.43,0,0,1-.68,2.71,4.69,4.69,0,0,1-1.48,1.77,6.11,6.11,0,0,1-2.22.94,14,14,0,0,1-3,.29l7.24,7.76a1.57,1.57,0,0,1,.58,1.2.82.82,0,0,1-.38.69,1.54,1.54,0,0,1-.92.27,1.64,1.64,0,0,1-1.3-.55l-8.66-9.28v8.57a1.23,1.23,0,0,1-.4,1,1.5,1.5,0,0,1-1,.35,1.4,1.4,0,0,1-1-.36,1.34,1.34,0,0,1-.41-1Zm2.76.91v7.88h4a5,5,0,0,0,2.5-.53,2.76,2.76,0,0,0,1.21-1.39,6.81,6.81,0,0,0,.36-2.08,3.68,3.68,0,0,0-2.08-3.41,4.66,4.66,0,0,0-2.11-.47Z" transform="translate(-114.19 -124.13)"/><path class="cls-2" d="M542.29,184.79h-4.36a1.23,1.23,0,0,1-.92-.37,1.47,1.47,0,0,1-.38-.91,1.43,1.43,0,0,1,.4-.9,1.27,1.27,0,0,1,1-.37h11.34a1.32,1.32,0,0,1,1,.37,1.21,1.21,0,0,1,.35.9,1.33,1.33,0,0,1-.32.91,1.2,1.2,0,0,1-.92.37h-4.4v18.37a1.29,1.29,0,0,1-.43,1,1.47,1.47,0,0,1-1,.38,1.35,1.35,0,0,1-1.36-1.4Z" transform="translate(-114.19 -124.13)"/><path class="cls-2" d="M555.5,183.45a1.35,1.35,0,0,1,.4-1,1.33,1.33,0,0,1,1-.38,1.4,1.4,0,0,1,1,.37,1.33,1.33,0,0,1,.41,1v13.28a5.41,5.41,0,0,0,.79,3,5,5,0,0,0,2.2,1.86,7.71,7.71,0,0,0,3.18.63,7.11,7.11,0,0,0,3.09-.75,4.87,4.87,0,0,0,2-1.92,5.4,5.4,0,0,0,.71-2.8V183.45a1.34,1.34,0,0,1,.38-1,1.22,1.22,0,0,1,.92-.38,1.43,1.43,0,0,1,1,.37,1.31,1.31,0,0,1,.42,1v12.39a10.71,10.71,0,0,1-.94,4.63,6.71,6.71,0,0,1-2.87,3,9.86,9.86,0,0,1-4.81,1.07,11.46,11.46,0,0,1-3.93-.62,7.28,7.28,0,0,1-2.77-1.76,7.35,7.35,0,0,1-1.63-2.74,10.92,10.92,0,0,1-.54-3.54Z" transform="translate(-114.19 -124.13)"/><path class="cls-2" d="M597,184.78a1.18,1.18,0,0,1,.32.9,1.1,1.1,0,0,1-.39.84,1.5,1.5,0,0,1-1,.37,2,2,0,0,1-1.08-.4,14.3,14.3,0,0,0-2.46-1.53,7,7,0,0,0-3-.55,6.58,6.58,0,0,0-3.34.8,6.51,6.51,0,0,0-2.24,2.12,9.65,9.65,0,0,0-1.24,2.81,12.76,12.76,0,0,0-.4,3,14.17,14.17,0,0,0,.59,3.91,8.15,8.15,0,0,0,2.12,3.54A6,6,0,0,0,589,202.2a8,8,0,0,0,3.46-.76,6,6,0,0,0,2.59-2.33,7.24,7.24,0,0,0,1-3.9v-1h-4a1.19,1.19,0,0,1-1.3-1.21c.08-.89.47-1.34,1.18-1.34H597c1.23,0,1.85.68,1.85,2.05v.5a16.32,16.32,0,0,1-.64,4.51,8.08,8.08,0,0,1-2.76,4q-2.13,1.77-6.21,1.77a9.41,9.41,0,0,1-4.53-1,9.1,9.1,0,0,1-3.11-2.71,12,12,0,0,1-1.74-3.56,13.39,13.39,0,0,1-.57-3.62,15.27,15.27,0,0,1,.63-4.44,10.45,10.45,0,0,1,1.9-3.66,8.9,8.9,0,0,1,3.15-2.5,10.65,10.65,0,0,1,4.34-1,13.79,13.79,0,0,1,4.58.73,7.11,7.11,0,0,1,3.18,2" transform="translate(-114.19 -124.13)"/><path class="cls-2" d="M604.83,183.45a1.35,1.35,0,0,1,.39-1,1.33,1.33,0,0,1,1-.38,1.4,1.4,0,0,1,1,.37,1.33,1.33,0,0,1,.41,1v13.28a5.41,5.41,0,0,0,.79,3,5,5,0,0,0,2.2,1.86,7.71,7.71,0,0,0,3.18.63,7.11,7.11,0,0,0,3.09-.75,5,5,0,0,0,2-1.92,5.49,5.49,0,0,0,.7-2.8V183.45a1.38,1.38,0,0,1,.38-1,1.23,1.23,0,0,1,.93-.38,1.43,1.43,0,0,1,1,.37,1.33,1.33,0,0,1,.41,1v12.39a10.57,10.57,0,0,1-.94,4.63,6.6,6.6,0,0,1-2.87,3,9.81,9.81,0,0,1-4.81,1.07,11.4,11.4,0,0,1-3.92-.62,7.24,7.24,0,0,1-2.78-1.76,7.35,7.35,0,0,1-1.63-2.74,10.92,10.92,0,0,1-.53-3.54Z" transform="translate(-114.19 -124.13)"/><path class="cls-2" d="M634.73,176.55l4.14,1.75a1,1,0,0,1,.61.47,1.4,1.4,0,0,1,.21.73,1,1,0,0,1-.3.76,1.34,1.34,0,0,1-.87.36l-.77-.19-3-1.2-3,1.14a5.8,5.8,0,0,1-.92.25,1,1,0,0,1-.79-.33,1.18,1.18,0,0,1-.29-.79,1.13,1.13,0,0,1,.76-1.2Zm-5.28,7.21a1.61,1.61,0,0,1,.36-1.11,1,1,0,0,1,.82-.41h8.55a1.08,1.08,0,0,1,.87.37,1.36,1.36,0,0,1,.32.9,1.29,1.29,0,0,1-.33.91,1.18,1.18,0,0,1-.92.37h-6.9v7.28h6.3a1.17,1.17,0,0,1,.91.37,1.31,1.31,0,0,1,.33.91,1.23,1.23,0,0,1-1.31,1.27h-6.23v7.2h7a1,1,0,0,1,.87.38,1.4,1.4,0,0,1,.32,1,1.16,1.16,0,0,1-.36.86,1.35,1.35,0,0,1-1,.36h-8.17q-.87,0-1.11-.51a2.1,2.1,0,0,1-.26-1Z" transform="translate(-114.19 -124.13)"/><path class="cls-2" d="M657.3,183.2a1.73,1.73,0,0,1,.93,1.45,1.08,1.08,0,0,1-.38.83,1.51,1.51,0,0,1-.93.39,8.14,8.14,0,0,1-1.57-.6c-.65-.3-1.14-.52-1.51-.66a3.57,3.57,0,0,0-1.29-.2,3.53,3.53,0,0,0-2.49.88,3.72,3.72,0,0,0-1.16,2.35c.06,1.26,1,2.25,2.67,3,.34.13.95.36,1.85.66s1.66.58,2.3.84a9.77,9.77,0,0,1,1.82,1,4.69,4.69,0,0,1,1.39,1.38,6.14,6.14,0,0,1,.85,3.14,6.84,6.84,0,0,1-.87,3.33,6.68,6.68,0,0,1-2.62,2.6,8.12,8.12,0,0,1-4.15,1,12.14,12.14,0,0,1-3.34-.45,7.16,7.16,0,0,1-2.39-1.07,1.56,1.56,0,0,1-.67-1.21,1.38,1.38,0,0,1,.35-1,1.12,1.12,0,0,1,.9-.39,2,2,0,0,1,.79.25,8.41,8.41,0,0,0,4.71,1.46,4,4,0,0,0,2.12-.6,4.4,4.4,0,0,0,1.55-1.6,4.28,4.28,0,0,0,.56-2.12,3,3,0,0,0-.66-2,5.18,5.18,0,0,0-1.67-1.3,22.14,22.14,0,0,0-2.6-1c-1.06-.35-1.71-.58-2-.68a11.7,11.7,0,0,1-2-1.2,4.41,4.41,0,0,1-1.3-1.54,5.18,5.18,0,0,1-.51-2.3,5,5,0,0,1,1-3,6.62,6.62,0,0,1,2.56-2.08,7.57,7.57,0,0,1,3.23-.73,8.25,8.25,0,0,1,4.56,1.15" transform="translate(-114.19 -124.13)"/><path class="cls-2" d="M304.11,232.36a1.29,1.29,0,0,1,1.46-1.46h5.73a9.25,9.25,0,0,1,8.72,5.47,13,13,0,0,1,1.18,5.52,14.78,14.78,0,0,1-1.16,5.78,8.92,8.92,0,0,1-3.29,3.94,9.21,9.21,0,0,1-5.19,1.42h-6a1.35,1.35,0,0,1-1.1-.42,1.21,1.21,0,0,1-.36-.79Zm2.76.9v17.41h4.37a7.1,7.1,0,0,0,2.13-.36,6.29,6.29,0,0,0,2.26-1.31,7,7,0,0,0,1.85-2.77,12.29,12.29,0,0,0,.72-4.53,11.08,11.08,0,0,0-.52-3.54,7.55,7.55,0,0,0-1.48-2.66,6.46,6.46,0,0,0-2.33-1.66,7.6,7.6,0,0,0-3-.58Z" transform="translate(-114.19 -124.13)"/><path class="cls-2" d="M329.6,242a13.6,13.6,0,0,0,.63,4.07,7.57,7.57,0,0,0,2.19,3.43,6,6,0,0,0,4.15,1.41,6.39,6.39,0,0,0,2.69-.56,6,6,0,0,0,2.21-1.67,8.16,8.16,0,0,0,1.5-2.79,14.09,14.09,0,0,0,0-7.76,8.05,8.05,0,0,0-1.49-2.79,6,6,0,0,0-2.21-1.66,6.73,6.73,0,0,0-2.73-.56,6.35,6.35,0,0,0-3.54,1,6.9,6.9,0,0,0-2.5,3.05,11.39,11.39,0,0,0-.93,4.8m-3,.06a13.46,13.46,0,0,1,1.18-5.58,9.83,9.83,0,0,1,3.45-4.16,9.19,9.19,0,0,1,5.33-1.56,9.48,9.48,0,0,1,4.19.9,8.82,8.82,0,0,1,3.1,2.47,11.16,11.16,0,0,1,1.92,3.59,14.88,14.88,0,0,1,.71,4.34,13.19,13.19,0,0,1-1.19,5.59,9.88,9.88,0,0,1-3.45,4.1,9.28,9.28,0,0,1-5.28,1.52,9.41,9.41,0,0,1-5.06-1.41,9.78,9.78,0,0,1-3.59-4,12.71,12.71,0,0,1-1.31-5.84" transform="translate(-114.19 -124.13)"/><path class="cls-3" d="M486.81,250.17a1.4,1.4,0,0,0-.38.05,1.13,1.13,0,0,0-.27.14" transform="translate(-114.19 -124.13)"/><path class="cls-3" d="M485.23,246.87a1,1,0,0,0-.49.24,3.38,3.38,0,0,1-.51.25" transform="translate(-114.19 -124.13)"/><path class="cls-2" d="M359.72,233.88a2.67,2.67,0,0,1,.67-1.86,2.37,2.37,0,0,1,1.87-.75h6.05a10.26,10.26,0,0,1,5.61,1.37,11,11,0,0,1,3.39,3.29,11.9,11.9,0,0,1,1.71,6.45,11.65,11.65,0,0,1-.74,4.13,11.16,11.16,0,0,1-2.12,3.54,9.89,9.89,0,0,1-3.3,2.45,9.77,9.77,0,0,1-4.2.9h-6.27a2.69,2.69,0,0,1-1.92-.69,2.4,2.4,0,0,1-.75-1.85Zm5.15,2.05v12.82h2.93A5.54,5.54,0,0,0,372,247a4.6,4.6,0,0,0,1.05-2,10.05,10.05,0,0,0,.38-2.76,6.67,6.67,0,0,0-1.24-4.38,5.38,5.38,0,0,0-4.29-1.89Z" transform="translate(-114.19 -124.13)"/><path class="cls-2" d="M384.81,240.18v-6.37a2.33,2.33,0,0,1,.77-1.9,2.65,2.65,0,0,1,1.71-.64h8.15a2.45,2.45,0,0,1,1.76.63,2.28,2.28,0,0,1,.65,1.73,2.38,2.38,0,0,1-.58,1.64,2.31,2.31,0,0,1-1.83.66H390v4h5.09a2.37,2.37,0,0,1,1.8.67,2.31,2.31,0,0,1,.64,1.65,2.33,2.33,0,0,1-2.44,2.36H390v4.13h5.48a2.69,2.69,0,0,1,2,.65,2.23,2.23,0,0,1,.63,1.59,2.45,2.45,0,0,1-.64,1.74,2.6,2.6,0,0,1-2,.67h-7.95a2.61,2.61,0,0,1-2-.73,2.45,2.45,0,0,1-.69-1.75Z" transform="translate(-114.19 -124.13)"/><path class="cls-2" d="M402.71,237.51a6.37,6.37,0,0,1,4.59-6.18,12.36,12.36,0,0,1,3.72-.56,12.77,12.77,0,0,1,2.7.32,6.55,6.55,0,0,1,2.49,1.08,2.38,2.38,0,0,1,1,2,2.12,2.12,0,0,1-.66,1.63,2.63,2.63,0,0,1-1.73.67,17.81,17.81,0,0,1-2-.47,8.83,8.83,0,0,0-2.2-.37,3.24,3.24,0,0,0-1.64.4,1.52,1.52,0,0,0-.81,1.21,1.28,1.28,0,0,0,.47,1.14,8,8,0,0,0,1.92.82l2.72.88a13.07,13.07,0,0,1,2.52,1.15,5.63,5.63,0,0,1,2,2,6.35,6.35,0,0,1,.81,3.25,7,7,0,0,1-1.62,4.75,9,9,0,0,1-6.91,2.67,12.74,12.74,0,0,1-6.2-1.4,2.78,2.78,0,0,1-1.63-2.26,3.67,3.67,0,0,1,.77-1.87,2,2,0,0,1,1.72-.8,6.27,6.27,0,0,1,1.62.34l1.77.61a6.45,6.45,0,0,0,1.64.35,3.25,3.25,0,0,1,.5,0,3.67,3.67,0,0,0,1.91-.53,1.61,1.61,0,0,0,.83-1.46,1.73,1.73,0,0,0-.78-1.51,7.62,7.62,0,0,0-2-.91c-.13-.05-.63-.2-1.51-.46a22.31,22.31,0,0,1-2.33-.81,8.15,8.15,0,0,1-1.82-1,4.52,4.52,0,0,1-1.41-1.87,7.7,7.7,0,0,1-.44-2.81" transform="translate(-114.19 -124.13)"/><path class="cls-2" d="M429.47,235.77v6h3a3.31,3.31,0,0,0,2.23-.82,2.73,2.73,0,0,0,.95-2.15,3,3,0,0,0-.87-2.24,3.49,3.49,0,0,0-2.5-.84Zm-5.15-2a2.47,2.47,0,0,1,2.67-2.48h5.91a9.06,9.06,0,0,1,4.45,1,6.71,6.71,0,0,1,2.75,2.76,8.07,8.07,0,0,1,.92,3.84,8.65,8.65,0,0,1-.92,3.79,6.43,6.43,0,0,1-2.53,2.64,7.5,7.5,0,0,1-3.86,1h-4.24v4.63a2.54,2.54,0,0,1-.75,2,2.74,2.74,0,0,1-1.92.69c-1.66-.09-2.48-1-2.48-2.74Z" transform="translate(-114.19 -124.13)"/><path class="cls-2" d="M456.44,235.46a5,5,0,0,0-3.15.95,5.54,5.54,0,0,0-1.86,2.53,9.6,9.6,0,0,0-.6,3.44,8.14,8.14,0,0,0,1.42,4.85,4.77,4.77,0,0,0,4.19,2,5,5,0,0,0,3.15-.95,5.46,5.46,0,0,0,1.85-2.51,9.27,9.27,0,0,0,.6-3.38,9.6,9.6,0,0,0-.6-3.44,5.52,5.52,0,0,0-1.85-2.53,5,5,0,0,0-3.15-.95m0-4.69a12.34,12.34,0,0,1,4.56.81,10.19,10.19,0,0,1,3.53,2.34,10.34,10.34,0,0,1,2.25,3.68,13.7,13.7,0,0,1,.79,4.78,13.43,13.43,0,0,1-.79,4.72,10.22,10.22,0,0,1-2.26,3.66,9.94,9.94,0,0,1-3.53,2.33,13.18,13.18,0,0,1-9.1,0,10,10,0,0,1-3.54-2.35,10.38,10.38,0,0,1-2.27-3.66,13.67,13.67,0,0,1-.78-4.7,13.88,13.88,0,0,1,.78-4.75,10.46,10.46,0,0,1,2.26-3.69,10.05,10.05,0,0,1,3.53-2.36,12.43,12.43,0,0,1,4.57-.81" transform="translate(-114.19 -124.13)"/><path class="cls-2" d="M477.87,235.93v4.93h3.24a3.12,3.12,0,0,0,2-.67,2.16,2.16,0,0,0,.83-1.75,2.4,2.4,0,0,0-.76-1.79,2.58,2.58,0,0,0-1.84-.72Zm-5.16-2.18a2.49,2.49,0,0,1,2.68-2.48h6a9,9,0,0,1,4.14.9,6.11,6.11,0,0,1,2.6,2.53,7.84,7.84,0,0,1,.89,3.8,5.85,5.85,0,0,1-1,3.18,6.13,6.13,0,0,1-2.09,1.9,6.77,6.77,0,0,1-2.22.79l4.66,4.84a2.77,2.77,0,0,1,.89,2,2.07,2.07,0,0,1-.86,1.72,3.51,3.51,0,0,1-2.14.65,3.09,3.09,0,0,1-2-1.16l-6.38-7.88h-.07v6.36a2.54,2.54,0,0,1-.75,2,2.76,2.76,0,0,1-1.92.69,2.39,2.39,0,0,1-2.49-2.74Z" transform="translate(-114.19 -124.13)"/><path class="cls-2" d="M497.8,250.92v-15H495a2.92,2.92,0,0,1-2-.62,2.14,2.14,0,0,1-.69-1.68c0-1.57.89-2.36,2.67-2.36h10.91c1.78,0,2.68.79,2.68,2.36a2.14,2.14,0,0,1-.69,1.68,2.93,2.93,0,0,1-2,.62H503v15a2.65,2.65,0,0,1-.71,2,2.56,2.56,0,0,1-1.87.7,2.65,2.65,0,0,1-1.88-.7,2.61,2.61,0,0,1-.73-2" transform="translate(-114.19 -124.13)"/><path class="cls-2" d="M524,235.46a5,5,0,0,0-3.15.95,5.61,5.61,0,0,0-1.86,2.53,9.82,9.82,0,0,0-.59,3.44,8.13,8.13,0,0,0,1.41,4.85,4.79,4.79,0,0,0,4.19,2,5,5,0,0,0,3.15-.95,5.48,5.48,0,0,0,1.86-2.51,9.49,9.49,0,0,0,.59-3.38,9.82,9.82,0,0,0-.59-3.44,5.54,5.54,0,0,0-1.86-2.53,5,5,0,0,0-3.15-.95m0-4.69a12.3,12.3,0,0,1,4.56.81,10.09,10.09,0,0,1,3.53,2.34,10.5,10.5,0,0,1,2.26,3.68,13.93,13.93,0,0,1,.79,4.78,13.67,13.67,0,0,1-.79,4.72,10.38,10.38,0,0,1-2.27,3.66,9.94,9.94,0,0,1-3.53,2.33,12.25,12.25,0,0,1-4.55.81,12.4,12.4,0,0,1-4.55-.81,10,10,0,0,1-3.54-2.35,10.36,10.36,0,0,1-2.26-3.66,13.44,13.44,0,0,1-.78-4.7,13.64,13.64,0,0,1,.78-4.75,10.31,10.31,0,0,1,2.26-3.69,9.87,9.87,0,0,1,3.53-2.36,12.34,12.34,0,0,1,4.56-.81" transform="translate(-114.19 -124.13)"/><path class="cls-2" d="M548.22,232.87a1.7,1.7,0,0,1,.35-1.11,1.09,1.09,0,0,1,.82-.41H558a1.07,1.07,0,0,1,.86.38,1.32,1.32,0,0,1,.32.9,1.31,1.31,0,0,1-.33.91,1.17,1.17,0,0,1-.91.37H551v7.28h6.3a1.18,1.18,0,0,1,.91.36,1.37,1.37,0,0,1,0,1.82,1.27,1.27,0,0,1-1,.37H551v7.19h7a1.07,1.07,0,0,1,.87.38,1.49,1.49,0,0,1,.31,1,1.15,1.15,0,0,1-.35.85,1.38,1.38,0,0,1-1,.36h-8.17c-.58,0-1-.16-1.12-.5a2.08,2.08,0,0,1-.25-1Z" transform="translate(-114.19 -124.13)"/><path class="cls-2" d="M770.61,255.31l2.07-3.94a1.49,1.49,0,0,1,1.3-.87,1.27,1.27,0,0,1,.89.33,1.1,1.1,0,0,1,.35.89,2.3,2.3,0,0,1-.19.92l-2,3.88a1.52,1.52,0,0,1-1.43.9,1.19,1.19,0,0,1-.85-.33,1.21,1.21,0,0,1-.39-.88,1.92,1.92,0,0,1,.29-.9" transform="translate(-114.19 -124.13)"/><path class="cls-2" d="M790.28,232.62a1.28,1.28,0,0,1,1.43-1.46,1.32,1.32,0,0,1,.95.37,1.42,1.42,0,0,1,.38,1.09v19.53a1.42,1.42,0,0,1-.42,1.19,1.43,1.43,0,0,1-.91.34,1.28,1.28,0,0,1-1.43-1.47Z" transform="translate(-114.19 -124.13)"/><path class="cls-2" d="M802.27,250.5a1.57,1.57,0,0,1,1.14.47,1.5,1.5,0,0,1,.49,1.12,1.53,1.53,0,0,1-.49,1.11,1.59,1.59,0,0,1-1.14.48,1.68,1.68,0,0,1-1.62-1.59,1.52,1.52,0,0,1,.48-1.11,1.56,1.56,0,0,1,1.14-.48" transform="translate(-114.19 -124.13)"/><path class="cls-2" d="M821.65,233.72v9.15h4a4.74,4.74,0,0,0,3.47-1.32,4.49,4.49,0,0,0,1.34-3.33,4.22,4.22,0,0,0-1.34-3.31,4.8,4.8,0,0,0-3.34-1.19Zm-2.76-.91a1.3,1.3,0,0,1,.44-1.12,1.53,1.53,0,0,1,.93-.33h5.63a8.5,8.5,0,0,1,2.79.45,7,7,0,0,1,2.33,1.32,6.19,6.19,0,0,1,1.61,2.17,7.37,7.37,0,0,1,.61,3,6.66,6.66,0,0,1-.53,2.67,6.9,6.9,0,0,1-1.48,2.23,7,7,0,0,1-5,2h-4.61v7.1a1.21,1.21,0,0,1-.41,1,1.42,1.42,0,0,1-1,.36,1.33,1.33,0,0,1-1.37-1.4Z" transform="translate(-114.19 -124.13)"/><path class="cls-2" d="M841,250.5a1.59,1.59,0,0,1,1.14.47,1.54,1.54,0,0,1,0,2.23,1.58,1.58,0,0,1-2.28,0,1.51,1.51,0,0,1,0-2.21,1.56,1.56,0,0,1,1.14-.48" transform="translate(-114.19 -124.13)"/><path class="cls-2" d="M579.05,246V233.71a2.71,2.71,0,0,1,.33-1.36,2.2,2.2,0,0,1,.91-.88,3,3,0,0,1,1.37-.31,2.53,2.53,0,0,1,1.86.69,2.48,2.48,0,0,1,.69,1.86v13.17a8.6,8.6,0,0,1-.76,4c-1.12,2.07-3.15,3.11-6.07,3.11a8.89,8.89,0,0,1-3.91-.89,2.94,2.94,0,0,1-1.82-2.78,2.48,2.48,0,0,1,.28-1.18,2.23,2.23,0,0,1,.81-.86,2.25,2.25,0,0,1,1.19-.32,2.18,2.18,0,0,1,.82.15,7.12,7.12,0,0,1,.87.44,8.85,8.85,0,0,0,.85.44,2.41,2.41,0,0,0,.77.18,1.65,1.65,0,0,1,.57-.12c.83-.14,1.24-1.14,1.24-3" transform="translate(-114.19 -124.13)"/><path class="cls-2" d="M594.87,233.83v10.75a4.2,4.2,0,0,0,1.36,3.33,4.81,4.81,0,0,0,3.31,1.21,4.93,4.93,0,0,0,3.37-1.2,4.26,4.26,0,0,0,1.34-3.34V233.83a2.67,2.67,0,0,1,.7-2,2.51,2.51,0,0,1,1.85-.7,2.83,2.83,0,0,1,1.88.74,2.5,2.5,0,0,1,.73,1.93v10.74a9.7,9.7,0,0,1-1.26,5,8.3,8.3,0,0,1-3.48,3.26,11.14,11.14,0,0,1-5.13,1.14,11.67,11.67,0,0,1-5.13-1.17,8.23,8.23,0,0,1-3.46-3.25,9.66,9.66,0,0,1-1.24-5V233.83a2.44,2.44,0,0,1,2.61-2.67,2.51,2.51,0,0,1,1.85.7,2.67,2.67,0,0,1,.7,2" transform="translate(-114.19 -124.13)"/><path class="cls-2" d="M614.14,235.17c-.1-.26-.2-.54-.3-.81a2.33,2.33,0,0,1-.15-.78,2.2,2.2,0,0,1,.8-1.72,2.78,2.78,0,0,1,1.87-.7,2.36,2.36,0,0,1,1.65.62,3.76,3.76,0,0,1,1,1.59l4.42,11.45,4.42-11.36a2.86,2.86,0,0,1,2.8-2.23,2.6,2.6,0,0,1,1.25.31,2.37,2.37,0,0,1,.94.86,2.1,2.1,0,0,1,.35,1.19,7.39,7.39,0,0,1-.44,1.71l-6.65,16.14a4.88,4.88,0,0,1-1.08,1.7,2.22,2.22,0,0,1-1.59.53,2.42,2.42,0,0,1-1.65-.52,5.24,5.24,0,0,1-1.15-1.78Z" transform="translate(-114.19 -124.13)"/><path class="cls-2" d="M638.25,240.26V233.9A2.35,2.35,0,0,1,639,232a2.67,2.67,0,0,1,1.71-.64h8.15a2.43,2.43,0,0,1,1.76.63,2.29,2.29,0,0,1,.66,1.73,2.39,2.39,0,0,1-.59,1.64,2.3,2.3,0,0,1-1.83.66h-5.46v4h5.09a2.33,2.33,0,0,1,1.79.68,2.39,2.39,0,0,1,0,3.3,2.31,2.31,0,0,1-1.77.7h-5.09v4.13h5.46a2.68,2.68,0,0,1,2,.65,2.25,2.25,0,0,1,.63,1.59,2.42,2.42,0,0,1-.64,1.74,2.58,2.58,0,0,1-2,.67h-8a2.62,2.62,0,0,1-2-.73,2.44,2.44,0,0,1-.68-1.75Z" transform="translate(-114.19 -124.13)"/><path class="cls-2" d="M656.81,233.83a2.66,2.66,0,0,1,.68-1.86,2.3,2.3,0,0,1,1.81-.74,2.44,2.44,0,0,1,1.36.36,7.92,7.92,0,0,1,1.31,1.1l9.57,11.64h.06V233.77a2.79,2.79,0,0,1,.63-1.83,2.28,2.28,0,0,1,1.86-.78,2.6,2.6,0,0,1,2,.74,2.64,2.64,0,0,1,.68,1.87v17.11a2.87,2.87,0,0,1-.71,2,2.68,2.68,0,0,1-3.34.37,5.87,5.87,0,0,1-1.17-1.17L662,240.45v10.68a2.37,2.37,0,0,1-.75,1.87,3,3,0,0,1-2,.68,2.34,2.34,0,0,1-1.74-.79,2.8,2.8,0,0,1-.63-1.89Z" transform="translate(-114.19 -124.13)"/><path class="cls-2" d="M686,251V236h-2.83a2.87,2.87,0,0,1-2-.62,2.11,2.11,0,0,1-.7-1.68c0-1.57.89-2.36,2.67-2.36h10.91c1.78,0,2.67.79,2.67,2.36a2.13,2.13,0,0,1-.68,1.68,2.91,2.91,0,0,1-2,.62H691.2v15a2.61,2.61,0,0,1-.71,2,2.54,2.54,0,0,1-1.87.69,2.64,2.64,0,0,1-1.88-.69,2.6,2.6,0,0,1-.73-2" transform="translate(-114.19 -124.13)"/><path class="cls-2" d="M706.56,233.83v10.75a4.2,4.2,0,0,0,1.36,3.33,4.83,4.83,0,0,0,3.32,1.21,4.9,4.9,0,0,0,3.36-1.2,4.23,4.23,0,0,0,1.34-3.34V233.83a2.71,2.71,0,0,1,.7-2,2.53,2.53,0,0,1,1.85-.7,2.83,2.83,0,0,1,1.89.74,2.53,2.53,0,0,1,.72,1.93v10.74a9.79,9.79,0,0,1-1.25,5,8.38,8.38,0,0,1-3.49,3.26,11.09,11.09,0,0,1-5.12,1.14,11.64,11.64,0,0,1-5.13-1.17,8.26,8.26,0,0,1-3.47-3.25,9.75,9.75,0,0,1-1.23-5V233.83a2.64,2.64,0,0,1,.71-2,2.61,2.61,0,0,1,1.89-.7,2.52,2.52,0,0,1,1.86.7,2.7,2.7,0,0,1,.69,2" transform="translate(-114.19 -124.13)"/><path class="cls-2" d="M727.26,234a2.72,2.72,0,0,1,.67-1.86,2.41,2.41,0,0,1,1.87-.74h6.05a10.3,10.3,0,0,1,5.62,1.36,11,11,0,0,1,3.39,3.29,11.9,11.9,0,0,1,1.71,6.45,11.66,11.66,0,0,1-.75,4.13,11.1,11.1,0,0,1-2.12,3.55,10.06,10.06,0,0,1-3.29,2.44,9.82,9.82,0,0,1-4.21.9h-6.26a2.73,2.73,0,0,1-1.93-.68,2.42,2.42,0,0,1-.75-1.86Zm5.16,2v12.82h2.93a5.59,5.59,0,0,0,4.23-1.77,4.75,4.75,0,0,0,1-2,10,10,0,0,0,.37-2.76,6.67,6.67,0,0,0-1.24-4.38,5.36,5.36,0,0,0-4.28-1.89Z" transform="translate(-114.19 -124.13)"/><path class="cls-2" d="M752.36,240.26V233.9a2.32,2.32,0,0,1,.77-1.91,2.63,2.63,0,0,1,1.71-.64H763a2.42,2.42,0,0,1,1.75.63,2.25,2.25,0,0,1,.66,1.73,2.38,2.38,0,0,1-.58,1.64A2.32,2.32,0,0,1,763,236h-5.47v4h5.09a2.3,2.3,0,0,1,1.79.68,2.24,2.24,0,0,1,.65,1.64,2.33,2.33,0,0,1-2.44,2.36h-5.09v4.13H763a2.66,2.66,0,0,1,2,.65,2.2,2.2,0,0,1,.63,1.59,2.42,2.42,0,0,1-.63,1.74,2.61,2.61,0,0,1-2,.67h-8a2.58,2.58,0,0,1-2-.73,2.45,2.45,0,0,1-.69-1.75Z" transform="translate(-114.19 -124.13)"/><g class="cls-4"><rect class="cls-5" y="21.85" width="13.48" height="69.49"/></g><path class="cls-6" d="M253.81,295.27A102.18,102.18,0,0,1,204.67,311c-1.89.1-3.78.16-5.69.16-2.15,0-4.41-2.56-6.53-2.69C191,305,190,301.84,189.62,292c.27-.57.45-1,.76-1.56,16-11.34,6-2.4,8.85-13.46l.13-.26c.94-1.32,1.2-1.58,2.62-1.06,1.14-1.06,1.59,1.47,3.43,1.53l.35-.15c.38-.34,1-.39,1.48-.65a10.06,10.06,0,0,1,1.4-.65c1-.39,1.93-.73,2.92-1.11a14.43,14.43,0,0,0,1.47-.53c.48-.23.64-.67,1.11-.91a5.64,5.64,0,0,1,2.2-.52,9.74,9.74,0,0,1,1.08,0,5.68,5.68,0,0,0,3.24-.46l.09-.16a2.74,2.74,0,0,1,.61-.76c.26-.3.42-.59.8-.73.16-.07.3,0,.44-.08s.21-.22.34-.28a.69.69,0,0,1,.45,0c.16.1.07.27.17.41a.43.43,0,0,1,.11-.12c.9-.58.73.19.62.95,0,.24-.08.17-.08.44a1.76,1.76,0,0,1-.25.74,4.11,4.11,0,0,1-.26.66c.3-.36.58-.81,1-.86a1.23,1.23,0,0,1,.82.05c.17.18-.23.39-.32.55s-.28.55-.43.82a4,4,0,0,1-.54.61,6.29,6.29,0,0,1-1.08,1.34,15.79,15.79,0,0,1-1.65,1c-1.78,1.07-1.64,1.09-3.84.78a8.24,8.24,0,0,0-4.55.58c-2.1,1.27-7.66,6.93-6.72,8.07.24.29,6.32,1.86,9,.94.85-.3.11-2.26.11-2.76,0-1.84-.22-2.8,2.13-4.53a5,5,0,0,1,2.32-1.1c2.64-.56,6.39.12,7.66,5,.22.27.44.58.66.89.38-.8.8-1.63,1.28-2.54s.95-1.55,1.28-2.2c-.2-.8-.43-1.76-.6-2.72a18,18,0,0,0-.64-2.89c-.24-.66-.52-1.36-.84-2a3.64,3.64,0,0,0-.6-1.12c-.29-.29-.73-.31-1.15-.48s-.87-.5-1.21-.62-.49,0-.74-.13c-.09,0-.87-.34-.87-.35-.42-.34-1-.62-1.11-1.14s-1.19-.7-1.73-1c-1.07-.54-1.71-1.49-2.64-1.42a3.45,3.45,0,0,1-3.35-1.48,11.73,11.73,0,0,0-1.2-1.33,14.15,14.15,0,0,0-1.95-1.46c-.62-.42-1.2-.94-1.79-1.4-.9-.7-1.79-1.33-2.73-1.95-1.25-.82-2.54-1.91-3.73-2.68-.76-.5-1.64-1.27-2.51-1.88-.55-.38-1.06-.61-1.65-1-.24-.14-.48-.34-.72-.47-.49-.25-1-.41-1.5-.61l-1-.37a7.56,7.56,0,0,0-2.17-.54,18.71,18.71,0,0,0-2.31.17,5.63,5.63,0,0,1-1.37.09c-.46-.22-.26-.55-.1-.81a1.72,1.72,0,0,1,.74-.3c.23,0,.47,0,.73-.08s.58-.21.85-.27c.62-.15,1.13-.25,1.15-.44-.32,0-.76,0-1.3-.13-.39-.07-.84-.24-1.26-.35a4.8,4.8,0,0,1-1.14-.36.41.41,0,0,1-.19-.49c0-.22.36-.43.8-.42a10.66,10.66,0,0,1,1.18.32,10.08,10.08,0,0,0,1.19.06c.51.08.86.23.91.09s-.6-.43-1.32-.79c-.37-.19-.75-.52-1.09-.68a5.56,5.56,0,0,1-.85-.38.54.54,0,0,1,.35-.91,1.28,1.28,0,0,1,.83.11c.21.1.45.29.71.42s.65.25.93.43.7.52.94.64a.32.32,0,0,0,.42-.07c.13-.2-.21-.38-.68-.73-.29-.22-.63-.61-1-.81s-.58-.23-.75-.41-.08-.31-.05-.44c.08-.3.33-.35.67-.33a3,3,0,0,1,1.78.87,7.33,7.33,0,0,0,1.16.91,5,5,0,0,0,.88.41,3.33,3.33,0,0,0,1.23.24c.37,0,.72,0,.83-.19.21-.41-.12-1,0-1.53s1.09-.86,1.46-.41c.22.26-.22.7-.1,1.11s.39.65.53,1.06.13.9.23,1.26c.18.71.22.63.37,1.41,0,.27.61.73,1.31,1.27a16,16,0,0,0,1.95,1.35c1.73.92,2.54,1.15,4,1.82a2.15,2.15,0,0,1,1.08,0,16.14,16.14,0,0,1,2.34,1.28c.77.43,1.5.76,2.21,1.15.87.48,1.74,1,2.74,1.48a18.82,18.82,0,0,0,2.91,1.19,14,14,0,0,0,1.67.26c1.58.22,3.34.16,4.67,1,.2.13.91.54.89,1s.61,0,1-.1.72.32,1,.17-.13-.47.12-.72a3.56,3.56,0,0,1,1.77-.65,3.76,3.76,0,0,1,2,.82c.26.15.72.07.83.45,1.43-.43,2.89-.79,3.57-1-.82-.69.4-.31.95-.85-.16,0-.25-.63-.23-2.06,0-.34.31-.58.52-.43h0a11.53,11.53,0,0,1,.24-3.25c.12-.36-.43-.49-.49-.55a.42.42,0,0,1-.28-.31c.15,0,.28.09.43.12a2,2,0,0,0,.87,0,.52.52,0,0,1-.28-.15c.37,0,1-.52.3-.84a9,9,0,0,0,1.06-.19,2,2,0,0,0-.74,0c-.25,0-.45,0-.69.05a2.87,2.87,0,0,1,1.45-.26c.06,0,.13,0,.16,0H241c-.27-.06-.53-.25-.79-.29a2.11,2.11,0,0,0-.7-.07,1.17,1.17,0,0,1,.57-.08,2.45,2.45,0,0,1,.66.1,1.23,1.23,0,0,0,.55.13c.15,0,.3-.05.46-.06-.2,0-.46-.07-.61-.1a3.49,3.49,0,0,0,.92-.11c.23,0,.45-.18.69-.21h0c-.14,0-.29,0-.44,0a1.08,1.08,0,0,1-.45-.14,4.26,4.26,0,0,0,1.58,0h0A.71.71,0,0,1,243,250c1.07.52,2.31-.18,4,1.23,2.22,1.84,2.79,3.86,2.13,6.11a1.73,1.73,0,0,1-.23.51c.78.14.25,1.58.16,2.15-.68,1.13-1,.11-1.05.1,0,.23-.27.48-.35.76a8.58,8.58,0,0,0-.16,1.4,5.59,5.59,0,0,0,2.37-1.25c.47-.29.69-.6,1.29-.47.35.07.67.67,1.05.61s.47-.55,1.11-.49a1.93,1.93,0,0,1,1.14.56c.28.25.19.65.49.68s.36-.91.56-1.1.63.2,1.16-.21c.31-.24.2-.46.63-.63a9.69,9.69,0,0,1,1.26-.25c.34-.08.68-.09,1-.19s.51-.32.79-.41.77,0,1.14-.06a3.2,3.2,0,0,0,1.14-.6c.27-.22.7-.29,1-.52a11.9,11.9,0,0,0,.94-1c.39-.37.89-.68,1.18-1a22.91,22.91,0,0,1,1.69-1.59c2.31-1.55,4.37-3.11,6.61-4.79.81-.6.82-3.1.52-3.82s0-.83.08-1.57a1.3,1.3,0,0,0-.15-.56c-.05-.16,0-.3-.06-.45s-.37-.28-.43-.38-.05-.15,0-.36,1-.3,1.51.26.41,1.35.64,1.6a1.2,1.2,0,0,0,1.71-.21,3.61,3.61,0,0,0,.56-1.34,3.94,3.94,0,0,1,.45-.78,1.14,1.14,0,0,1,.44-.5.49.49,0,0,1,.71.23.7.7,0,0,1,0,.29,4.25,4.25,0,0,1-.23.57c-.06.15,0,.32-.09.48s-.19.29-.24.44a.88.88,0,0,0,0,.39c0,.25.12.26.34.37s.19-.05.47-.32a9.35,9.35,0,0,1,.75-.7c.12-.11.33-.2.45-.29.32-.23.42-.36.63-.42.44-.12,1.11.1.92.53a4.36,4.36,0,0,1-.63.65c-.21.21-.39.45-.62.65s-.24.26-.37.36-.67.35-.59.51a.56.56,0,0,0,.46,0c.21-.06.42-.25.71-.35s.54-.13.81-.22.31-.18.51-.24a2.23,2.23,0,0,1,.73-.12.64.64,0,0,1,.35.84.59.59,0,0,1-.29.27,7,7,0,0,0-1.33.58,6.11,6.11,0,0,0-.57.24c-.19.11-.37.29-.5.36.9-.06,1.49.19,2.27.08a1.77,1.77,0,0,1,1,.09c.27.25.31.44.12.68-.26.05.28.06-1.45.23-.4,0-.79.12-1,.13a2.62,2.62,0,0,0-.74.14,5.15,5.15,0,0,0-.52.21l-.05,0-1,0-1.59,1.59a3.94,3.94,0,0,0-1,.68c-.35.38-1.62,1.84-1.87,2.22l0,0c-3.65,4-4.12,6.42-9.12,10.43a7.14,7.14,0,0,1-2.89,1.86c-.12,0-.07.26-.23.88a2.87,2.87,0,0,1-1.58,2c-1.1.71-2.53,1.37-3.74.75a4.06,4.06,0,0,1-1.27,2.11,4.83,4.83,0,0,0-.89,1,4.93,4.93,0,0,0-.24.71c-.21.57-.44,1.19-.58,1.73-.87,3.25-2,13.63-.92,13.29.32,1-1.18,3.15-1.46,4.61Z" transform="translate(-114.19 -124.13)"/><path class="cls-7" d="M167.26,306.11a102.28,102.28,0,0,1-27.77-14l-.39-2c-2.12-1.5-3.85-3.92-6.42-7.81.26-.9-.76-1-1.41-1.57a5.67,5.67,0,0,1-1.43-2.59,13.48,13.48,0,0,0-.62-1.64,11.52,11.52,0,0,0-1.48-1.86,53.68,53.68,0,0,1-3.84-4.18,11,11,0,0,1,1.3-2c-.4-.69-.65-1.16-1-1.77s-.71-1.37-1.1-2.1a10.89,10.89,0,0,0-1.32-2.13,11.82,11.82,0,0,0-1.37-1.37,9.82,9.82,0,0,1-1.68-1.41,2.78,2.78,0,0,1-.61-1.95,3.63,3.63,0,0,1,.14-.71,2,2,0,0,0-.5-.59c-.17-.16-.38-.34-.41-.55a5,5,0,0,1,.31-1.4.87.87,0,0,1,.32-.34,2.26,2.26,0,0,1,.48-.16c.14-.05,0-.11.26-.24s.25-.06.37-.16.23-.3.39-.36.37.06.52,0,.11-.43.55-.61c.26-.1.57,0,.89,0s.77-.09,1-.08c.9,0,.82.62.94,1.36s.52,1.33.43,1.85c0,.17-.33.71-.4.89a4.09,4.09,0,0,0-.41,1,2.32,2.32,0,0,0,0,.87,4.07,4.07,0,0,0,.43.71c.12.19.22.25.39.52a13.89,13.89,0,0,0,1.44,2c.52.63,1,1.49,1.61,2.1s.94.94,1.72,1.62a1,1,0,0,1,.77-.05c.21.1.29.26.47.45s.72.72.94,1c1.05,1.15,1.68,1.85,2.62,2.85.3.32.56.69,1,1.09s.68.57,1,.84a4,4,0,0,1,.56.52c.35.44.73.78,1.11,1.25s.84,1.05,1.16,1.45a21.09,21.09,0,0,1,1.94,2.72c.61,1,3.16,3.68,3.47,3.44a11.83,11.83,0,0,1,1.91-1c.68-.32,2.08.28,2.7.48a9.1,9.1,0,0,1,2.74,1.53,23.44,23.44,0,0,1-.51-2.46,1.35,1.35,0,0,1-1-.15,2.83,2.83,0,0,1-.77-.5,4.08,4.08,0,0,1-1.11-1.91c-.12-.5-.14-1.05.22-1.13a1.49,1.49,0,0,1,.64,0,2.69,2.69,0,0,1-.55-1.2c-.06-.43-.13-.78-.17-1.14,0-.21,0-.4,0-.63s0-.51,0-.81a4.57,4.57,0,0,1,.56-1.93,14,14,0,0,1,1-1.31,5.73,5.73,0,0,1,1.58-1.31,4.43,4.43,0,0,1,1.8-.49,4.05,4.05,0,0,1,1.33-.2,7.32,7.32,0,0,1,.8.11c.28.08.5.16.76.25a10.05,10.05,0,0,1,1.32.52,5.68,5.68,0,0,1,.8.67,3.84,3.84,0,0,1,.82.79,8.6,8.6,0,0,1,.71,1.54,5.15,5.15,0,0,1,.26,2.47c.28-.23.52-.27.71-.09a2,2,0,0,1,.4,1,11.07,11.07,0,0,1,0,1.3,2,2,0,0,1-.56,1.67,1.41,1.41,0,0,1-1,.62c.11.53.22,1.16.32,1.62s.1,1.48.15,2.1c.47-1.86.45-2.46,1.06-3.52s.56-1.6,1.62-1.73a5.22,5.22,0,0,1,1.85-.15c.35.11.48.49.73.43s.21-.35.29-.47a1.54,1.54,0,0,0,.37-.77c0-.29-.15-.46-.15-.63a1.5,1.5,0,0,1,.32-.72c.3-.53-.17-.56-.21-1.2a13.29,13.29,0,0,1,.16-1.41,6.93,6.93,0,0,1-.19-1.31c.17-1.92,1.92-3.26,2.82-4.81a14.33,14.33,0,0,0,1.36-3.58,23.6,23.6,0,0,1,.86-2.53c.18-.45.26-1.24.48-1.65.06-.12.29,0,.35-.13s.27-.76.37-1a18.52,18.52,0,0,0,.94-2.48,37,37,0,0,0,1-4.69,6.83,6.83,0,0,0,.23-2.93,1.48,1.48,0,0,0-.63-.84c-.21-.11-.34-.48-.44-.68-.23-.44-.53-.55-.79-.81a2.56,2.56,0,0,1-.29-.83,2.35,2.35,0,0,1-.23-1c.07-.22.35-.36.54-.43s.43.06.67-.13.05-.49.45-.65c.71-.28.8.17.94.11a3.31,3.31,0,0,1,.87-.26c.21,0,.34.12.55.07a3.57,3.57,0,0,1,.73-.16,4.34,4.34,0,0,1,1.62,1.06c.69.66.3,1,.1,1.63a5,5,0,0,1,.23,2.3c-.13.78-.65,1.18-.73,1.91-.11,1-.44,1.6-.51,2.56a25.77,25.77,0,0,1-.45,3.22c-.15.85-.3,2-.37,2.65s-.1,1.4-.23,2.36c.57.32,1.07.26,1.6.95,0,0,0,.16,0,.32l-1.55,3.91L173,271.32l.09.4c0,.19-.08.39-.14.61a7.88,7.88,0,0,0-.09,2.78c.23,1.77,1,2.7,1.18,4.31.12.94-.7,1.92-1.22,2.87-.14.24-.9,1.41-1.08,1.63-.85,1.1-1.72,2.2-2,2.69a2.26,2.26,0,0,0-.11.3l-.48.49-.25,2.82-.24,5.12Z" transform="translate(-114.19 -124.13)"/><path class="cls-6" d="M261.09,290.22q-2.67,2-5.47,3.88l.34-4.37a19.39,19.39,0,0,1,1.49-2.59,17.08,17.08,0,0,1,1.06-1.65,3.4,3.4,0,0,0,.85-1.31,3,3,0,0,1,.6-.92,6.14,6.14,0,0,0,.48-1.28c.18-.41.05-1.65,1.06-1.28.09-.28.3-.51.39-.81a7.39,7.39,0,0,0,.13-.83,1.12,1.12,0,0,1,.21-.52,4.19,4.19,0,0,1,.77-.65,1.71,1.71,0,0,1,0-.78,4.64,4.64,0,0,1,.36-1.09,3.31,3.31,0,0,0,.28-1.61.52.52,0,0,1,1-.16,7.74,7.74,0,0,1,.09,2.28c.11-.42.28-1,.34-1.34s0-.8.16-1a.45.45,0,0,1,.8.14,5.27,5.27,0,0,1,.08,1.2,15.41,15.41,0,0,1-.31,2.42c-.07.38-.12.81-.18,1.19a3.07,3.07,0,0,0,.06,1.24c.09.4.07,1,.55,1.15a2.69,2.69,0,0,0,1.29-.35c.79-.44,1.94-.77,2.31,0s-1.06,1.36-1.69,1.52a4.53,4.53,0,0,0-.72.23c-.24.12-.46.29-.72.45a13.09,13.09,0,0,0-1.38,1,3,3,0,0,1-1.64.76,1.28,1.28,0,0,0-.66.2,1.47,1.47,0,0,0-.49.47c-.19.34-.39.6-.52.89a15,15,0,0,0-.8,2.13c-.06.23-.12.43-.17.61Z" transform="translate(-114.19 -124.13)"/><path class="cls-8" d="M258.31,292.26c-2.07,1.46-4.2,2.86-6.38,4.17l.56-6.47c0-.45-.05-.91-.05-1.37A64.15,64.15,0,0,1,253,282a24.28,24.28,0,0,0,.39-3.13c-.1-1.06.28-1.87-.23-2.8-.32-.6-.82-1.81-1-2.18a3.24,3.24,0,0,0-.73-1.12,16,16,0,0,1-1.22-1.25,9.85,9.85,0,0,1-1.05-1.14.68.68,0,0,1-.05-.59c.12-.25.41-.36.77-.1a5,5,0,0,1,.95.91,5.37,5.37,0,0,0,1.16,1,.42.42,0,0,0,.3,0,.57.57,0,0,0,.38-.44c0-.2-.17-.4-.28-.66-.23-.51-.64-1.07-.72-1.26-.24-.57-.84-1.26-.8-1.85a.44.44,0,0,1,.23-.37.56.56,0,0,1,.65.05,1.45,1.45,0,0,1,.54.72,8.66,8.66,0,0,0,1,2c.08.12.17.39.27.59a.2.2,0,0,0,.3.06c.06,0,.19-.06.22-.14a1.28,1.28,0,0,0,0-.51c-.07-.33-.26-.87-.28-1.16,0-.78-.09-1.16-.19-2,0-.28-.1-.65.17-.86a.68.68,0,0,1,.95.24,13,13,0,0,1,.33,1.93,7.33,7.33,0,0,1,.14,1,8.85,8.85,0,0,0,.13.92c0,.27.42.36.47.09s0-1,.09-1.8c0-.2.1-.36.11-.54s0-.47,0-.61c.07-.64.22-.95.66-.87s.53.54.53,1a5.7,5.7,0,0,0,.09,1,4.87,4.87,0,0,1,.05.65,6.11,6.11,0,0,1,0,.74,4.29,4.29,0,0,0,0,1.29,4.73,4.73,0,0,0,.49,1.2c.32.51.73,1,1.49.78a1.81,1.81,0,0,0,.59-.37,2.86,2.86,0,0,1,.84-.41,1.39,1.39,0,0,1,1.24.17,1.7,1.7,0,0,1,.58.62.91.91,0,0,1,0,.64c-.17.3-.58.08-1,0a1.52,1.52,0,0,0-.66.1c-.43.11-.71.59-.88.83a5.12,5.12,0,0,1-.9.87c-.21.21-.3.47-.64.7a1.91,1.91,0,0,0-.63.61,2.24,2.24,0,0,0-.22.95,14.52,14.52,0,0,0-.09,1.48c0,.62-.09,1.09-.11,1.75,0,.36,0,.92-.06,1.38s.06.71.06,1.09a9.14,9.14,0,0,0,.21,1.86c.06.29.1.6.17,1s.08.85.14,1.19c.1.64.07,1,.15,1.72a5.11,5.11,0,0,1,.06.59Z" transform="translate(-114.19 -124.13)"/><path class="cls-8" d="M201.87,267.28l.12-.11,1-.58-.17.34.11,0,.72-.54-.38.46a9.29,9.29,0,0,0,1.38-.56l-.17.44L205,266l.14.68c.16-.05.27-.29.46-.63.06.4.17.85.17.85l.26-1.29v1.12l.18-.9.14,1,.35-1.21.23,1.51.27-.44c.11.45.3,1.11.81.6,0,.25-.08.46.08.65l.44-1-.24,1.09.38-.83-.08,1,.61-1.1-.11,1.52.36-.37c0,.55.25.79.48,1.21l.3.58a5.08,5.08,0,0,1,.59,1.27c.26-.2.56-.4.89-.65.58-.43,1.13-.73,1.88-1.22s1.28-.83,2-1.27,1.22-.76,1.79-1.13a15.37,15.37,0,0,0,1.51-1.1c.3-.27.33-.58.65-.85s.46-.17,1.08-.63a8.45,8.45,0,0,0,1-1c.18-.19.65-.57.92-.8a2.1,2.1,0,0,0,.69-1.22,4.35,4.35,0,0,1,.26-1.2c.14-.42.28-1.07.41-1.68a2.57,2.57,0,0,0,.14-1.18,7.72,7.72,0,0,0-.41-.86c-.11-.26-1.11-.41-.57-1a1.51,1.51,0,0,1,1.47-.14,1.27,1.27,0,0,1,.9.8,2,2,0,0,1,.24.81,2.42,2.42,0,0,0,0,.62,1.5,1.5,0,0,0,.61.77,3.47,3.47,0,0,0,2.75-.07,11.58,11.58,0,0,0,1.2-.55c.47-.23,1-.48,1.48-.73a5.25,5.25,0,0,1,1.75-.69c.52,0,.83.15.67.71-.09.34-.69.5-1.09.74a12.58,12.58,0,0,0-1.11.67,5.32,5.32,0,0,1-.79.53c-.3.14-.61.2-.51.44s.24.23.48.13a11.35,11.35,0,0,1,1.36-.59c.4-.1.73-.2,1.12-.28a4.94,4.94,0,0,0,1.13-.44c.46-.23,1.27-.36,1.43.3s-.94.83-1.43,1a15,15,0,0,1-1.72.83c-.26.08-.66.17-1,.29s-.72.14-.63.48.7,0,1.42-.16,1.19-.24,1.57-.32c.79-.17,1.46-.45,1.8.05a.53.53,0,0,1,0,.51c-.08.25-1.27.57-1.77.66-.92.16-1.69.49-2.61.62-.2,0-.59,0-.71.18s-.14.28-.05.4.34.32,1.06.5c.89.22,2,.29,2.24.61s.22.81-.49.82a13.47,13.47,0,0,1-2-.35c-.51-.08-1-.3-1.58-.36a5.76,5.76,0,0,0-1.91.43c-.43.1-.91.25-1.44.37a3.48,3.48,0,0,0-1.19.3,8,8,0,0,0-.91.85c-.28.25-.66.49-.94.75-.76.7-1.38,1.43-1.91,1.93-1.71,1.57-3.39,3.25-5.19,4.81-.46.39-1.08.74-1.53,1.11s-.94.59-1.31.9-.84.55-1.22.87a9.33,9.33,0,0,1-1.21,1l-.28.15,0,.13c-.38,1.46-.33,3.5-.91,4.93.41,1.3,1.84.42,2.78,1.55,1.19-.53,1.8,0,3.54-.18.87-.08,2.84-.87,3.54-.34.14.1.6-.25.77-.18l1.41-.48c3.62-2.72,6.85-3.48,11-4.79a15.17,15.17,0,0,0,1.27-1.26,15.81,15.81,0,0,0,1.1-1.29,4,4,0,0,1,1.38-.71c.46-.07.2.27.72-.06s.9-.42.95.05c0,.06.17.06.35.07.49,0,.35.19.12.57-.1.16-2,1.74-.91,1.56a5,5,0,0,0,2.19-.9c1.23-.52,1.54.49.77,1a8.22,8.22,0,0,0-3.12,1.8,4.31,4.31,0,0,1-3.07,1.24.94.94,0,0,0-.52.16,8.25,8.25,0,0,1-.86.53c-1.69.82-4.26,4.49-7.07,6.5a27.91,27.91,0,0,1-5.12,2.12c.27,1.37.54,2.14-.73,2.23-1.56.1-3.11.8-4.85.52l-.59,1.13c-1.25,2.38-2.25,3.35-1.71,6a5.64,5.64,0,0,1-.63,4c-.25.47-.54,1.95-1,2.73.34,1.14.65,2.37.94,3.68a71.61,71.61,0,0,1-14,.95c-8.45,0-23.81-2.12-34.63-6l2.6-6a16.75,16.75,0,0,0,1.05-6.06c-.06-2.07,0-2.79-.08-4.82,0-1.81.07-4.25.13-6.13a16.26,16.26,0,0,0-.57-5.08c-.42-.62-.76-1.19-1.06-1.74-.58-.23-4.2-11.54-4.15-13.57-.12-.33-.35-.59-.43-.89-.14-.56-.05-1.05-.21-1.59-.39-1.38-.82-2.75-1.09-4.22a63.1,63.1,0,0,1-.58-7,25,25,0,0,0-.18-3.32c-.3-1.08-.05-2-.75-2.87-.45-.56-1.18-1.72-1.42-2.08a3.21,3.21,0,0,0-1-1,18.3,18.3,0,0,1-1.49-1.08,10.74,10.74,0,0,1-1.31-1,.71.71,0,0,1-.16-.6c.08-.29.36-.45.78-.25a5.18,5.18,0,0,1,1.16.77,5,5,0,0,0,1.39.82.4.4,0,0,0,.3-.07.57.57,0,0,0,.31-.53c0-.2-.25-.38-.41-.62-.33-.49-.86-1-1-1.19-.35-.54-1.1-1.15-1.16-1.76a.42.42,0,0,1,.17-.43.59.59,0,0,1,.69-.07,1.67,1.67,0,0,1,.69.64,8.87,8.87,0,0,0,1.38,1.87c.11.11.25.38.4.57a.22.22,0,0,0,.32,0c.05,0,.18-.09.2-.19a1.47,1.47,0,0,0-.12-.53,11.14,11.14,0,0,1-.5-1.15c-.18-.8-.31-1.18-.56-2-.09-.28-.23-.65,0-.92a.72.72,0,0,1,1,.07,12.58,12.58,0,0,1,.7,2,6.35,6.35,0,0,1,.34,1,7.88,7.88,0,0,0,.3.93c.11.27.5.3.51,0s-.15-1.07-.24-1.88c0-.22,0-.4,0-.59s-.14-.48-.15-.62c0-.68,0-1,.52-1s.65.46.74,1a7.78,7.78,0,0,0,.29,1.06,4.39,4.39,0,0,1,.17.67,6.8,6.8,0,0,1,.11.77,4.4,4.4,0,0,0,.23,1.35,5.36,5.36,0,0,0,.73,1.15c.43.48.94.9,1.69.53a1.63,1.63,0,0,0,.54-.49,3.07,3.07,0,0,1,.81-.57,1.41,1.41,0,0,1,1.31-.06,1.92,1.92,0,0,1,.72.54,1,1,0,0,1,.16.66c-.13.34-.6.19-1,.19a1.73,1.73,0,0,0-.67.23,1.92,1.92,0,0,0-.76,1A5.72,5.72,0,0,1,165,240a3.45,3.45,0,0,1-.54.84,2.12,2.12,0,0,0-.54.76,2.34,2.34,0,0,0-.06,1c0,.49.09,1.07.18,1.55.12.64.11,1.15.2,1.84.06.37.15,1,.2,1.45s.19.72.27,1.12a8.66,8.66,0,0,0,.55,1.89c.11.29.21.61.36,1s.24.88.36,1.22c.22.64.26,1.06.47,1.75a9.47,9.47,0,0,1,.45,2.15c0,.35.06.66.09,1.05a9.32,9.32,0,0,1,.09,1.29,9,9,0,0,0,.11,1.15.94.94,0,0,0,.29.6,6.71,6.71,0,0,1,1,1.3,12.8,12.8,0,0,1,1,1.93c.32.73.67,1.47,1.09,2.34a14,14,0,0,0,1.09,2.09,9,9,0,0,0,1.09,1.48.14.14,0,0,1,.18-.1,7.25,7.25,0,0,0,.94,1c.48.47,1.07,1,1.64,1.61a6.33,6.33,0,0,1,1.1-1.35,3.27,3.27,0,0,1-1.43.2l0-.1a3.5,3.5,0,0,0,.46-.14,1.91,1.91,0,0,0,.75-.52.49.49,0,0,1-.34,0,5.52,5.52,0,0,0,.69-.34c.19-.15.36-.3.56-.44a9.09,9.09,0,0,0,.77-.75l0,0c-.24,0-.44.28-.64.41s-.39.29-.59.45a2.66,2.66,0,0,1,1-1c.11-.07.27-.15.29-.2a.6.6,0,0,1-.16.08c-.27.09-.62.07-.88.17a3,3,0,0,0-.67.34,1.07,1.07,0,0,1,.47-.4,2.33,2.33,0,0,1,.64-.29,1.31,1.31,0,0,0,.57-.19c.13-.09.23-.22.37-.32l-.6.26a3.62,3.62,0,0,0,.75-.64c.21-.19.32-.54.59-.67-.22.08-.44.26-.67.34a1,1,0,0,1-.32.05,4,4,0,0,0,1.48-1.09c-.31.17-.27.13-.77.1a5.11,5.11,0,0,0,1.85-1.68,6.93,6.93,0,0,1,2.13-1.91,7.16,7.16,0,0,1,2.62-1,9.45,9.45,0,0,1,4,.35,23.33,23.33,0,0,1,2.42,1,3.62,3.62,0,0,0,1.28.4c-.47.06-.49.1-.74,0a1.54,1.54,0,0,1,.19.17,3.6,3.6,0,0,0,1.27.74l.11,0-.11,0a2.7,2.7,0,0,1-.41-.07c-.16-.05-.3-.13-.45-.18l0,0c.2.15.33.4.53.55a4.29,4.29,0,0,0,.84.58,6.25,6.25,0,0,1-.65-.22c.15.09.27.22.42.3a1.36,1.36,0,0,0,.62.15,1.66,1.66,0,0,1,1.18.69c-.88-.58-.82-.3-1.64-.51l-.18,0,.18.07a2.91,2.91,0,0,1,1.09,1.21,1.65,1.65,0,0,0-1.23-.55l.06.17a8.79,8.79,0,0,0,1.09,2.24c-.42-.26-.42-.19-.58-.57a5.76,5.76,0,0,0,.54,1.95.28.28,0,0,1,0,.12,1.8,1.8,0,0,0-.18-.25,8.31,8.31,0,0,1-.4-.78c.15.32,0,.75.09,1.08a4.69,4.69,0,0,0,.24,1.13c-.08-.15-.24-.42-.34-.64,0,1.61-.56,2.15-.68,3.56-.13.81-.24,1.41-.38,2-.24,1-.57,2.05-1.23,4.11-.11,1.07.12.72.34,1.21.3.68,2.72.28,3.16,0l1.89-1-.08-.1c-.76-.87-1.34-1.9-.49-2.12-.07-.48-.13-.95-.2-1.42-.42-3.59-.12-5.12,2-8,.38-.29.71-.63,1.11-.88a12.69,12.69,0,0,1,1.58-.85" transform="translate(-114.19 -124.13)"/><path class="cls-6" d="M139.74,292.33c.13-.33,0,0,.12-.26s.32-.63.45-1,0-.63.13-.92.49-.64.63-1a3.36,3.36,0,0,0,.19-1.33c0-.36.18-.76.17-1.17a10.64,10.64,0,0,0-.31-1.42c-.08-.56,0-1.16-.16-1.63a21.57,21.57,0,0,1-.32-2.38c.07-2.89,0-5.56-.07-8.47,0-1.06-2.13-2.57-2.92-2.75s-.69-.51-1.28-1c-.16-.14-.35-.13-.56-.21s-.24-.2-.42-.22-.46.15-.59.14-.15-.05-.31-.18.33-1,1.13-1.12c.61-.09,1.39.46,1.73.42a1.25,1.25,0,0,0,.86-1.57,4,4,0,0,0-.8-1.29,4.33,4.33,0,0,1-.39-.85,1.1,1.1,0,0,1-.16-.66c0-.31.3-.57.62-.46a.57.57,0,0,1,.27.13,3.88,3.88,0,0,1,.35.54c.09.15.24.23.35.37s.13.33.22.46a.93.93,0,0,0,.33.25c.22.14.29.06.51-.06s.08-.19,0-.59a8.66,8.66,0,0,1-.14-1.06,5.07,5.07,0,0,1,0-.55c0-.4-.06-.57,0-.79.16-.44.76-.88,1-.46a5.06,5.06,0,0,1,.17.93c0,.31.14.6.17.92s.07.35.08.52-.1.79.08.81.22-.14.3-.38,0-.5.13-.81.21-.53.3-.81,0-.38.1-.58a2.27,2.27,0,0,1,.34-.69.67.67,0,0,1,.93.21.62.62,0,0,1,0,.41,9.39,9.39,0,0,0-.31,1.47c0,.23-.12.42-.14.63s0,.49,0,.63c.49-.79,1.05-1.14,1.43-1.86a1.86,1.86,0,0,1,.68-.79c.38-.07.55,0,.64.31-.11.25.23-.2-.68,1.36-.21.36-.37.75-.51,1a2.78,2.78,0,0,0-.33.71c-.06.18-.07.34-.13.57v.05l-.56.83.38,2.3a3.91,3.91,0,0,0,0,1.27c.11.53.58,2.48.75,2.92v.06c1.16,5.47,2.95,7.34,3.33,14a7.41,7.41,0,0,1-.17,3.56c-.05.12.17.22.6.73a3,3,0,0,1,.78,2.56,4.43,4.43,0,0,1-1.2,3.33c-2.85-1.64-5.27-3.2-7.88-5" transform="translate(-114.19 -124.13)"/><g class="cls-9"><rect class="cls-10" x="80.13" y="25.06" width="90.67" height="95.68"/></g><g class="cls-11"><rect class="cls-12" x="157.13" y="3.39" width="13.42" height="16.03"/></g><g class="cls-13"><rect class="cls-14" x="76.81" y="3.39" width="68.77" height="91.07"/></g><g class="cls-15"><rect class="cls-16" x="21.75" y="22.8" width="68.66" height="91.79"/></g><path class="cls-17" d="M196.78,203.19a36.13,36.13,0,0,1-3.1-5.76A33.68,33.68,0,0,1,191,184.11c0-.43,0-.85,0-1.27s0-.72.06-1.08a32.68,32.68,0,0,1,2.6-11,33.89,33.89,0,0,1,5.27-8.54,34.19,34.19,0,0,1,3.08,5.65,33.37,33.37,0,0,1,2.68,13.4c0,.44,0,.87,0,1.3s0,.64-.05,1A33.19,33.19,0,0,1,202,194.55a34.78,34.78,0,0,1-5.25,8.64" transform="translate(-114.19 -124.13)"/><g class="cls-18"><rect class="cls-19" width="13.52" height="16.21"/></g></svg>