<?xml version="1.0" encoding="UTF-8" standalone="no"?>
<!-- Created with Inkscape (http://www.inkscape.org/) -->

<svg
   width="144.86012mm"
   height="21.590599mm"
   viewBox="0 0 144.86012 21.590599"
   version="1.1"
   id="svg1"
   inkscape:version="1.4 (e7c3feb100, 2024-10-09)"
   sodipodi:docname="periferico.svg"
   xmlns:inkscape="http://www.inkscape.org/namespaces/inkscape"
   xmlns:sodipodi="http://sodipodi.sourceforge.net/DTD/sodipodi-0.dtd"
   xmlns="http://www.w3.org/2000/svg"
   xmlns:svg="http://www.w3.org/2000/svg">
  <sodipodi:namedview
     id="namedview1"
     pagecolor="#ffffff"
     bordercolor="#000000"
     borderopacity="0.25"
     inkscape:showpageshadow="2"
     inkscape:pageopacity="0.0"
     inkscape:pagecheckerboard="0"
     inkscape:deskcolor="#d1d1d1"
     inkscape:document-units="mm"
     inkscape:zoom="0.64052329"
     inkscape:cx="305.9998"
     inkscape:cy="215.44884"
     inkscape:window-width="1629"
     inkscape:window-height="970"
     inkscape:window-x="0"
     inkscape:window-y="0"
     inkscape:window-maximized="1"
     inkscape:current-layer="layer1" />
  <defs
     id="defs1" />
  <g
     inkscape:label="Layer 1"
     inkscape:groupmode="layer"
     id="layer1"
     transform="translate(-23.836723,-91.44321)">
    <path
       id="path168"
       d="m 33.011567,98.551231 h -9.174844 v 14.157759 h 5.023046 v -5.6096 h 2.531584 c 0,0 7.069331,0.40505 7.069331,-4.78039 0,-2.674889 -2.672971,-3.767769 -5.449117,-3.767769 z m -0.263666,5.793029 c -0.120371,0.14139 -0.303791,0.20253 -0.464284,0.20253 h -3.423848 v -1.35655 h 3.423848 c 0.261757,0 0.506317,0.16049 0.626687,0.42415 0.101265,0.24266 0.04012,0.54645 -0.162403,0.72987 z m 21.977974,-0.95149 V 98.530213 H 39.372053 v 14.218907 h 15.353822 v -4.86064 H 44.213589 v -1.15402 h 6.299346 v -2.18767 h -6.299346 v -1.15402 z m 13.407842,2.55068 c 0,0 2.632848,-0.95149 2.632848,-3.62445 0,-2.674889 -2.672971,-3.767769 -5.449115,-3.767769 h -9.174844 v 14.157759 h 5.023045 v -5.6096 h 2.531585 c 0,0 1.276301,-0.10129 1.276301,0.82921 v 4.78039 h 5.934415 c 0,0 0.183421,-5.93441 -2.774235,-6.76554 z m -3.079934,-1.59919 c -0.12037,0.12037 -0.30379,0.20253 -0.464283,0.20253 h -3.423849 v -1.35655 H 64.5895 c 0.261756,0 0.506316,0.16049 0.626685,0.40505 0.101266,0.26176 0.04012,0.56555 -0.162402,0.74897 z m 12.600125,8.38575 V 98.530213 h -5.510256 v 14.199797 z m 16.993141,-9.33724 V 98.530213 H 79.293231 v 14.218907 h 4.841532 v -6.01466 h 6.299349 v -2.18767 h -6.299349 v -1.15402 z m 16.284771,0 V 98.530213 H 95.578004 v 14.218907 h 15.353816 v -4.86064 h -10.51228 v -1.15402 h 6.29935 v -2.18767 h -6.29935 v -1.15402 z m -3.78878,-8.750687 h -5.73188 l -0.99162,2.774234 h 3.17929 z m 17.2167,11.301367 c 0,0 2.63284,-0.95149 2.63284,-3.62445 0,-2.674889 -2.67298,-3.767769 -5.44912,-3.767769 h -9.17484 v 14.157759 h 5.02304 v -5.6096 h 2.53159 c 0,0 1.2763,-0.10129 1.2763,0.82921 v 4.78039 h 5.93442 c 0,0 0.18341,-5.93441 -2.77423,-6.76554 z m -3.07995,-1.59919 c -0.12037,0.12037 -0.30378,0.20253 -0.46427,0.20253 h -3.42386 v -1.35655 h 3.42386 c 0.26174,0 0.50631,0.16049 0.62668,0.40505 0.10129,0.26176 0.0401,0.56555 -0.16241,0.74897 z m 12.60014,8.38575 V 98.530213 h -5.51027 v 14.199797 z m 17.37765,-7.75907 v -2.47044 c 0,-1.13491 -0.44518,-2.24881 -1.2763,-3.058916 -0.81012,-0.810106 -1.90299,-1.276301 -3.05892,-1.276301 h -7.06742 c -1.15593,0 -2.26983,0.466195 -3.07993,1.276301 -0.81011,0.810106 -1.27631,1.924006 -1.25529,3.058916 v 6.17707 c -0.0211,1.15593 0.44518,2.26983 1.25529,3.07993 0.8101,0.8101 1.924,1.27631 3.07993,1.27631 h 7.06742 c 1.15593,0 2.2488,-0.46621 3.05892,-1.27631 0.83112,-0.8101 1.2763,-1.924 1.2763,-3.07993 v -2.47045 h -5.67075 v 0.91137 c 0,0.79101 -0.6286,1.41769 -1.41769,1.41769 h -1.56099 c -0.78908,0 -1.43678,-0.62668 -1.43678,-1.41769 v -3.03789 c 0,-0.38405 0.16239,-0.74897 0.42415,-1.01263 0.26366,-0.26368 0.6286,-0.42608 1.01263,-0.42608 h 1.56099 c 0.36302,0 0.72795,0.1624 1.01264,0.42608 0.26366,0.26366 0.40505,0.62858 0.40505,1.01263 v 0.89034 z m 13.08494,-6.845779 h -7.09034 c -1.17504,0 -2.26792,0.466193 -3.09905,1.2763 -0.8101,0.810109 -1.27629,1.924009 -1.25528,3.078029 v 6.19808 c -0.021,1.15593 0.44518,2.2488 1.25528,3.07993 0.83113,0.8101 1.94503,1.27631 3.09905,1.27631 h 7.09034 c 2.3902,0 4.35433,-1.96605 4.35433,-4.35624 v -6.19808 c 0,-2.40931 -1.96413,-4.354329 -4.35433,-4.354329 z m -1.33743,8.974229 c 0,0.78909 -0.64771,1.43679 -1.4387,1.43679 h -1.55909 c -0.78909,0 -1.4387,-0.6477 -1.4387,-1.43679 v -3.03981 c 0,-0.7891 0.64961,-1.4368 1.4387,-1.4368 h 1.55909 c 0.79099,0 1.4387,0.6477 1.4387,1.4368 z m 0,0"
       style="fill:#e85621;fill-opacity:1;fill-rule:nonzero;stroke:none;stroke-width:0.163041"
       aria-label="PERIFÉRICO" />
    <path
       id="path169"
       d="m 26.105118,91.546385 h -2.252632 v 3.475435 h 1.232357 v -1.377564 h 0.622864 c 0,0 1.734853,0.09935 1.734853,-1.173127 0,-0.655346 -0.657258,-0.924744 -1.337442,-0.924744 z m -0.06496,1.421508 c -0.03057,0.0363 -0.07451,0.04968 -0.114638,0.04968 h -0.840676 v -0.33245 h 0.840676 c 0.06497,0 0.124191,0.04012 0.154762,0.10508 0.02483,0.05923 0.0096,0.133744 -0.04012,0.177689 z M 30.47473,91.44321 h -1.738673 c -0.288505,0 -0.557904,0.112727 -0.762341,0.311433 -0.198706,0.200615 -0.313343,0.473836 -0.307611,0.756609 v 1.520862 c -0.0058,0.284684 0.108905,0.552172 0.307611,0.756609 0.204437,0.198706 0.477657,0.313343 0.762341,0.313343 h 1.738673 c 0.586564,0 1.069953,-0.483389 1.069953,-1.069952 v -1.520862 c 0,-0.592295 -0.483389,-1.068042 -1.069953,-1.068042 z m -0.328628,2.201046 c 0,0.194884 -0.158583,0.353466 -0.351555,0.353466 H 29.41051 c -0.192975,0 -0.351556,-0.158582 -0.351556,-0.353466 V 92.89911 c 0,-0.194884 0.158581,-0.353466 0.351556,-0.353466 h 0.384037 c 0.192972,0 0.351555,0.158582 0.351555,0.353466 z m 4.495712,-2.097871 h -2.699721 v 3.481166 h 2.699721 c 0.27322,0 0.542618,-0.110816 0.735593,-0.303789 0.194883,-0.198706 0.303789,-0.462373 0.303789,-0.735593 v -1.402402 c 0,-0.278952 -0.108906,-0.542619 -0.303789,-0.735593 -0.192975,-0.194884 -0.462373,-0.303789 -0.735593,-0.303789 z m -0.303791,2.178117 c 0,0.0898 -0.06878,0.158583 -0.158582,0.158583 h -1.133 V 92.68512 h 1.133004 c 0.08407,0 0.158582,0.06878 0.158582,0.158581 z m 5.549425,-0.601848 v -0.60567 c 0,-0.278952 -0.108906,-0.552172 -0.313343,-0.750877 C 39.375398,91.567401 39.106,91.452764 38.823226,91.452764 h -1.734851 c -0.282773,0 -0.557904,0.114637 -0.756609,0.313343 -0.198705,0.198705 -0.313344,0.471925 -0.307612,0.750877 v 1.51513 c -0.0058,0.284684 0.108907,0.557903 0.307612,0.756609 0.198705,0.198706 0.473836,0.313343 0.756609,0.313343 h 1.734851 c 0.282774,0 0.552172,-0.114637 0.750879,-0.313343 0.204437,-0.198706 0.313343,-0.471925 0.313343,-0.756609 v -0.605671 h -1.392849 v 0.223545 c 0,0.192973 -0.152851,0.347734 -0.347735,0.347734 h -0.382125 c -0.194886,0 -0.353467,-0.154761 -0.353467,-0.347734 v -0.745146 c 0,-0.09553 0.04012,-0.185331 0.10508,-0.250292 0.06497,-0.06305 0.15285,-0.103178 0.248382,-0.103178 h 0.382125 c 0.0898,0 0.1796,0.04012 0.248382,0.103178 0.06497,0.06496 0.09935,0.154761 0.09935,0.250292 v 0.217812 z m 2.873586,-1.536147 h -1.526593 l -1.291585,3.444866 h 1.411955 l 0.441356,-1.176948 h 0.397411 l 0.448998,1.176948 h 1.411955 z m -0.943851,1.700461 0.17769,-0.481479 0.185329,0.481479 z m 3.826992,-0.338181 c -0.137565,-0.02483 -0.09935,-0.238829 0.05159,-0.238829 h 0.655343 c 0.233095,0 0.21781,0.124191 0.21781,0.124191 h 1.436794 c 0,-1.266748 -0.630507,-1.352726 -1.241908,-1.387118 h -1.560985 c -0.282775,0 -0.552172,0.114638 -0.75661,0.313344 -0.198706,0.198706 -0.313343,0.471925 -0.307612,0.756609 v 0.24265 c -0.0058,0.343913 0.257935,0.632418 0.601849,0.670631 0.248382,0.03057 0.527332,0.0554 0.78527,0.08025 0.527333,0.04968 0.968688,0.08406 0.968688,0.08406 0.139476,0.02483 0.09935,0.244562 -0.04968,0.244562 h -0.655347 c -0.233095,0 -0.213991,-0.129924 -0.213991,-0.129924 H 44.1386 v 0.322897 c 0,0.586563 0.393591,1.064221 0.980154,1.064221 h 1.818919 c 0.592295,0 1.068042,-0.477658 1.068042,-1.064221 v -0.282773 c 0,-0.353467 -0.27322,-0.645793 -0.620955,-0.676363 -0.257934,-0.01911 -0.527335,-0.04012 -0.769984,-0.05923 -0.536887,-0.0344 -0.970599,-0.06497 -0.970599,-0.06497 z m 2.58651,-1.406224 v 1.192233 h 1.142557 v 2.287024 h 1.18841 v -2.287024 h 1.144468 v -1.192233 z m 0,0"
       style="fill:#e85621;fill-opacity:1;fill-rule:nonzero;stroke:none;stroke-width:0.163041"
       aria-label="podcast" />
  </g>
</svg>
