<svg width="104" height="20" viewBox="0 0 104 20" fill="none" xmlns="http://www.w3.org/2000/svg">
<path d="M45.33 6.519H47.021V7.716C47.287 7.31067 47.629 6.98767 48.047 6.747C48.4777 6.49367 48.9083 6.367 49.339 6.367H50.65C51.714 6.367 52.569 6.69633 53.215 7.355C53.8737 8.01367 54.203 8.88133 54.203 9.958V12.219C54.203 12.9917 54.051 13.6757 53.747 14.271C53.4557 14.8663 53.0377 15.3287 52.493 15.658C51.9483 15.9873 51.3213 16.152 50.612 16.152H49.282C48.902 16.152 48.503 16.0507 48.085 15.848C47.6797 15.6453 47.3503 15.3793 47.097 15.05V19.781H45.33V6.519ZM50.46 14.594C51.0553 14.594 51.5303 14.3723 51.885 13.929C52.2397 13.4857 52.417 12.8967 52.417 12.162V10.015C52.417 9.39433 52.2397 8.894 51.885 8.514C51.543 8.12133 51.087 7.925 50.517 7.925H49.244C48.7753 7.925 48.3383 8.10867 47.933 8.476C47.5403 8.84333 47.2617 9.32467 47.097 9.92V12.447C47.173 13.0803 47.4073 13.5997 47.8 14.005C48.2053 14.3977 48.6867 14.594 49.244 14.594H50.46ZM59.8064 16.152C58.6917 16.152 57.7924 15.8163 57.1084 15.145C56.437 14.4737 56.1014 13.5933 56.1014 12.504V10.034C56.1014 8.932 56.4434 8.04533 57.1274 7.374C57.8114 6.70267 58.717 6.367 59.8444 6.367H61.4404C62.5677 6.367 63.4734 6.70267 64.1574 7.374C64.8414 8.04533 65.1834 8.932 65.1834 10.034V12.504C65.1834 13.5933 64.835 14.4737 64.1384 15.145C63.4544 15.8163 62.5487 16.152 61.4214 16.152H59.8064ZM61.4024 14.594C62.0104 14.594 62.498 14.3977 62.8654 14.005C63.2327 13.6123 63.4164 13.0867 63.4164 12.428V10.091C63.4164 9.43233 63.2327 8.90667 62.8654 8.514C62.5107 8.12133 62.0357 7.925 61.4404 7.925H59.8444C59.249 7.925 58.7677 8.12133 58.4004 8.514C58.0457 8.90667 57.8684 9.43233 57.8684 10.091V12.428C57.8684 13.0867 58.0457 13.6123 58.4004 14.005C58.755 14.3977 59.23 14.594 59.8254 14.594H61.4024ZM78.0107 6.367C78.8847 6.367 79.5814 6.652 80.1007 7.222C80.6201 7.77933 80.8797 8.54567 80.8797 9.521V16H79.1127V9.502C79.1127 9.02067 78.9987 8.64067 78.7707 8.362C78.5427 8.07067 78.2451 7.925 77.8777 7.925H76.8897C76.4084 7.925 76.0031 8.096 75.6737 8.438C75.3571 8.76733 75.1544 9.22333 75.0657 9.806V16H73.2797V9.578C73.2797 9.05867 73.1721 8.65333 72.9567 8.362C72.7541 8.07067 72.4754 7.925 72.1207 7.925H71.1517C70.6704 7.925 70.2524 8.134 69.8977 8.552C69.5431 8.95733 69.3214 9.49567 69.2327 10.167V16H67.4657V6.519H69.1567V7.792C69.4101 7.34867 69.7204 7.00033 70.0877 6.747C70.4677 6.49367 70.8541 6.367 71.2467 6.367H72.3487C72.8554 6.367 73.2924 6.49367 73.6597 6.747C74.0397 7.00033 74.3374 7.36133 74.5527 7.83C74.8314 7.34867 75.1734 6.98767 75.5787 6.747C75.9841 6.49367 76.4211 6.367 76.8897 6.367H78.0107ZM87.4508 16.152C87.0328 16.152 86.6021 16.0253 86.1588 15.772C85.7154 15.506 85.3671 15.1767 85.1138 14.784V16H83.4228V2.7H85.1898V7.507C85.4684 7.165 85.8168 6.89267 86.2348 6.69C86.6528 6.47467 87.0708 6.367 87.4888 6.367H88.8378C89.5091 6.367 90.1044 6.519 90.6238 6.823C91.1558 7.127 91.5674 7.55133 91.8588 8.096C92.1501 8.64067 92.2958 9.274 92.2958 9.996V12.352C92.2958 13.0993 92.1438 13.7643 91.8398 14.347C91.5484 14.917 91.1368 15.3603 90.6048 15.677C90.0728 15.9937 89.4584 16.152 88.7618 16.152H87.4508ZM88.6478 14.594C89.2051 14.594 89.6548 14.385 89.9968 13.967C90.3388 13.5363 90.5098 12.9727 90.5098 12.276V10.053C90.5098 9.41967 90.3388 8.90667 89.9968 8.514C89.6674 8.12133 89.2368 7.925 88.7048 7.925H87.4698C86.8618 7.925 86.3424 8.14667 85.9118 8.59C85.4811 9.03333 85.2404 9.60967 85.1898 10.319V12.409C85.2404 13.017 85.4811 13.5363 85.9118 13.967C86.3424 14.385 86.8301 14.594 87.3748 14.594H88.6478ZM97.8991 16.152C96.7845 16.152 95.8851 15.8163 95.2011 15.145C94.5298 14.4737 94.1941 13.5933 94.1941 12.504V10.034C94.1941 8.932 94.5361 8.04533 95.2201 7.374C95.9041 6.70267 96.8098 6.367 97.9371 6.367H99.5331C100.66 6.367 101.566 6.70267 102.25 7.374C102.934 8.04533 103.276 8.932 103.276 10.034V12.504C103.276 13.5933 102.928 14.4737 102.231 15.145C101.547 15.8163 100.641 16.152 99.5141 16.152H97.8991ZM99.4951 14.594C100.103 14.594 100.591 14.3977 100.958 14.005C101.325 13.6123 101.509 13.0867 101.509 12.428V10.091C101.509 9.43233 101.325 8.90667 100.958 8.514C100.603 8.12133 100.128 7.925 99.5331 7.925H97.9371C97.3418 7.925 96.8605 8.12133 96.4931 8.514C96.1385 8.90667 95.9611 9.43233 95.9611 10.091V12.428C95.9611 13.0867 96.1385 13.6123 96.4931 14.005C96.8478 14.3977 97.3228 14.594 97.9181 14.594H99.4951Z" fill="black"/>
<g clip-path="url(#clip0_0_1)">
<path d="M26.7854 0H7.21459L0 20H2.08603L8.77504 1.91479H25.2282L31.0391 18.0852H26.7756V18.1235C25.6983 15.2481 23.6515 9.95692 22.5611 8.75379C21.0464 7.07835 19.8059 5.955 16.9559 5.89756C16.8939 5.89756 16.8351 5.89756 16.7731 5.89756C13.6881 5.89756 12.0951 7.48364 11.1288 8.52721C10.5509 9.1527 10.0449 10.375 9.66952 11.243C9.37571 11.9228 8.22986 12.9536 7.83485 13.6493C7.41699 14.3865 7.24071 15.8736 7.24071 15.8736L11.7196 15.9055L10.3747 19.9936H12.4346L13.0646 18.0788L13.5869 16.4895L14.4031 14.0099L11.7392 13.9907L10.0286 13.978C10.0874 13.911 10.1429 13.8471 10.1918 13.7897C10.6913 13.2153 11.2071 12.6249 11.4813 11.9802L11.5434 11.8366C11.7947 11.2494 12.2648 10.1548 12.588 9.80373C13.5217 8.79209 14.6153 7.80597 16.7796 7.80597C16.8253 7.80597 16.8743 7.80597 16.92 7.80597C18.9375 7.84746 19.7047 8.47614 21.0986 10.0144C21.2945 10.2314 22.0127 11.2781 23.9257 16.1353L24.0171 16.3715C24.2228 16.8948 24.4415 17.4629 24.6733 18.0756L25.411 19.9904H34.0098L26.7854 0Z" fill="#EE7749"/>
<path d="M16.3716 9.92505C15.6436 9.92505 15.0527 10.5027 15.0527 11.2143C15.0527 11.926 15.6436 12.5036 16.3716 12.5036C17.0996 12.5036 17.6905 11.926 17.6905 11.2143C17.6905 10.5027 17.0996 9.92505 16.3716 9.92505Z" fill="#EE7749"/>
</g>
<defs>
<clipPath id="clip0_0_1">
<rect width="34" height="20" fill="white"/>
</clipPath>
</defs>
</svg>
