<?xml version="1.0" encoding="UTF-8"?>
<svg id="Layer_2" data-name="Layer 2" xmlns="http://www.w3.org/2000/svg" viewBox="0 0 1678.56 1100.08">
  <defs>
    <style>
      .cls-1 {
        fill: #330BBF;
        stroke-width: 0px;
      }
    </style>
  </defs>
  <g id="Layer_1-2" data-name="Layer 1">
    <g id="SEI_-_FILL" data-name="SEI - FILL">
      <g>
        <path class="cls-1" d="M640.57,368.19c-5.36,0-10.45,1.13-15.06,3.15L323.41,51.09h44.92l203.37,215.59c-2.93,5.36-4.59,11.51-4.59,18.04,0,20.83,16.89,37.72,37.72,37.72s37.72-16.89,37.72-37.72-16.89-37.72-37.72-37.72c-4.46,0-8.72.82-12.7,2.24L405.22,51.09h45.03l98.37,104.28c-2.95,5.38-4.64,11.55-4.64,18.12,0,20.83,16.89,37.72,37.72,37.72s37.72-16.89,37.72-37.72-16.89-37.72-37.72-37.72c-4.43,0-8.66.8-12.61,2.21-35.76-37.9-71.52-75.8-107.28-113.71-59.41,0-118.81,0-178.22-.01-53.2,56.32-106.41,112.63-159.61,168.95v118.93l-51.75-54.86c2.04-4.64,3.19-9.76,3.19-15.16,0-20.83-16.89-37.72-37.72-37.72S0,221.3,0,242.13s16.89,37.72,37.72,37.72c5.6,0,10.9-1.25,15.68-3.45l481.25,510.16v158.85h-28.41v-140c-132.73-140.72-265.46-281.43-398.19-422.15,3.24-5.56,5.12-12.01,5.12-18.91,0-20.83-16.89-37.72-37.72-37.72s-37.72,16.89-37.72,37.72,16.89,37.72,37.72,37.72c4.09,0,8.01-.67,11.7-1.87l392.27,415.83v45.76L130.86,492.31c2.5-5.04,3.95-10.71,3.95-16.72,0-20.83-16.89-37.72-37.72-37.72s-37.72,16.89-37.72,37.72,16.89,37.72,37.72,37.72c4.99,0,9.75-.99,14.11-2.75l368.22,390.33v44.52h-208.22v-59.01c14.13-5.45,24.17-19.12,24.17-35.17,0-20.83-16.89-37.72-37.72-37.72s-37.72,16.89-37.72,37.72c0,16.15,10.17,29.89,24.44,35.27v58.91h-41.82v-117.82c14.2-5.41,24.31-19.12,24.31-35.22,0-20.83-16.89-37.72-37.72-37.72s-37.72,16.89-37.72,37.72c0,16.1,10.11,29.81,24.31,35.22v117.82h-38.75v-178.94c14.2-5.41,24.31-19.12,24.31-35.22,0-20.83-16.89-37.72-37.72-37.72s-37.72,16.89-37.72,37.72c0,16.1,10.11,29.81,24.31,35.22v195.54c74.82,45.29,149.64,90.59,224.46,135.88,52.61,0,105.22,0,157.83,0,41.64-44.05,83.28-88.11,124.92-132.16,0-81.24,0-162.47,0-243.71-104.84-111.14-209.68-222.29-314.52-333.43v-178.49l66.91-70.83,236.63,250.84c-2.22,4.81-3.5,10.14-3.5,15.79,0,20.83,16.89,37.72,37.72,37.72s37.72-16.89,37.72-37.72-16.89-37.72-37.72-37.72ZM604.84,262.92c12.04,0,21.8,9.76,21.8,21.8s-9.76,21.8-21.8,21.8-21.8-9.76-21.8-21.8,9.76-21.8,21.8-21.8ZM581.72,151.7c12.04,0,21.8,9.76,21.8,21.8s-9.76,21.8-21.8,21.8-21.8-9.76-21.8-21.8,9.76-21.8,21.8-21.8ZM37.72,263.93c-12.04,0-21.8-9.76-21.8-21.8s9.76-21.8,21.8-21.8,21.8,9.76,21.8,21.8-9.76,21.8-21.8,21.8ZM75.44,386.15c-12.04,0-21.8-9.76-21.8-21.8s9.76-21.8,21.8-21.8,21.8,9.76,21.8,21.8-9.76,21.8-21.8,21.8ZM97.09,497.39c-12.04,0-21.8-9.76-21.8-21.8s9.76-21.8,21.8-21.8,21.8,9.76,21.8,21.8-9.76,21.8-21.8,21.8ZM101.74,731.26c0-12.04,9.76-21.8,21.8-21.8s21.8,9.76,21.8,21.8-9.76,21.8-21.8,21.8-21.8-9.76-21.8-21.8ZM197.88,202.24v188.23l-47.05-49.88v-136.71L290.84,55.66l22.74,24.1c-38.56,40.82-77.13,81.65-115.69,122.47ZM235.84,851.24c0-12.04,9.76-21.8,21.8-21.8s21.8,9.76,21.8,21.8-9.76,21.8-21.8,21.8-21.8-9.76-21.8-21.8ZM167.33,792.38c0-12.04,9.76-21.8,21.8-21.8s21.8,9.76,21.8,21.8-9.76,21.8-21.8,21.8-21.8-9.76-21.8-21.8ZM480.86,1071.08h-138.79l-59.69-36.13h232.63l-34.15,36.13ZM540.37,1008.11H238.06l-59.24-35.86h395.45l-33.9,35.86ZM275.99,199.44c0,66.61,0,133.22,0,199.83,104.84,111.14,209.68,222.27,314.52,333.41v212.74h-29.02v-169.51c-112.26-119-224.51-238-336.77-357v-206l107.3-113.6,19.26,20.42-75.29,79.71ZM640.57,427.71c-12.04,0-21.8-9.76-21.8-21.8s9.76-21.8,21.8-21.8,21.8,9.76,21.8,21.8-9.76,21.8-21.8,21.8Z"/>
        <g>
          <path class="cls-1" d="M1202.43,695.44c-20.83,0-37.72,16.89-37.72,37.72,0,5.5,1.21,10.71,3.32,15.43l-232.09,232.09-59.34-59.34v-285.13h79.22c5.19,14.63,19.11,25.12,35.52,25.12,20.83,0,37.72-16.89,37.72-37.72s-16.89-37.72-37.72-37.72c-15.8,0-29.31,9.72-34.92,23.49h-79.81v-37.57h152.75c5.15,14.7,19.11,25.26,35.57,25.26,20.83,0,37.72-16.89,37.72-37.72s-16.89-37.72-37.72-37.72c-15.74,0-29.22,9.65-34.87,23.35h-153.45v-35.85h231.75c5.41,14.2,19.12,24.31,35.22,24.31,20.83,0,37.72-16.89,37.72-37.72s-16.89-37.72-37.72-37.72c-16.1,0-29.81,10.11-35.22,24.31h-231.75v-67.39l56.58-61.65-19.77-18.14-215.75,235.12c0,122.45,0,244.9,0,367.35,46.9,46.9,93.79,93.8,140.69,140.7,0,0,0,0,0,0l18.97,18.97c59.55,0,119.1,0,178.65,0,34.94-34.94,69.88-69.88,104.82-104.83,4.83,2.24,10.19,3.53,15.86,3.53,20.83,0,37.72-16.89,37.72-37.72s-16.89-37.72-37.72-37.72-37.72,16.89-37.72,37.72c0,5.33,1.12,10.39,3.11,14.99l-97.19,97.19h-45.14l181.68-181.68c4.95,2.38,10.47,3.76,16.33,3.76,20.83,0,37.72-16.89,37.72-37.72s-16.89-37.72-37.72-37.72-37.72,16.89-37.72,37.72c0,5.14,1.04,10.04,2.9,14.51l-201.13,201.13h-57.62l12.26-12.26c6.32-6.32,12.65-12.65,18.97-18.97l271.63-271.63c4.71,2.12,9.92,3.32,15.43,3.32,20.83,0,37.72-16.89,37.72-37.72s-16.89-37.72-37.72-37.72ZM991.34,601.8c12.04,0,21.8,9.76,21.8,21.8s-9.76,21.8-21.8,21.8-21.8-9.76-21.8-21.8,9.76-21.8,21.8-21.8ZM1064.92,537.55c12.04,0,21.8,9.76,21.8,21.8s-9.76,21.8-21.8,21.8-21.8-9.76-21.8-21.8,9.76-21.8,21.8-21.8ZM1143.57,473.92c12.04,0,21.8,9.76,21.8,21.8s-9.76,21.8-21.8,21.8-21.8-9.76-21.8-21.8,9.76-21.8,21.8-21.8ZM1177.71,832.99c12.04,0,21.8,9.76,21.8,21.8s-9.76,21.8-21.8,21.8-21.8-9.76-21.8-21.8,9.76-21.8,21.8-21.8ZM1156.64,936.44c12.04,0,21.8,9.76,21.8,21.8s-9.76,21.8-21.8,21.8-21.8-9.76-21.8-21.8,9.76-21.8,21.8-21.8ZM857.32,1059.3l-132.83-132.83v-345.8l46.21-50.36v402.14h.01,0s106.72,106.73,106.72,106.73l-20.11,20.11ZM797.53,921.35v-420.27l52.24-56.93v488.31l67.2,67.2-20.56,20.56-98.87-98.87ZM1202.43,754.97c-12.04,0-21.8-9.76-21.8-21.8s9.76-21.8,21.8-21.8,21.8,9.76,21.8,21.8-9.76,21.8-21.8,21.8Z"/>
          <path class="cls-1" d="M716.2,486.98l121.85-132.79h.3v-.33l50.33-54.85-19.77-18.14-29.75,32.42v-136.16h330.59c5.41,14.2,19.12,24.31,35.22,24.31,20.83,0,37.72-16.89,37.72-37.72s-16.89-37.72-37.72-37.72c-16.1,0-29.81,10.11-35.22,24.31h-428.74l31.55-34.38h296.44c5.41,14.2,19.12,24.31,35.22,24.31,20.83,0,37.72-16.89,37.72-37.72s-16.89-37.72-37.72-37.72c-16.1,0-29.81,10.11-35.22,24.31h-271.82l35.09-38.24h134.19c5.34,14.35,19.12,24.6,35.33,24.6,20.83,0,37.72-16.89,37.72-37.72S1022.63,0,1001.79,0c-15.99,0-29.62,9.97-35.11,24.01-48.73,0-97.46,0-146.19.01-41.48,45.2-82.96,90.39-124.44,135.59.24,106.04.36,212.08.38,318.14,0,3.11,0,27.67,0,30.78,6.59-7.19,13.18-14.37,19.77-21.55ZM1204.98,141.91c12.04,0,21.8,9.76,21.8,21.8s-9.76,21.8-21.8,21.8-21.8-9.76-21.8-21.8,9.76-21.8,21.8-21.8ZM1104.23,80.7c12.04,0,21.8,9.76,21.8,21.8s-9.76,21.8-21.8,21.8-21.8-9.76-21.8-21.8,9.76-21.8,21.8-21.8ZM1001.79,15.92c12.04,0,21.8,9.76,21.8,21.8s-9.76,21.8-21.8,21.8-21.8-9.76-21.8-21.8,9.76-21.8,21.8-21.8ZM722.89,177.12h30.47v229.68l-30.47,33.2V177.12ZM811.52,343.41l-31.34,34.15v-200.44h31.34v166.29Z"/>
        </g>
        <g>
          <path class="cls-1" d="M1649.75,882.04c-15.91,0-28.81,12.9-28.81,28.81,0,2.05.22,4.04.63,5.97l-73.91,69.47-32.61-32.49,71.75-67.44c3.8,1.85,8.05,2.92,12.57,2.92,15.91,0,28.81-12.9,28.81-28.81s-12.9-28.81-28.81-28.81-28.81,12.9-28.81,28.81c0,1.38.13,2.72.32,4.04l-74.84,70.35-10.31-10.27v-502.8c14.2-5.41,24.31-19.12,24.31-35.22,0-20.83-16.89-37.72-37.72-37.72s-37.72,16.89-37.72,37.72c0,16.1,10.11,29.81,24.31,35.22v512.74c5.86,6.24,11.72,12.48,17.58,18.72l-19.18,18.03-50.49-50.3v-451.95c15.04-4.96,25.9-19.1,25.9-35.8,0-20.83-16.89-37.72-37.72-37.72s-37.72,16.89-37.72,37.72c0,15.5,9.35,28.8,22.71,34.6v464.3c19.25,19.18,38.51,38.36,57.76,57.54l-23.07,21.69-83.44-83.12v-409.5c14.2-5.41,24.31-19.12,24.31-35.22,0-20.83-16.89-37.72-37.72-37.72s-37.72,16.89-37.72,37.72c0,16.1,10.11,29.81,24.31,35.22v420.64c53.78,53.57,107.55,107.15,161.33,160.72,57.68-54.2,115.37-108.4,173.05-162.6,3.39,1.4,7.09,2.18,10.99,2.18,15.91,0,28.81-12.9,28.81-28.81s-12.9-28.81-28.81-28.81ZM1599.36,847.6c7.11,0,12.87,5.76,12.87,12.87s-5.76,12.87-12.87,12.87-12.87-5.76-12.87-12.87,5.76-12.87,12.87-12.87ZM1450.5,386.56c0-12.04,9.76-21.8,21.8-21.8s21.8,9.76,21.8,21.8-9.76,21.8-21.8,21.8-21.8-9.76-21.8-21.8ZM1373.17,433.22c0-12.04,9.76-21.8,21.8-21.8s21.8,9.76,21.8,21.8-9.76,21.8-21.8,21.8-21.8-9.76-21.8-21.8ZM1495.48,972.19l32.61,32.49-19.18,18.03-32.61-32.49,19.18-18.03ZM1456.74,1008.61l32.61,32.49-23.07,21.69-32.61-32.49,23.07-21.69ZM1295.99,483.5c0-12.04,9.76-21.8,21.8-21.8s21.8,9.76,21.8,21.8-9.76,21.8-21.8,21.8-21.8-9.76-21.8-21.8ZM1649.75,923.72c-7.11,0-12.87-5.76-12.87-12.87s5.76-12.87,12.87-12.87,12.87,5.76,12.87,12.87-5.76,12.87-12.87,12.87Z"/>
          <path class="cls-1" d="M1302.84,365.05c6.5-6.32,13-12.64,19.5-18.97l164.77-160.27c0-54.33,0-108.65,0-162.98h-88.86v133.46h-35.67v-58.64c14.2-5.41,24.31-19.12,24.31-35.22,0-20.83-16.89-37.72-37.72-37.72s-37.72,16.89-37.72,37.72c0,16.1,10.11,29.81,24.31,35.22v58.64h-33.44v26.83h.54v181.92ZM1327.36,62.43c0-12.04,9.76-21.8,21.8-21.8s21.8,9.76,21.8,21.8-9.76,21.8-21.8,21.8-21.8-9.76-21.8-21.8ZM1460.27,49.66v124.82l-35.2,34.24V49.66h35.2ZM1398.24,183.12v51.7l-68.57,66.7v-118.4h68.57Z"/>
        </g>
      </g>
    </g>
  </g>
</svg>