<svg xmlns="http://www.w3.org/2000/svg" version="1.1" xmlns:xlink="http://www.w3.org/1999/xlink" xmlns:svgjs="http://svgjs.dev/svgjs" width="1000" height="1000"><g clip-path="url(#SvgjsClipPath1356)"><rect width="1000" height="1000" fill="#ffffff"></rect><g transform="matrix(23.529411764705884,0,0,23.529411764705884,147.0588235294117,100)"><svg xmlns="http://www.w3.org/2000/svg" version="1.1" xmlns:xlink="http://www.w3.org/1999/xlink" xmlns:svgjs="http://svgjs.dev/svgjs" width="30" height="34"><svg width="30" height="34" viewBox="0 0 30 34" fill="none" xmlns="http://www.w3.org/2000/svg">
    <path d="M9.46108 19.3693L5.1497 16.8815V11.9059L14.6108 17.3554V22.331L9.46108 19.3693ZM10.6587 2.4878L14.9701 0L29.5808 8.29268L15.0299 16.6446L5.56886 11.2544L9.88024 8.76655L15.0299 11.669L20.9581 8.29268L10.6587 2.4878ZM9.88024 2.90244L19.3413 8.29268L15.0299 10.7805L9.88024 7.87805L4.73054 10.7805L0.419162 8.29268L9.88024 2.90244ZM0 9.00348L4.31138 11.4913V17.3554L9.46108 20.2578V25.2334L0 19.784V9.00348ZM0 20.7317L10.2395 26.5958V20.7317L14.5509 23.2195V34L0 25.6481V20.7317ZM15.3892 34V23.2195L24.8503 17.8293V22.8049L19.7006 25.7073V31.5714L15.3892 34ZM30 25.6481L20.5389 31.0383V26.122L30 20.7317V25.6481ZM25.6886 22.2718V17.77L29.6407 20.0209L25.6886 22.2718ZM30 13.9791L15.3892 22.2718V17.2962L30 8.94425V13.9791Z" fill="#ED8661"></path>
</svg></svg></g></g><defs><clipPath id="SvgjsClipPath1356"><rect width="1000" height="1000" x="0" y="0" rx="300" ry="300"></rect></clipPath></defs></svg>