<svg width="31" height="33" viewBox="0 0 31 33" fill="none" xmlns="http://www.w3.org/2000/svg">
<path d="M0.353027 32.2154V29.9705H4.35943V0.762695H20.7019V2.72066H26.8257V29.9705H30.8012V32.2154H24.5813V4.96832H20.6949V32.2154H0.353027ZM14.4826 18.1364C14.9463 18.1364 15.3354 17.978 15.6497 17.6611C15.9644 17.3443 16.1218 16.958 16.1218 16.5024C16.1218 16.0468 15.9652 15.6597 15.6521 15.3413C15.3393 15.0229 14.9512 14.8636 14.4877 14.8636C14.0321 14.8636 13.6451 15.0221 13.3266 15.3389C13.0082 15.6558 12.849 16.0421 12.849 16.4977C12.849 16.9533 13.0074 17.3404 13.3243 17.6588C13.6408 17.9772 14.0269 18.1364 14.4826 18.1364ZM6.60428 29.9705H18.4505V3.00707H6.60428V29.9705Z" fill="#ED7950"/>
</svg>
