<svg width="393" height="670" viewBox="0 0 393 670" fill="none" xmlns="http://www.w3.org/2000/svg">
    <mask id="path-1-inside-1_4402_460" fill="white">
        <path
            d="M465.749 324.794L429.591 303.925V262.187L508.937 307.901V349.639L465.749 324.794ZM475.792 183.183L511.95 162.314L634.485 231.878L512.452 301.938L433.106 256.722L469.264 235.853L512.452 260.2L562.169 231.878L475.792 183.183ZM469.264 186.661L548.61 231.878L512.452 252.747L469.264 228.399L426.076 252.747L389.918 231.878L469.264 186.661ZM386.403 237.84L422.56 258.709V307.901L465.749 332.248V373.986L386.403 328.273V237.84ZM386.403 336.223L472.277 385.414V336.223L508.435 357.092V447.524L386.403 377.464V336.223ZM515.466 447.524V357.092L594.812 311.875V353.614L551.623 377.961V427.152L515.466 447.524ZM638 377.464L558.654 422.68V381.439L638 336.223V377.464ZM601.842 349.142V311.379L634.987 330.26L601.842 349.142ZM638 279.578L515.466 349.142V307.404L638 237.343V279.578Z" />
        <path
            d="M79.3461 103.481L43.1884 82.6115V40.8734L122.534 86.5865V128.325L79.3461 103.481ZM89.3899 -38.1309L125.548 -59L248.082 10.5635L126.05 80.6239L46.7037 35.4077L82.8614 14.5386L126.05 38.8858L175.767 10.5635L89.3899 -38.1309ZM82.8614 -34.6527L162.208 10.5635L126.05 31.4326L82.8614 7.08539L39.673 31.4326L3.51533 10.5635L82.8614 -34.6527ZM0 16.5261L36.1577 37.3952V86.5865L79.3461 110.934V152.672L0 106.959V16.5261ZM0 114.909L85.8746 164.1V114.909L122.032 135.778V226.21L0 156.15V114.909ZM129.063 226.21V135.778L208.409 90.5616V132.3L165.221 156.647V205.838L129.063 226.21ZM251.597 156.15L172.251 201.366V160.125L251.597 114.909V156.15ZM215.44 127.828V90.0647L248.584 108.946L215.44 127.828ZM251.597 58.2642L129.063 127.828V86.0896L251.597 16.0292V58.2642Z" />
        <path
            d="M336.754 103.481L300.596 82.6115V40.8734L379.942 86.5865V128.325L336.754 103.481ZM346.798 -38.1309L382.956 -59L505.49 10.5635L383.458 80.6239L304.112 35.4077L340.269 14.5386L383.458 38.8858L433.175 10.5635L346.798 -38.1309ZM340.269 -34.6527L419.616 10.5635L383.458 31.4326L340.269 7.08539L297.081 31.4326L260.923 10.5635L340.269 -34.6527ZM257.408 16.5261L293.566 37.3952V86.5865L336.754 110.934V152.672L257.408 106.959V16.5261ZM257.408 114.909L343.283 164.1V114.909L379.44 135.778V226.21L257.408 156.15V114.909ZM386.471 226.21V135.778L465.817 90.5616V132.3L422.629 156.647V205.838L386.471 226.21ZM509.005 156.15L429.659 201.366V160.125L509.005 114.909V156.15ZM472.848 127.828V90.0647L505.992 108.946L472.848 127.828ZM509.005 58.2642L386.471 127.828V86.0896L509.005 16.0292V58.2642Z" />
        <path
            d="M208.341 325.375L172.183 304.506V262.768L251.529 308.481V350.219L208.341 325.375ZM218.384 183.764L254.542 162.895L377.077 232.458L255.044 302.519L175.698 257.302L211.856 236.433L255.044 260.781L304.761 232.458L218.384 183.764ZM211.856 187.242L291.202 232.458L255.044 253.327L211.856 228.98L168.668 253.327L132.51 232.458L211.856 187.242ZM128.995 238.421L165.152 259.29V308.481L208.341 332.829V374.567L128.995 328.854V238.421ZM128.995 336.804L214.869 385.995V336.804L251.027 357.673V448.105L128.995 378.045V336.804ZM258.057 448.105V357.673L337.404 312.456V354.195L294.215 378.542V427.733L258.057 448.105ZM380.592 378.045L301.246 423.261V382.02L380.592 336.804V378.045ZM344.434 349.723V311.96L377.579 330.841L344.434 349.723ZM380.592 280.159L258.057 349.723V307.984L380.592 237.924V280.159Z" />
        <path
            d="M336.754 547.27L300.596 526.401V484.663L379.942 530.376V572.114L336.754 547.27ZM346.798 405.659L382.956 384.79L505.49 454.353L383.458 524.414L304.112 479.197L340.269 458.328L383.458 482.676L433.175 454.353L346.798 405.659ZM340.269 409.137L419.616 454.353L383.458 475.222L340.269 450.875L297.081 475.222L260.923 454.353L340.269 409.137ZM257.408 460.316L293.566 481.185V530.376L336.754 554.723V596.461L257.408 550.748V460.316ZM257.408 558.698L343.283 607.89V558.698L379.44 579.568V670L257.408 599.94V558.698ZM386.471 670V579.568L465.817 534.351V576.089L422.629 600.437V649.628L386.471 670ZM509.005 599.94L429.659 645.156V603.915L509.005 558.698V599.94ZM472.848 571.617V533.854L505.992 552.736L472.848 571.617ZM509.005 502.054L386.471 571.617V529.879L509.005 459.819V502.054Z" />
        <path
            d="M208.409 -116.645L172.251 -137.514V-179.252L251.597 -133.538V-91.8004L208.409 -116.645ZM218.453 -258.256L254.611 -279.125L377.145 -209.561L255.113 -139.501L175.767 -184.717L211.924 -205.586L255.113 -181.239L304.83 -209.561L218.453 -258.256ZM211.924 -254.778L291.27 -209.561L255.113 -188.692L211.924 -213.04L168.736 -188.692L132.578 -209.561L211.924 -254.778ZM129.063 -203.599L165.221 -182.73V-133.538L208.409 -109.191V-67.4532L129.063 -113.166V-203.599ZM129.063 -105.216L214.938 -56.0249V-105.216L251.095 -84.3472V6.08539L129.063 -63.975V-105.216ZM258.126 6.08539V-84.3472L337.472 -129.563V-87.8253L294.284 -63.4781V-14.2868L258.126 6.08539ZM380.66 -63.975L301.314 -18.7587V-59.9999L380.66 -105.216V-63.975ZM344.503 -92.2973V-130.06L377.647 -111.179L344.503 -92.2973ZM380.66 -161.861L258.126 -92.2973V-134.035L380.66 -204.096V-161.861Z" />
    </mask>
    <path
        d="M465.749 324.794L429.591 303.925V262.187L508.937 307.901V349.639L465.749 324.794ZM475.792 183.183L511.95 162.314L634.485 231.878L512.452 301.938L433.106 256.722L469.264 235.853L512.452 260.2L562.169 231.878L475.792 183.183ZM469.264 186.661L548.61 231.878L512.452 252.747L469.264 228.399L426.076 252.747L389.918 231.878L469.264 186.661ZM386.403 237.84L422.56 258.709V307.901L465.749 332.248V373.986L386.403 328.273V237.84ZM386.403 336.223L472.277 385.414V336.223L508.435 357.092V447.524L386.403 377.464V336.223ZM515.466 447.524V357.092L594.812 311.875V353.614L551.623 377.961V427.152L515.466 447.524ZM638 377.464L558.654 422.68V381.439L638 336.223V377.464ZM601.842 349.142V311.379L634.987 330.26L601.842 349.142ZM638 279.578L515.466 349.142V307.404L638 237.343V279.578Z"
        stroke="url(#paint0_radial_4402_460)" stroke-opacity="0.5" stroke-width="4"
        mask="url(#path-1-inside-1_4402_460)" />
    <path
        d="M79.3461 103.481L43.1884 82.6115V40.8734L122.534 86.5865V128.325L79.3461 103.481ZM89.3899 -38.1309L125.548 -59L248.082 10.5635L126.05 80.6239L46.7037 35.4077L82.8614 14.5386L126.05 38.8858L175.767 10.5635L89.3899 -38.1309ZM82.8614 -34.6527L162.208 10.5635L126.05 31.4326L82.8614 7.08539L39.673 31.4326L3.51533 10.5635L82.8614 -34.6527ZM0 16.5261L36.1577 37.3952V86.5865L79.3461 110.934V152.672L0 106.959V16.5261ZM0 114.909L85.8746 164.1V114.909L122.032 135.778V226.21L0 156.15V114.909ZM129.063 226.21V135.778L208.409 90.5616V132.3L165.221 156.647V205.838L129.063 226.21ZM251.597 156.15L172.251 201.366V160.125L251.597 114.909V156.15ZM215.44 127.828V90.0647L248.584 108.946L215.44 127.828ZM251.597 58.2642L129.063 127.828V86.0896L251.597 16.0292V58.2642Z"
        stroke="url(#paint1_radial_4402_460)" stroke-opacity="0.5" stroke-width="4"
        mask="url(#path-1-inside-1_4402_460)" />
    <path
        d="M336.754 103.481L300.596 82.6115V40.8734L379.942 86.5865V128.325L336.754 103.481ZM346.798 -38.1309L382.956 -59L505.49 10.5635L383.458 80.6239L304.112 35.4077L340.269 14.5386L383.458 38.8858L433.175 10.5635L346.798 -38.1309ZM340.269 -34.6527L419.616 10.5635L383.458 31.4326L340.269 7.08539L297.081 31.4326L260.923 10.5635L340.269 -34.6527ZM257.408 16.5261L293.566 37.3952V86.5865L336.754 110.934V152.672L257.408 106.959V16.5261ZM257.408 114.909L343.283 164.1V114.909L379.44 135.778V226.21L257.408 156.15V114.909ZM386.471 226.21V135.778L465.817 90.5616V132.3L422.629 156.647V205.838L386.471 226.21ZM509.005 156.15L429.659 201.366V160.125L509.005 114.909V156.15ZM472.848 127.828V90.0647L505.992 108.946L472.848 127.828ZM509.005 58.2642L386.471 127.828V86.0896L509.005 16.0292V58.2642Z"
        stroke="url(#paint2_radial_4402_460)" stroke-opacity="0.5" stroke-width="4"
        mask="url(#path-1-inside-1_4402_460)" />
    <path
        d="M208.341 325.375L172.183 304.506V262.768L251.529 308.481V350.219L208.341 325.375ZM218.384 183.764L254.542 162.895L377.077 232.458L255.044 302.519L175.698 257.302L211.856 236.433L255.044 260.781L304.761 232.458L218.384 183.764ZM211.856 187.242L291.202 232.458L255.044 253.327L211.856 228.98L168.668 253.327L132.51 232.458L211.856 187.242ZM128.995 238.421L165.152 259.29V308.481L208.341 332.829V374.567L128.995 328.854V238.421ZM128.995 336.804L214.869 385.995V336.804L251.027 357.673V448.105L128.995 378.045V336.804ZM258.057 448.105V357.673L337.404 312.456V354.195L294.215 378.542V427.733L258.057 448.105ZM380.592 378.045L301.246 423.261V382.02L380.592 336.804V378.045ZM344.434 349.723V311.96L377.579 330.841L344.434 349.723ZM380.592 280.159L258.057 349.723V307.984L380.592 237.924V280.159Z"
        stroke="url(#paint3_radial_4402_460)" stroke-opacity="0.5" stroke-width="4"
        mask="url(#path-1-inside-1_4402_460)" />
    <path
        d="M336.754 547.27L300.596 526.401V484.663L379.942 530.376V572.114L336.754 547.27ZM346.798 405.659L382.956 384.79L505.49 454.353L383.458 524.414L304.112 479.197L340.269 458.328L383.458 482.676L433.175 454.353L346.798 405.659ZM340.269 409.137L419.616 454.353L383.458 475.222L340.269 450.875L297.081 475.222L260.923 454.353L340.269 409.137ZM257.408 460.316L293.566 481.185V530.376L336.754 554.723V596.461L257.408 550.748V460.316ZM257.408 558.698L343.283 607.89V558.698L379.44 579.568V670L257.408 599.94V558.698ZM386.471 670V579.568L465.817 534.351V576.089L422.629 600.437V649.628L386.471 670ZM509.005 599.94L429.659 645.156V603.915L509.005 558.698V599.94ZM472.848 571.617V533.854L505.992 552.736L472.848 571.617ZM509.005 502.054L386.471 571.617V529.879L509.005 459.819V502.054Z"
        stroke="url(#paint4_radial_4402_460)" stroke-opacity="0.5" stroke-width="4"
        mask="url(#path-1-inside-1_4402_460)" />
    <path
        d="M208.409 -116.645L172.251 -137.514V-179.252L251.597 -133.538V-91.8004L208.409 -116.645ZM218.453 -258.256L254.611 -279.125L377.145 -209.561L255.113 -139.501L175.767 -184.717L211.924 -205.586L255.113 -181.239L304.83 -209.561L218.453 -258.256ZM211.924 -254.778L291.27 -209.561L255.113 -188.692L211.924 -213.04L168.736 -188.692L132.578 -209.561L211.924 -254.778ZM129.063 -203.599L165.221 -182.73V-133.538L208.409 -109.191V-67.4532L129.063 -113.166V-203.599ZM129.063 -105.216L214.938 -56.0249V-105.216L251.095 -84.3472V6.08539L129.063 -63.975V-105.216ZM258.126 6.08539V-84.3472L337.472 -129.563V-87.8253L294.284 -63.4781V-14.2868L258.126 6.08539ZM380.66 -63.975L301.314 -18.7587V-59.9999L380.66 -105.216V-63.975ZM344.503 -92.2973V-130.06L377.647 -111.179L344.503 -92.2973ZM380.66 -161.861L258.126 -92.2973V-134.035L380.66 -204.096V-161.861Z"
        stroke="url(#paint5_radial_4402_460)" stroke-opacity="0.5" stroke-width="4"
        mask="url(#path-1-inside-1_4402_460)" />
    <defs>
        <radialGradient id="paint0_radial_4402_460" cx="0" cy="0" r="1"
            gradientUnits="userSpaceOnUse"
            gradientTransform="translate(394 77.0003) rotate(158.72) scale(305.853 815.769)">
            <stop stop-color="white" />
            <stop offset="1" stop-color="white" stop-opacity="0" />
        </radialGradient>
        <radialGradient id="paint1_radial_4402_460" cx="0" cy="0" r="1"
            gradientUnits="userSpaceOnUse"
            gradientTransform="translate(394 77.0003) rotate(158.72) scale(305.853 815.769)">
            <stop stop-color="white" />
            <stop offset="1" stop-color="white" stop-opacity="0" />
        </radialGradient>
        <radialGradient id="paint2_radial_4402_460" cx="0" cy="0" r="1"
            gradientUnits="userSpaceOnUse"
            gradientTransform="translate(394 77.0003) rotate(158.72) scale(305.853 815.769)">
            <stop stop-color="white" />
            <stop offset="1" stop-color="white" stop-opacity="0" />
        </radialGradient>
        <radialGradient id="paint3_radial_4402_460" cx="0" cy="0" r="1"
            gradientUnits="userSpaceOnUse"
            gradientTransform="translate(394 77.0003) rotate(158.72) scale(305.853 815.769)">
            <stop stop-color="white" />
            <stop offset="1" stop-color="white" stop-opacity="0" />
        </radialGradient>
        <radialGradient id="paint4_radial_4402_460" cx="0" cy="0" r="1"
            gradientUnits="userSpaceOnUse"
            gradientTransform="translate(394 77.0003) rotate(158.72) scale(305.853 815.769)">
            <stop stop-color="white" />
            <stop offset="1" stop-color="white" stop-opacity="0" />
        </radialGradient>
        <radialGradient id="paint5_radial_4402_460" cx="0" cy="0" r="1"
            gradientUnits="userSpaceOnUse"
            gradientTransform="translate(394 77.0003) rotate(158.72) scale(305.853 815.769)">
            <stop stop-color="white" />
            <stop offset="1" stop-color="white" stop-opacity="0" />
        </radialGradient>
    </defs>
</svg>