<svg width="851" height="966" viewBox="0 0 851 966" fill="none" xmlns="http://www.w3.org/2000/svg">
    <mask id="path-1-inside-1_1569_292" fill="white">
        <path
            d="M842.932 476.84L791.7 447.269V388.125L904.127 452.901V512.045L842.932 476.84ZM857.164 276.176L908.397 246.604L1082.02 345.176L909.108 444.452L796.681 380.38L847.913 350.809L909.108 385.309L979.553 345.176L857.164 276.176ZM847.913 281.104L960.341 345.176L909.108 374.748L847.913 340.248L786.719 374.748L735.486 345.176L847.913 281.104ZM730.505 353.625L781.738 383.197V452.901L842.932 487.402V546.545L730.505 481.769V353.625ZM730.505 493.034L852.183 562.739V493.034L903.416 522.606V650.75L730.505 551.474V493.034ZM913.378 650.75V522.606L1025.81 458.534V517.677L964.611 552.178V621.882L913.378 650.75ZM1087 551.474L974.573 615.545V557.106L1087 493.034V551.474ZM1035.77 511.341V457.83L1082.73 484.585L1035.77 511.341ZM1087 412.768L913.378 511.341V452.197L1087 352.921V412.768Z" />
        <path
            d="M295.425 163.236L244.193 133.665V74.5215L356.62 139.297V198.441L295.425 163.236ZM309.657 -37.4283L360.89 -67L534.514 31.5721L361.601 130.848L249.174 66.7765L300.406 37.2048L361.601 71.7051L432.046 31.5721L309.657 -37.4283ZM300.406 -32.4997L412.834 31.5721L361.601 61.1438L300.406 26.6436L239.212 61.1438L187.979 31.5721L300.406 -32.4997ZM182.998 40.0212L234.231 69.5928V139.297L295.425 173.798V232.941L182.998 168.165V40.0212ZM182.998 179.43L304.676 249.135V179.43L355.909 209.002V337.146L182.998 237.87V179.43ZM365.871 337.146V209.002L478.298 144.93V204.073L417.104 238.574V308.278L365.871 337.146ZM539.495 237.87L427.066 301.941V243.502L539.495 179.43V237.87ZM488.26 197.737V144.226L535.226 170.981L488.26 197.737ZM539.495 99.1645L365.871 197.737V138.593L539.495 39.3171V99.1645Z" />
        <path
            d="M660.156 163.236L608.924 133.665V74.5215L721.351 139.297V198.441L660.156 163.236ZM674.388 -37.4283L725.621 -67L899.243 31.5721L726.332 130.848L613.905 66.7765L665.137 37.2048L726.332 71.7051L796.778 31.5721L674.388 -37.4283ZM665.137 -32.4997L777.565 31.5721L726.332 61.1438L665.137 26.6436L603.943 61.1438L552.71 31.5721L665.137 -32.4997ZM547.729 40.0212L598.962 69.5928V139.297L660.156 173.798V232.941L547.729 168.165V40.0212ZM547.729 179.43L669.407 249.135V179.43L720.64 209.002V337.146L547.729 237.87V179.43ZM730.602 337.146V209.002L843.029 144.93V204.073L781.835 238.574V308.278L730.602 337.146ZM904.224 237.87L791.797 301.941V243.502L904.224 179.43V237.87ZM852.991 197.737V144.226L899.955 170.981L852.991 197.737ZM904.224 99.1645L730.602 197.737V138.593L904.224 39.3171V99.1645Z" />
        <path
            d="M660.156 792.091L608.924 762.519V703.376L721.351 768.152V827.295L660.156 792.091ZM674.388 591.426L725.621 561.854L899.243 660.426L726.332 759.703L613.905 695.631L665.137 666.059L726.332 700.559L796.778 660.426L674.388 591.426ZM665.137 596.354L777.565 660.426L726.332 689.998L665.137 655.498L603.943 689.998L552.71 660.426L665.137 596.354ZM547.729 668.875L598.962 698.447V768.152L660.156 802.652V861.795L547.729 797.019V668.875ZM547.729 808.285L669.407 877.989V808.285L720.64 837.856V966L547.729 866.724V808.285ZM730.602 966V837.856L843.029 773.784V832.928L781.835 867.428V937.133L730.602 966ZM904.224 866.724L791.797 930.796V872.357L904.224 808.285V866.724ZM852.991 826.591V773.081L899.955 799.836L852.991 826.591ZM904.224 728.019L730.602 826.591V767.448L904.224 668.171V728.019Z" />
        <path
            d="M660.156 792.091L608.924 762.519V703.376L721.351 768.152V827.295L660.156 792.091ZM674.388 591.426L725.621 561.854L899.243 660.426L726.332 759.703L613.905 695.631L665.137 666.059L726.332 700.559L796.778 660.426L674.388 591.426ZM665.137 596.354L777.565 660.426L726.332 689.998L665.137 655.498L603.943 689.998L552.71 660.426L665.137 596.354ZM547.729 668.875L598.962 698.447V768.152L660.156 802.652V861.795L547.729 797.019V668.875ZM547.729 808.285L669.407 877.989V808.285L720.64 837.856V966L547.729 866.724V808.285ZM730.602 966V837.856L843.029 773.784V832.928L781.835 867.428V937.133L730.602 966ZM904.224 866.724L791.797 930.796V872.357L904.224 808.285V866.724ZM852.991 826.591V773.081L899.955 799.836L852.991 826.591ZM904.224 728.019L730.602 826.591V767.448L904.224 668.171V728.019Z" />
        <path
            d="M478.281 -150.266L427.048 -179.838V-238.981L539.478 -174.205V-115.062L478.281 -150.266ZM492.513 -350.931L543.748 -380.502L717.37 -281.93L544.459 -182.654L432.029 -246.726L483.262 -276.297L544.459 -241.797L614.905 -281.93L492.513 -350.931ZM483.262 -346.002L595.692 -281.93L544.459 -252.358L483.262 -286.859L422.067 -252.358L370.834 -281.93L483.262 -346.002ZM365.853 -273.481L417.086 -243.909V-174.205L478.281 -139.705V-80.5613L365.853 -145.337V-273.481ZM365.853 -134.072L487.532 -64.3673V-134.072L538.767 -104.5V23.6436L365.853 -75.6327V-134.072ZM548.729 23.6436V-104.5L661.156 -168.572V-109.429L599.962 -74.9286V-5.224L548.729 23.6436ZM722.351 -75.6327L609.924 -11.5608V-70L722.351 -134.072V-75.6327ZM671.118 -115.766V-169.276L718.082 -142.521L671.118 -115.766ZM722.351 -214.338L548.729 -115.766V-174.909L722.351 -274.185V-214.338Z" />
        <path
            d="M112.432 -149.909L61.1987 -179.481V-238.624L173.626 -173.848V-114.705L112.432 -149.909ZM126.663 -350.574L177.896 -380.146L351.518 -281.574L178.607 -182.297L66.1797 -246.369L117.413 -275.941L178.607 -241.441L249.053 -281.574L126.663 -350.574ZM117.413 -345.646L229.84 -281.574L178.607 -252.002L117.413 -286.502L56.2178 -252.002L4.98488 -281.574L117.413 -345.646ZM0.00390625 -273.125L51.2368 -243.553V-173.848L112.432 -139.348V-80.205L0.00390625 -144.981V-273.125ZM0.00390625 -133.716L121.682 -64.011V-133.716L172.915 -104.144V24L0.00390625 -75.2762V-133.716ZM182.877 24V-104.144L295.305 -168.216V-109.073L234.11 -74.5723V-4.86755L182.877 24ZM356.499 -75.2762L244.072 -11.2045V-69.6437L356.499 -133.716V-75.2762ZM305.266 -115.409V-168.92L352.23 -142.165L305.266 -115.409ZM356.499 -213.981L182.877 -115.409V-174.552L356.499 -273.829V-213.981Z" />
    </mask>
    <path
        d="M660.156 792.091L659.657 792.957L659.658 792.958L660.156 792.091ZM608.924 762.519H607.924V763.096L608.424 763.385L608.924 762.519ZM608.924 703.376L609.423 702.509L607.924 701.645V703.376H608.924ZM721.351 768.152H722.351V767.574L721.851 767.285L721.351 768.152ZM721.351 827.295L720.853 828.162L722.351 829.024V827.295H721.351ZM674.388 591.426L673.888 590.56L672.37 591.436L673.897 592.297L674.388 591.426ZM725.621 561.854L726.114 560.984L725.617 560.702L725.121 560.988L725.621 561.854ZM899.243 660.426L899.741 661.294L901.26 660.422L899.737 659.557L899.243 660.426ZM726.332 759.703L725.837 760.572L726.334 760.855L726.83 760.57L726.332 759.703ZM613.905 695.631L613.405 694.765L611.895 695.636L613.41 696.5L613.905 695.631ZM665.137 666.059L665.629 665.188L665.132 664.908L664.638 665.193L665.137 666.059ZM726.332 700.559L725.841 701.43L726.335 701.709L726.827 701.428L726.332 700.559ZM796.778 660.426L797.273 661.295L798.806 660.422L797.269 659.555L796.778 660.426ZM665.137 596.354L665.633 595.486L665.137 595.203L664.642 595.486L665.137 596.354ZM777.565 660.426L778.065 661.293L779.575 660.421L778.06 659.558L777.565 660.426ZM726.332 689.998L725.841 690.869L726.338 691.149L726.832 690.864L726.332 689.998ZM665.137 655.498L665.629 654.627L665.137 654.35L664.646 654.627L665.137 655.498ZM603.943 689.998L603.443 690.864L603.937 691.149L604.434 690.869L603.943 689.998ZM552.71 660.426L552.215 659.558L550.7 660.421L552.21 661.293L552.71 660.426ZM547.729 668.875L548.229 668.009L546.729 667.144V668.875H547.729ZM598.962 698.447H599.962V697.87L599.462 697.581L598.962 698.447ZM598.962 768.152H597.962V768.736L598.471 769.023L598.962 768.152ZM660.156 802.652H661.156V802.068L660.648 801.781L660.156 802.652ZM660.156 861.795L659.657 862.662L661.156 863.526V861.795H660.156ZM547.729 797.019H546.729V797.597L547.229 797.886L547.729 797.019ZM547.729 808.285L548.226 807.417L546.729 806.56V808.285H547.729ZM669.407 877.989L668.91 878.857L670.407 879.715V877.989H669.407ZM669.407 808.285L669.907 807.419L668.407 806.553V808.285H669.407ZM720.64 837.856H721.64V837.279L721.14 836.99L720.64 837.856ZM720.64 966L720.142 966.867L721.64 967.727V966H720.64ZM547.729 866.724H546.729V867.303L547.231 867.591L547.729 866.724ZM730.602 966H729.602V967.711L731.093 966.871L730.602 966ZM730.602 837.856L730.107 836.988L729.602 837.275V837.856H730.602ZM843.029 773.784H844.029V772.063L842.534 772.916L843.029 773.784ZM843.029 832.928L843.521 833.799L844.029 833.512V832.928H843.029ZM781.835 867.428L781.344 866.557L780.835 866.844V867.428H781.835ZM781.835 937.133L782.326 938.004L782.835 937.717V937.133H781.835ZM904.224 866.724L904.719 867.593L905.224 867.305V866.724H904.224ZM791.797 930.796H790.797V932.517L792.292 931.665L791.797 930.796ZM791.797 872.357L791.302 871.488L790.797 871.776V872.357H791.797ZM904.224 808.285H905.224V806.564L903.729 807.416L904.224 808.285ZM852.991 826.591H851.991V828.312L853.486 827.46L852.991 826.591ZM852.991 773.081L853.486 772.212L851.991 771.36V773.081H852.991ZM899.955 799.836L900.45 800.705L901.975 799.836L900.45 798.967L899.955 799.836ZM904.224 728.019L904.718 728.888L905.224 728.601V728.019H904.224ZM730.602 826.591H729.602V828.309L731.095 827.461L730.602 826.591ZM730.602 767.448L730.105 766.58L729.602 766.868V767.448H730.602ZM904.224 668.171H905.224V666.448L903.728 667.303L904.224 668.171ZM304.538 -377.513L305.337 -378.114L303.568 -377.269L304.538 -377.513ZM660.656 791.225L609.423 761.653L608.424 763.385L659.657 792.957L660.656 791.225ZM609.924 762.519V703.376H607.924V762.519H609.924ZM608.424 704.242L720.852 769.018L721.851 767.285L609.423 702.509L608.424 704.242ZM720.351 768.152V827.295H722.351V768.152H720.351ZM721.85 826.428L660.655 791.224L659.658 792.958L720.853 828.162L721.85 826.428ZM674.888 592.292L726.121 562.72L725.121 560.988L673.888 590.56L674.888 592.292ZM725.127 562.724L898.75 661.296L899.737 659.557L726.114 560.984L725.127 562.724ZM898.745 659.559L725.834 758.836L726.83 760.57L899.741 661.294L898.745 659.559ZM726.827 758.834L614.4 694.762L613.41 696.5L725.837 760.572L726.827 758.834ZM614.405 696.497L665.637 666.925L664.638 665.193L613.405 694.765L614.405 696.497ZM664.646 666.93L725.841 701.43L726.823 699.688L665.629 665.188L664.646 666.93ZM726.827 701.428L797.273 661.295L796.283 659.558L725.837 699.69L726.827 701.428ZM797.269 659.555L674.879 590.555L673.897 592.297L796.286 661.298L797.269 659.555ZM664.642 597.223L777.07 661.295L778.06 659.558L665.633 595.486L664.642 597.223ZM777.065 659.56L725.832 689.132L726.832 690.864L778.065 661.293L777.065 659.56ZM726.823 689.127L665.629 654.627L664.646 656.369L725.841 690.869L726.823 689.127ZM664.646 654.627L603.452 689.127L604.434 690.869L665.629 656.369L664.646 654.627ZM604.443 689.132L553.21 659.56L552.21 661.293L603.443 690.864L604.443 689.132ZM553.205 661.295L665.633 597.223L664.642 595.486L552.215 659.558L553.205 661.295ZM547.229 669.742L598.462 699.313L599.462 697.581L548.229 668.009L547.229 669.742ZM597.962 698.447V768.152H599.962V698.447H597.962ZM598.471 769.023L659.665 803.523L660.648 801.781L599.453 767.281L598.471 769.023ZM659.156 802.652V861.795H661.156V802.652H659.156ZM660.656 860.929L548.228 796.153L547.229 797.886L659.657 862.662L660.656 860.929ZM548.729 797.019V668.875H546.729V797.019H548.729ZM547.232 809.153L668.91 878.857L669.904 877.122L548.226 807.417L547.232 809.153ZM670.407 877.989V808.285H668.407V877.989H670.407ZM668.907 809.151L720.14 838.722L721.14 836.99L669.907 807.419L668.907 809.151ZM719.64 837.856V966H721.64V837.856H719.64ZM721.138 965.133L548.227 865.857L547.231 867.591L720.142 966.867L721.138 965.133ZM548.729 866.724V808.285H546.729V866.724H548.729ZM731.602 966V837.856H729.602V966H731.602ZM731.097 838.725L843.525 774.653L842.534 772.916L730.107 836.988L731.097 838.725ZM842.029 773.784V832.928H844.029V773.784H842.029ZM842.538 832.057L781.344 866.557L782.326 868.299L843.521 833.799L842.538 832.057ZM780.835 867.428V937.133H782.835V867.428H780.835ZM781.344 936.262L730.111 965.129L731.093 966.871L782.326 938.004L781.344 936.262ZM903.729 865.855L791.302 929.927L792.292 931.665L904.719 867.593L903.729 865.855ZM792.797 930.796V872.357H790.797V930.796H792.797ZM792.292 873.225L904.719 809.154L903.729 807.416L791.302 871.488L792.292 873.225ZM903.224 808.285V866.724H905.224V808.285H903.224ZM853.991 826.591V773.081H851.991V826.591H853.991ZM852.496 773.949L899.46 800.705L900.45 798.967L853.486 772.212L852.496 773.949ZM899.46 798.967L852.496 825.722L853.486 827.46L900.45 800.705L899.46 798.967ZM903.731 727.149L730.108 825.721L731.095 827.461L904.718 728.888L903.731 727.149ZM731.602 826.591V767.448H729.602V826.591H731.602ZM731.098 768.316L904.721 669.039L903.728 667.303L730.105 766.58L731.098 768.316ZM903.224 668.171V728.019H905.224V668.171H903.224ZM366.823 -134.316L305.507 -377.757L303.568 -377.269L364.884 -133.828L366.823 -134.316ZM303.738 -376.912L486.732 -133.471L488.331 -134.673L305.337 -378.114L303.738 -376.912ZM842.932 476.84L841.933 478.573L841.935 478.574L842.932 476.84ZM791.7 447.269H789.7V448.424L790.7 449.001L791.7 447.269ZM791.7 388.125L792.698 386.393L789.7 384.665V388.125H791.7ZM904.127 452.901H906.127V451.745L905.126 451.168L904.127 452.901ZM904.127 512.045L903.13 513.778L906.127 515.503V512.045H904.127ZM857.164 276.176L856.164 274.443L853.128 276.196L856.182 277.918L857.164 276.176ZM908.397 246.604L909.384 244.865L908.388 244.299L907.397 244.872L908.397 246.604ZM1082.02 345.176L1083.02 346.911L1086.05 345.166L1083.01 343.437L1082.02 345.176ZM909.108 444.452L908.118 446.19L909.112 446.756L910.104 446.187L909.108 444.452ZM796.681 380.38L795.681 378.648L792.661 380.392L795.69 382.118L796.681 380.38ZM847.913 350.809L848.896 349.067L847.902 348.506L846.914 349.077L847.913 350.809ZM909.108 385.309L908.126 387.051L909.113 387.608L910.098 387.047L909.108 385.309ZM979.553 345.176L980.543 346.914L983.61 345.167L980.536 343.434L979.553 345.176ZM847.913 281.104L848.904 279.367L847.913 278.802L846.923 279.367L847.913 281.104ZM960.341 345.176L961.341 346.908L964.361 345.165L961.331 343.439L960.341 345.176ZM909.108 374.748L908.126 376.49L909.12 377.05L910.108 376.48L909.108 374.748ZM847.913 340.248L848.896 338.505L847.913 337.952L846.931 338.505L847.913 340.248ZM786.719 374.748L785.719 376.48L786.707 377.05L787.701 376.49L786.719 374.748ZM735.486 345.176L734.496 343.439L731.466 345.165L734.486 346.908L735.486 345.176ZM730.505 353.625L731.505 351.893L728.505 350.162V353.625H730.505ZM781.738 383.197H783.738V382.042L782.737 381.465L781.738 383.197ZM781.738 452.901H779.738V454.07L780.755 454.644L781.738 452.901ZM842.932 487.402H844.932V486.233L843.915 485.659L842.932 487.402ZM842.932 546.545L841.934 548.278L844.932 550.005V546.545H842.932ZM730.505 481.769H728.505V482.925L729.506 483.502L730.505 481.769ZM730.505 493.034L731.499 491.299L728.505 489.584V493.034H730.505ZM852.183 562.739L851.189 564.474L854.183 566.19V562.739H852.183ZM852.183 493.034L853.183 491.302L850.183 489.571V493.034H852.183ZM903.416 522.606H905.416V521.451L904.416 520.874L903.416 522.606ZM903.416 650.75L902.42 652.484L905.416 654.204V650.75H903.416ZM730.505 551.474H728.505V552.631L729.509 553.208L730.505 551.474ZM913.378 650.75H911.378V654.173L914.359 652.492L913.378 650.75ZM913.378 522.606L912.387 520.868L911.378 521.444V522.606H913.378ZM1025.81 458.534H1027.81V455.092L1024.82 456.796L1025.81 458.534ZM1025.81 517.677L1026.79 519.42L1027.81 518.846V517.677H1025.81ZM964.611 552.178L963.628 550.435L962.611 551.009V552.178H964.611ZM964.611 621.882L965.592 623.625L966.611 623.051V621.882H964.611ZM1087 551.474L1087.99 553.211L1089 552.636V551.474H1087ZM974.573 615.545H972.573V618.987L975.563 617.283L974.573 615.545ZM974.573 557.106L973.582 555.369L972.573 555.944V557.106H974.573ZM1087 493.034H1089V489.593L1086.01 491.297L1087 493.034ZM1035.77 511.341H1033.77V514.782L1036.76 513.078L1035.77 511.341ZM1035.77 457.83L1036.76 456.092L1033.77 454.389V457.83H1035.77ZM1082.73 484.585L1083.72 486.323L1086.77 484.585L1083.72 482.848L1082.73 484.585ZM1087 412.768L1087.99 414.508L1089 413.933V412.768H1087ZM913.378 511.341H911.378V514.776L914.365 513.08L913.378 511.341ZM913.378 452.197L912.385 450.461L911.378 451.037V452.197H913.378ZM1087 352.921H1089V349.474L1086.01 351.185L1087 352.921ZM295.425 163.236L294.426 164.969L294.428 164.97L295.425 163.236ZM244.193 133.665H242.193V134.82L243.193 135.397L244.193 133.665ZM244.193 74.5215L245.191 72.7885L242.193 71.061V74.5215H244.193ZM356.62 139.297H358.62V138.142L357.619 137.565L356.62 139.297ZM356.62 198.441L355.623 200.174L358.62 201.899V198.441H356.62ZM309.657 -37.4283L308.657 -39.1604L305.621 -37.4078L308.675 -35.6861L309.657 -37.4283ZM360.89 -67L361.877 -68.7393L360.882 -69.3045L359.89 -68.7321L360.89 -67ZM534.514 31.5721L535.51 33.3066L538.548 31.5624L535.502 29.8329L534.514 31.5721ZM361.601 130.848L360.611 132.586L361.605 133.152L362.597 132.583L361.601 130.848ZM249.174 66.7765L248.174 65.0443L245.154 66.7875L248.183 68.5141L249.174 66.7765ZM300.406 37.2048L301.389 35.4626L300.395 34.9023L299.407 35.4727L300.406 37.2048ZM361.601 71.7051L360.619 73.4473L361.606 74.004L362.591 73.4429L361.601 71.7051ZM432.046 31.5721L433.036 33.3099L436.103 31.563L433.029 29.83L432.046 31.5721ZM300.406 -32.4997L301.397 -34.2373L300.406 -34.8017L299.416 -34.2373L300.406 -32.4997ZM412.834 31.5721L413.834 33.3043L416.854 31.5611L413.824 29.8345L412.834 31.5721ZM361.601 61.1438L360.619 62.886L361.613 63.4463L362.601 62.876L361.601 61.1438ZM300.406 26.6436L301.389 24.9014L300.406 24.3476L299.424 24.9014L300.406 26.6436ZM239.212 61.1438L238.212 62.876L239.2 63.4463L240.194 62.886L239.212 61.1438ZM187.979 31.5721L186.988 29.8345L183.959 31.5611L186.979 33.3043L187.979 31.5721ZM182.998 40.0212L183.998 38.2891L180.998 36.5576V40.0212H182.998ZM234.231 69.5928H236.231V68.438L235.23 67.8607L234.231 69.5928ZM234.231 139.297H232.231V140.466L233.248 141.04L234.231 139.297ZM295.425 173.798H297.425V172.629L296.408 172.055L295.425 173.798ZM295.425 232.941L294.427 234.674L297.425 236.401V232.941H295.425ZM182.998 168.165H180.998V169.321L181.999 169.898L182.998 168.165ZM182.998 179.43L183.992 177.695L180.998 175.98V179.43H182.998ZM304.676 249.135L303.682 250.87L306.676 252.586V249.135H304.676ZM304.676 179.43L305.676 177.698L302.676 175.967V179.43H304.676ZM355.909 209.002H357.909V207.847L356.909 207.27L355.909 209.002ZM355.909 337.146L354.913 338.88L357.909 340.6V337.146H355.909ZM182.998 237.87H180.998V239.028L182.002 239.604L182.998 237.87ZM365.871 337.146H363.871V340.568L366.852 338.888L365.871 337.146ZM365.871 209.002L364.88 207.264L363.871 207.84V209.002H365.871ZM478.298 144.93H480.298V141.488L477.308 143.193L478.298 144.93ZM478.298 204.073L479.281 205.816L480.298 205.242V204.073H478.298ZM417.104 238.574L416.121 236.831L415.104 237.405V238.574H417.104ZM417.104 308.278L418.085 310.021L419.104 309.447V308.278H417.104ZM539.495 237.87L540.486 239.607L541.495 239.032V237.87H539.495ZM427.066 301.941H425.066V305.383L428.056 303.679L427.066 301.941ZM427.066 243.502L426.075 241.765L425.066 242.34V243.502H427.066ZM539.495 179.43H541.495V175.989L538.505 177.693L539.495 179.43ZM488.26 197.737H486.26V201.178L489.25 199.474L488.26 197.737ZM488.26 144.226L489.25 142.488L486.26 140.785V144.226H488.26ZM535.226 170.981L536.216 172.719L539.266 170.981L536.216 169.244L535.226 170.981ZM539.495 99.1645L540.483 100.904L541.495 100.329V99.1645H539.495ZM365.871 197.737H363.871V201.172L366.858 199.476L365.871 197.737ZM365.871 138.593L364.878 136.857L363.871 137.433V138.593H365.871ZM539.495 39.3171H541.495V35.8697L538.503 37.5809L539.495 39.3171ZM660.156 163.236L659.157 164.969L659.159 164.97L660.156 163.236ZM608.924 133.665H606.924V134.82L607.924 135.397L608.924 133.665ZM608.924 74.5215L609.922 72.7885L606.924 71.061V74.5215H608.924ZM721.351 139.297H723.351V138.142L722.35 137.565L721.351 139.297ZM721.351 198.441L720.354 200.174L723.351 201.899V198.441H721.351ZM674.388 -37.4283L673.388 -39.1604L670.352 -37.4078L673.406 -35.6861L674.388 -37.4283ZM725.621 -67L726.608 -68.7393L725.612 -69.3045L724.621 -68.7321L725.621 -67ZM899.243 31.5721L900.239 33.3066L903.277 31.5624L900.231 29.8329L899.243 31.5721ZM726.332 130.848L725.342 132.586L726.336 133.152L727.328 132.583L726.332 130.848ZM613.905 66.7765L612.905 65.0443L609.885 66.7875L612.914 68.5141L613.905 66.7765ZM665.137 37.2048L666.12 35.4626L665.126 34.9023L664.138 35.4727L665.137 37.2048ZM726.332 71.7051L725.35 73.4473L726.337 74.004L727.322 73.4429L726.332 71.7051ZM796.778 31.5721L797.768 33.3099L800.834 31.563L797.76 29.83L796.778 31.5721ZM665.137 -32.4997L666.128 -34.2373L665.137 -34.8017L664.147 -34.2373L665.137 -32.4997ZM777.565 31.5721L778.565 33.3043L781.585 31.5611L778.555 29.8345L777.565 31.5721ZM726.332 61.1438L725.35 62.886L726.344 63.4463L727.332 62.876L726.332 61.1438ZM665.137 26.6436L666.12 24.9014L665.137 24.3476L664.155 24.9014L665.137 26.6436ZM603.943 61.1438L602.943 62.876L603.931 63.4463L604.925 62.886L603.943 61.1438ZM552.71 31.5721L551.719 29.8345L548.69 31.5611L551.71 33.3043L552.71 31.5721ZM547.729 40.0212L548.728 38.2891L545.729 36.5576V40.0212H547.729ZM598.962 69.5928H600.962V68.438L599.961 67.8607L598.962 69.5928ZM598.962 139.297H596.962V140.466L597.979 141.04L598.962 139.297ZM660.156 173.798H662.156V172.629L661.139 172.055L660.156 173.798ZM660.156 232.941L659.158 234.674L662.156 236.401V232.941H660.156ZM547.729 168.165H545.729V169.321L546.73 169.898L547.729 168.165ZM547.729 179.43L548.723 177.695L545.729 175.98V179.43H547.729ZM669.407 249.135L668.413 250.87L671.407 252.586V249.135H669.407ZM669.407 179.43L670.407 177.698L667.407 175.967V179.43H669.407ZM720.64 209.002H722.64V207.847L721.64 207.27L720.64 209.002ZM720.64 337.146L719.644 338.88L722.64 340.6V337.146H720.64ZM547.729 237.87H545.729V239.028L546.733 239.604L547.729 237.87ZM730.602 337.146H728.602V340.568L731.583 338.888L730.602 337.146ZM730.602 209.002L729.611 207.264L728.602 207.84V209.002H730.602ZM843.029 144.93H845.029V141.488L842.039 143.193L843.029 144.93ZM843.029 204.073L844.012 205.816L845.029 205.242V204.073H843.029ZM781.835 238.574L780.852 236.831L779.835 237.405V238.574H781.835ZM781.835 308.278L782.816 310.021L783.835 309.447V308.278H781.835ZM904.224 237.87L905.215 239.607L906.224 239.032V237.87H904.224ZM791.797 301.941H789.797V305.383L792.787 303.679L791.797 301.941ZM791.797 243.502L790.806 241.765L789.797 242.34V243.502H791.797ZM904.224 179.43H906.224V175.989L903.234 177.693L904.224 179.43ZM852.991 197.737H850.991V201.178L853.981 199.474L852.991 197.737ZM852.991 144.226L853.981 142.488L850.991 140.785V144.226H852.991ZM899.955 170.981L900.945 172.719L903.995 170.981L900.945 169.244L899.955 170.981ZM904.224 99.1645L905.212 100.904L906.224 100.329V99.1645H904.224ZM730.602 197.737H728.602V201.172L731.589 199.476L730.602 197.737ZM730.602 138.593L729.609 136.857L728.602 137.433V138.593H730.602ZM904.224 39.3171H906.224V35.8697L903.232 37.5809L904.224 39.3171ZM478.281 -150.266L477.281 -148.534L477.284 -148.532L478.281 -150.266ZM427.048 -179.838H425.048V-178.683L426.048 -178.105L427.048 -179.838ZM427.048 -238.981L428.047 -240.714L425.048 -242.441V-238.981H427.048ZM539.478 -174.205H541.478V-175.361L540.477 -175.938L539.478 -174.205ZM539.478 -115.062L538.481 -113.328L541.478 -111.604V-115.062H539.478ZM492.513 -350.931L491.513 -352.663L488.477 -350.91L491.531 -349.188L492.513 -350.931ZM543.748 -380.502L544.735 -382.242L543.74 -382.807L542.748 -382.234L543.748 -380.502ZM717.37 -281.93L718.366 -280.196L721.404 -281.94L718.358 -283.669L717.37 -281.93ZM544.459 -182.654L543.469 -180.916L544.463 -180.35L545.455 -180.919L544.459 -182.654ZM432.029 -246.726L431.029 -248.458L428.009 -246.715L431.039 -244.988L432.029 -246.726ZM483.262 -276.297L484.244 -278.04L483.25 -278.6L482.262 -278.03L483.262 -276.297ZM544.459 -241.797L543.477 -240.055L544.464 -239.498L545.449 -240.059L544.459 -241.797ZM614.905 -281.93L615.895 -280.192L618.961 -281.939L615.887 -283.672L614.905 -281.93ZM483.262 -346.002L484.252 -347.74L483.262 -348.304L482.272 -347.74L483.262 -346.002ZM595.692 -281.93L596.692 -280.198L599.712 -281.941L596.682 -283.668L595.692 -281.93ZM544.459 -252.358L543.477 -250.616L544.471 -250.056L545.459 -250.626L544.459 -252.358ZM483.262 -286.859L484.244 -288.601L483.262 -289.155L482.28 -288.601L483.262 -286.859ZM422.067 -252.358L421.067 -250.626L422.056 -250.056L423.049 -250.616L422.067 -252.358ZM370.834 -281.93L369.844 -283.668L366.815 -281.941L369.835 -280.198L370.834 -281.93ZM365.853 -273.481L366.853 -275.213L363.853 -276.945V-273.481H365.853ZM417.086 -243.909H419.086V-245.064L418.086 -245.642L417.086 -243.909ZM417.086 -174.205H415.086V-173.036L416.104 -172.463L417.086 -174.205ZM478.281 -139.705H480.281V-140.873L479.263 -141.447L478.281 -139.705ZM478.281 -80.5613L477.283 -78.8284L480.281 -77.1008V-80.5613H478.281ZM365.853 -145.337H363.853V-144.181L364.855 -143.604L365.853 -145.337ZM365.853 -134.072L366.848 -135.807L363.853 -137.523V-134.072H365.853ZM487.532 -64.3673L486.537 -62.6319L489.532 -60.9167V-64.3673H487.532ZM487.532 -134.072L488.531 -135.804L485.532 -137.535V-134.072H487.532ZM538.767 -104.5H540.767V-105.655L539.766 -106.232L538.767 -104.5ZM538.767 23.6436L537.771 25.378L540.767 27.098V23.6436H538.767ZM365.853 -75.6327H363.853V-74.4747L364.858 -73.8982L365.853 -75.6327ZM548.729 23.6436H546.729V27.0661L549.71 25.386L548.729 23.6436ZM548.729 -104.5L547.738 -106.238L546.729 -105.662V-104.5H548.729ZM661.156 -168.572H663.156V-172.014L660.166 -170.31L661.156 -168.572ZM661.156 -109.429L662.139 -107.687L663.156 -108.26V-109.429H661.156ZM599.962 -74.9286L598.979 -76.6708L597.962 -76.097V-74.9286H599.962ZM599.962 -5.224L600.943 -3.48157L601.962 -4.05527V-5.224H599.962ZM722.351 -75.6327L723.342 -73.895L724.351 -74.4705V-75.6327H722.351ZM609.924 -11.5608H607.924V-8.11902L610.914 -9.82315L609.924 -11.5608ZM609.924 -70L608.933 -71.7376L607.924 -71.1622V-70H609.924ZM722.351 -134.072H724.351V-137.514L721.361 -135.81L722.351 -134.072ZM671.118 -115.766H669.118V-112.324L672.108 -114.028L671.118 -115.766ZM671.118 -169.276L672.108 -171.014L669.118 -172.717V-169.276H671.118ZM718.082 -142.521L719.072 -140.783L722.122 -142.521L719.072 -144.259L718.082 -142.521ZM722.351 -214.338L723.339 -212.599L724.351 -213.173V-214.338H722.351ZM548.729 -115.766H546.729V-112.33L549.716 -114.026L548.729 -115.766ZM548.729 -174.909L547.736 -176.645L546.729 -176.069V-174.909H548.729ZM722.351 -274.185H724.351V-277.633L721.359 -275.921L722.351 -274.185ZM112.432 -149.909L111.432 -148.177L111.434 -148.176L112.432 -149.909ZM61.1987 -179.481H59.1987V-178.326L60.1989 -177.749L61.1987 -179.481ZM61.1987 -238.624L62.1972 -240.357L59.1987 -242.085V-238.624H61.1987ZM173.626 -173.848H175.626V-175.004L174.625 -175.581L173.626 -173.848ZM173.626 -114.705L172.629 -112.972L175.626 -111.247V-114.705H173.626ZM126.663 -350.574L125.663 -352.306L122.627 -350.554L125.681 -348.832L126.663 -350.574ZM177.896 -380.146L178.883 -381.885L177.888 -382.45L176.896 -381.878L177.896 -380.146ZM351.518 -281.574L352.514 -279.839L355.552 -281.583L352.506 -283.313L351.518 -281.574ZM178.607 -182.297L177.617 -180.56L178.611 -179.993L179.603 -180.563L178.607 -182.297ZM66.1797 -246.369L65.1799 -248.102L62.1598 -246.358L65.1894 -244.632L66.1797 -246.369ZM117.413 -275.941L118.395 -277.683L117.401 -278.244L116.413 -277.673L117.413 -275.941ZM178.607 -241.441L177.625 -239.699L178.613 -239.142L179.597 -239.703L178.607 -241.441ZM249.053 -281.574L250.043 -279.836L253.109 -281.583L250.035 -283.316L249.053 -281.574ZM117.413 -345.646L118.403 -347.383L117.413 -347.948L116.422 -347.383L117.413 -345.646ZM229.84 -281.574L230.84 -279.842L233.86 -281.585L230.831 -283.311L229.84 -281.574ZM178.607 -252.002L177.625 -250.26L178.619 -249.7L179.607 -250.27L178.607 -252.002ZM117.413 -286.502L118.395 -288.245L117.413 -288.798L116.43 -288.245L117.413 -286.502ZM56.2178 -252.002L55.2179 -250.27L56.2061 -249.7L57.2 -250.26L56.2178 -252.002ZM4.98488 -281.574L3.99461 -283.311L0.964956 -281.585L3.98507 -279.842L4.98488 -281.574ZM0.00390625 -273.125L1.00371 -274.857L-1.99609 -276.588V-273.125H0.00390625ZM51.2368 -243.553H53.2368V-244.708L52.2366 -245.285L51.2368 -243.553ZM51.2368 -173.848H49.2368V-172.68L50.2546 -172.106L51.2368 -173.848ZM112.432 -139.348H114.432V-140.517L113.414 -141.09L112.432 -139.348ZM112.432 -80.205L111.433 -78.472L114.432 -76.7444V-80.205H112.432ZM0.00390625 -144.981H-1.99609V-143.825L-0.994542 -143.248L0.00390625 -144.981ZM0.00390625 -133.716L0.998057 -135.451L-1.99609 -137.166V-133.716H0.00390625ZM121.682 -64.011L120.688 -62.2756L123.682 -60.5603V-64.011H121.682ZM121.682 -133.716L122.682 -135.448L119.682 -137.179V-133.716H121.682ZM172.915 -104.144H174.915V-105.299L173.915 -105.876L172.915 -104.144ZM172.915 24L171.919 25.7345L174.915 27.4545V24H172.915ZM0.00390625 -75.2762H-1.99609V-74.1183L-0.991924 -73.5418L0.00390625 -75.2762ZM182.877 24H180.877V27.4225L183.859 25.7424L182.877 24ZM182.877 -104.144L181.887 -105.882L180.877 -105.306V-104.144H182.877ZM295.305 -168.216H297.305V-171.658L294.314 -169.953L295.305 -168.216ZM295.305 -109.073L296.287 -107.33L297.305 -107.904V-109.073H295.305ZM234.11 -74.5723L233.127 -76.3145L232.11 -75.7407V-74.5723H234.11ZM234.11 -4.86755L235.091 -3.12512L236.11 -3.69882V-4.86755H234.11ZM356.499 -75.2762L357.49 -73.5386L358.499 -74.114V-75.2762H356.499ZM244.072 -11.2045H242.072V-7.7627L245.062 -9.46683L244.072 -11.2045ZM244.072 -69.6437L243.081 -71.3813L242.072 -70.8059V-69.6437H244.072ZM356.499 -133.716H358.499V-137.157L355.509 -135.453L356.499 -133.716ZM305.266 -115.409H303.266V-111.968L306.256 -113.672L305.266 -115.409ZM305.266 -168.92L306.256 -170.658L303.266 -172.361V-168.92H305.266ZM352.23 -142.165L353.22 -140.427L356.27 -142.165L353.22 -143.902L352.23 -142.165ZM356.499 -213.981L357.487 -212.242L358.499 -212.817V-213.981H356.499ZM182.877 -115.409H180.877V-111.974L183.864 -113.67L182.877 -115.409ZM182.877 -174.552L181.884 -176.289L180.877 -175.713V-174.552H182.877ZM356.499 -273.829H358.499V-277.276L355.507 -275.565L356.499 -273.829ZM843.932 475.108L792.699 445.536L790.7 449.001L841.933 478.573L843.932 475.108ZM793.7 447.269V388.125H789.7V447.269H793.7ZM790.701 389.858L903.129 454.634L905.126 451.168L792.698 386.393L790.701 389.858ZM902.127 452.901V512.045H906.127V452.901H902.127ZM905.125 510.311L843.93 475.107L841.935 478.574L903.13 513.778L905.125 510.311ZM858.164 277.908L909.397 248.336L907.397 244.872L856.164 274.443L858.164 277.908ZM907.409 248.343L1081.03 346.915L1083.01 343.437L909.384 244.865L907.409 248.343ZM1081.02 343.442L908.112 442.718L910.104 446.187L1083.02 346.911L1081.02 343.442ZM910.099 442.715L797.671 378.643L795.69 382.118L908.118 446.19L910.099 442.715ZM797.68 382.113L848.913 352.541L846.914 349.077L795.681 378.648L797.68 382.113ZM846.931 352.551L908.126 387.051L910.091 383.567L848.896 349.067L846.931 352.551ZM910.098 387.047L980.543 346.914L978.563 343.438L908.118 383.571L910.098 387.047ZM980.536 343.434L858.146 274.433L856.182 277.918L978.571 346.918L980.536 343.434ZM846.923 282.842L959.351 346.914L961.331 343.439L848.904 279.367L846.923 282.842ZM959.341 343.444L908.108 373.016L910.108 376.48L961.341 346.908L959.341 343.444ZM910.091 373.006L848.896 338.505L846.931 341.99L908.126 376.49L910.091 373.006ZM846.931 338.505L785.736 373.006L787.701 376.49L848.896 341.99L846.931 338.505ZM787.718 373.016L736.486 343.444L734.486 346.908L785.719 376.48L787.718 373.016ZM736.476 346.914L848.904 282.842L846.923 279.367L734.496 343.439L736.476 346.914ZM729.505 355.357L780.738 384.929L782.737 381.465L731.505 351.893L729.505 355.357ZM779.738 383.197V452.901H783.738V383.197H779.738ZM780.755 454.644L841.95 489.144L843.915 485.659L782.72 451.159L780.755 454.644ZM840.932 487.402V546.545H844.932V487.402H840.932ZM843.931 544.812L731.503 480.036L729.506 483.502L841.934 548.278L843.931 544.812ZM732.505 481.769V353.625H728.505V481.769H732.505ZM729.511 494.77L851.189 564.474L853.177 561.003L731.499 491.299L729.511 494.77ZM854.183 562.739V493.034H850.183V562.739H854.183ZM851.183 494.766L902.416 524.338L904.416 520.874L853.183 491.302L851.183 494.766ZM901.416 522.606V650.75H905.416V522.606H901.416ZM904.412 649.015L731.501 549.739L729.509 553.208L902.42 652.484L904.412 649.015ZM732.505 551.474V493.034H728.505V551.474H732.505ZM915.378 650.75V522.606H911.378V650.75H915.378ZM914.368 524.344L1026.8 460.272L1024.82 456.796L912.387 520.868L914.368 524.344ZM1023.81 458.534V517.677H1027.81V458.534H1023.81ZM1024.82 515.935L963.628 550.435L965.593 553.92L1026.79 519.42L1024.82 515.935ZM962.611 552.178V621.882H966.611V552.178H962.611ZM963.629 620.14L912.396 649.008L914.359 652.492L965.592 623.625L963.629 620.14ZM1086.01 549.736L973.582 613.808L975.563 617.283L1087.99 553.211L1086.01 549.736ZM976.573 615.545V557.106H972.573V615.545H976.573ZM975.563 558.844L1087.99 494.772L1086.01 491.297L973.582 555.369L975.563 558.844ZM1085 493.034V551.474H1089V493.034H1085ZM1037.77 511.341V457.83H1033.77V511.341H1037.77ZM1034.78 459.568L1081.74 486.323L1083.72 482.848L1036.76 456.092L1034.78 459.568ZM1081.74 482.848L1034.78 509.603L1036.76 513.078L1083.72 486.323L1081.74 482.848ZM1086.01 411.029L912.39 509.601L914.365 513.08L1087.99 414.508L1086.01 411.029ZM915.378 511.341V452.197H911.378V511.341H915.378ZM914.37 453.933L1087.99 354.657L1086.01 351.185L912.385 450.461L914.37 453.933ZM1085 352.921V412.768H1089V352.921H1085ZM296.425 161.504L245.192 131.933L243.193 135.397L294.426 164.969L296.425 161.504ZM246.193 133.665V74.5215H242.193V133.665H246.193ZM243.194 76.2544L355.622 141.03L357.619 137.565L245.191 72.7885L243.194 76.2544ZM354.62 139.297V198.441H358.62V139.297H354.62ZM357.618 196.707L296.423 161.503L294.428 164.97L355.623 200.174L357.618 196.707ZM310.657 -35.6961L361.89 -65.2679L359.89 -68.7321L308.657 -39.1604L310.657 -35.6961ZM359.902 -65.2607L533.527 33.3114L535.502 29.8329L361.877 -68.7393L359.902 -65.2607ZM533.519 29.8377L360.605 129.114L362.597 132.583L535.51 33.3066L533.519 29.8377ZM362.592 129.111L250.164 65.0388L248.183 68.5141L360.611 132.586L362.592 129.111ZM250.173 68.5087L301.406 38.937L299.407 35.4727L248.174 65.0443L250.173 68.5087ZM299.424 38.947L360.619 73.4473L362.583 69.963L301.389 35.4626L299.424 38.947ZM362.591 73.4429L433.036 33.3099L431.056 29.8344L360.611 69.9674L362.591 73.4429ZM433.029 29.83L310.639 -39.1705L308.675 -35.6861L431.064 33.3143L433.029 29.83ZM299.416 -30.7621L411.844 33.3098L413.824 29.8345L301.397 -34.2373L299.416 -30.7621ZM411.834 29.84L360.601 59.4116L362.601 62.876L413.834 33.3043L411.834 29.84ZM362.583 59.4016L301.389 24.9014L299.424 28.3857L360.619 62.886L362.583 59.4016ZM299.424 24.9014L238.229 59.4016L240.194 62.886L301.389 28.3857L299.424 24.9014ZM240.211 59.4116L188.979 29.84L186.979 33.3043L238.212 62.876L240.211 59.4116ZM188.969 33.3098L301.397 -30.7621L299.416 -34.2373L186.988 29.8345L188.969 33.3098ZM181.998 41.7534L233.231 71.325L235.23 67.8607L183.998 38.2891L181.998 41.7534ZM232.231 69.5928V139.297H236.231V69.5928H232.231ZM233.248 141.04L294.443 175.54L296.408 172.055L235.213 137.555L233.248 141.04ZM293.425 173.798V232.941H297.425V173.798H293.425ZM296.424 231.208L183.996 166.432L181.999 169.898L294.427 234.674L296.424 231.208ZM184.998 168.165V40.0212H180.998V168.165H184.998ZM182.004 181.166L303.682 250.87L305.67 247.399L183.992 177.695L182.004 181.166ZM306.676 249.135V179.43H302.676V249.135H306.676ZM303.676 181.162L354.909 210.734L356.909 207.27L305.676 177.698L303.676 181.162ZM353.909 209.002V337.146H357.909V209.002H353.909ZM356.905 335.411L183.994 236.135L182.002 239.604L354.913 338.88L356.905 335.411ZM184.998 237.87V179.43H180.998V237.87H184.998ZM367.871 337.146V209.002H363.871V337.146H367.871ZM366.861 210.74L479.289 146.668L477.308 143.193L364.88 207.264L366.861 210.74ZM476.298 144.93V204.073H480.298V144.93H476.298ZM477.316 202.331L416.121 236.831L418.086 240.316L479.281 205.816L477.316 202.331ZM415.104 238.574V308.278H419.104V238.574H415.104ZM416.122 306.536L364.889 335.403L366.852 338.888L418.085 310.021L416.122 306.536ZM538.505 236.132L426.075 300.204L428.056 303.679L540.486 239.607L538.505 236.132ZM429.066 301.941V243.502H425.066V301.941H429.066ZM428.056 245.24L540.486 181.168L538.505 177.693L426.075 241.765L428.056 245.24ZM537.495 179.43V237.87H541.495V179.43H537.495ZM490.26 197.737V144.226H486.26V197.737H490.26ZM487.27 145.964L534.236 172.719L536.216 169.244L489.25 142.488L487.27 145.964ZM534.236 169.244L487.27 195.999L489.25 199.474L536.216 172.719L534.236 169.244ZM538.508 97.4252L364.883 195.997L366.858 199.476L540.483 100.904L538.508 97.4252ZM367.871 197.737V138.593H363.871V197.737H367.871ZM366.863 140.33L540.488 41.0533L538.503 37.5809L364.878 136.857L366.863 140.33ZM537.495 39.3171V99.1645H541.495V39.3171H537.495ZM661.156 161.504L609.923 131.933L607.924 135.397L659.157 164.969L661.156 161.504ZM610.924 133.665V74.5215H606.924V133.665H610.924ZM607.925 76.2544L720.353 141.03L722.35 137.565L609.922 72.7885L607.925 76.2544ZM719.351 139.297V198.441H723.351V139.297H719.351ZM722.349 196.707L661.154 161.503L659.159 164.97L720.354 200.174L722.349 196.707ZM675.388 -35.6961L726.621 -65.2679L724.621 -68.7321L673.388 -39.1604L675.388 -35.6961ZM724.633 -65.2607L898.256 33.3114L900.231 29.8329L726.608 -68.7393L724.633 -65.2607ZM898.247 29.8377L725.336 129.114L727.328 132.583L900.239 33.3066L898.247 29.8377ZM727.323 129.111L614.895 65.0388L612.914 68.5141L725.342 132.586L727.323 129.111ZM614.904 68.5086L666.137 38.937L664.138 35.4727L612.905 65.0443L614.904 68.5086ZM664.155 38.947L725.35 73.4473L727.315 69.963L666.12 35.4626L664.155 38.947ZM727.322 73.4429L797.768 33.3099L795.788 29.8344L725.342 69.9674L727.322 73.4429ZM797.76 29.83L675.37 -39.1705L673.406 -35.6861L795.795 33.3143L797.76 29.83ZM664.147 -30.7621L776.575 33.3098L778.555 29.8345L666.128 -34.2373L664.147 -30.7621ZM776.565 29.84L725.332 59.4116L727.332 62.876L778.565 33.3043L776.565 29.84ZM727.315 59.4016L666.12 24.9014L664.155 28.3857L725.35 62.886L727.315 59.4016ZM664.155 24.9014L602.96 59.4016L604.925 62.886L666.12 28.3857L664.155 24.9014ZM604.942 59.4116L553.71 29.84L551.71 33.3043L602.943 62.876L604.942 59.4116ZM553.7 33.3098L666.128 -30.7621L664.147 -34.2373L551.719 29.8345L553.7 33.3098ZM546.729 41.7534L597.962 71.325L599.961 67.8607L548.728 38.2891L546.729 41.7534ZM596.962 69.5928V139.297H600.962V69.5928H596.962ZM597.979 141.04L659.174 175.54L661.139 172.055L599.944 137.555L597.979 141.04ZM658.156 173.798V232.941H662.156V173.798H658.156ZM661.155 231.208L548.727 166.432L546.73 169.898L659.158 234.674L661.155 231.208ZM549.729 168.165V40.0212H545.729V168.165H549.729ZM546.734 181.166L668.413 250.87L670.401 247.399L548.723 177.695L546.734 181.166ZM671.407 249.135V179.43H667.407V249.135H671.407ZM668.407 181.162L719.64 210.734L721.64 207.27L670.407 177.698L668.407 181.162ZM718.64 209.002V337.146H722.64V209.002H718.64ZM721.636 335.411L548.724 236.135L546.733 239.604L719.644 338.88L721.636 335.411ZM549.729 237.87V179.43H545.729V237.87H549.729ZM732.602 337.146V209.002H728.602V337.146H732.602ZM731.592 210.74L844.02 146.668L842.039 143.193L729.611 207.264L731.592 210.74ZM841.029 144.93V204.073H845.029V144.93H841.029ZM842.047 202.331L780.852 236.831L782.817 240.316L844.012 205.816L842.047 202.331ZM779.835 238.574V308.278H783.835V238.574H779.835ZM780.853 306.536L729.62 335.403L731.583 338.888L782.816 310.021L780.853 306.536ZM903.234 236.132L790.806 300.204L792.787 303.679L905.215 239.607L903.234 236.132ZM793.797 301.941V243.502H789.797V301.941H793.797ZM792.787 245.24L905.215 181.168L903.234 177.693L790.806 241.765L792.787 245.24ZM902.224 179.43V237.87H906.224V179.43H902.224ZM854.991 197.737V144.226H850.991V197.737H854.991ZM852.001 145.964L898.965 172.719L900.945 169.244L853.981 142.488L852.001 145.964ZM898.965 169.244L852.001 195.999L853.981 199.474L900.945 172.719L898.965 169.244ZM903.237 97.4252L729.614 195.997L731.589 199.476L905.212 100.904L903.237 97.4252ZM732.602 197.737V138.593H728.602V197.737H732.602ZM731.594 140.33L905.217 41.0533L903.232 37.5809L729.609 136.857L731.594 140.33ZM902.224 39.3171V99.1645H906.224V39.3171H902.224ZM479.281 -151.998L428.048 -181.57L426.048 -178.105L477.281 -148.534L479.281 -151.998ZM429.048 -179.838V-238.981H425.048V-179.838H429.048ZM426.05 -237.248L538.48 -172.472L540.477 -175.938L428.047 -240.714L426.05 -237.248ZM537.478 -174.205V-115.062H541.478V-174.205H537.478ZM540.475 -116.795L479.278 -152L477.284 -148.532L538.481 -113.328L540.475 -116.795ZM493.513 -349.198L544.747 -378.77L542.748 -382.234L491.513 -352.663L493.513 -349.198ZM542.76 -378.763L716.383 -280.191L718.358 -283.669L544.735 -382.242L542.76 -378.763ZM716.375 -283.665L543.463 -184.388L545.455 -180.919L718.366 -280.196L716.375 -283.665ZM545.449 -184.392L433.02 -248.463L431.039 -244.988L543.469 -180.916L545.449 -184.392ZM433.029 -244.994L484.262 -274.565L482.262 -278.03L431.029 -248.458L433.029 -244.994ZM482.28 -274.555L543.477 -240.055L545.441 -243.539L484.244 -278.04L482.28 -274.555ZM545.449 -240.059L615.895 -280.192L613.915 -283.668L543.469 -243.535L545.449 -240.059ZM615.887 -283.672L493.495 -352.673L491.531 -349.188L613.922 -280.188L615.887 -283.672ZM482.272 -344.264L594.702 -280.192L596.682 -283.668L484.252 -347.74L482.272 -344.264ZM594.692 -283.662L543.459 -254.091L545.459 -250.626L596.692 -280.198L594.692 -283.662ZM545.441 -254.101L484.244 -288.601L482.28 -285.116L543.477 -250.616L545.441 -254.101ZM482.28 -288.601L421.085 -254.101L423.049 -250.616L484.244 -285.117L482.28 -288.601ZM423.067 -254.091L371.834 -283.662L369.835 -280.198L421.067 -250.626L423.067 -254.091ZM371.825 -280.192L484.252 -344.264L482.272 -347.74L369.844 -283.668L371.825 -280.192ZM364.854 -271.749L416.087 -242.177L418.086 -245.642L366.853 -275.213L364.854 -271.749ZM415.086 -243.909V-174.205H419.086V-243.909H415.086ZM416.104 -172.463L477.299 -137.962L479.263 -141.447L418.069 -175.947L416.104 -172.463ZM476.281 -139.705V-80.5613H480.281V-139.705H476.281ZM479.28 -82.2943L366.852 -147.07L364.855 -143.604L477.283 -78.8284L479.28 -82.2943ZM367.853 -145.337V-273.481H363.853V-145.337H367.853ZM364.859 -132.336L486.537 -62.6319L488.526 -66.1027L366.848 -135.807L364.859 -132.336ZM489.532 -64.3673V-134.072H485.532V-64.3673H489.532ZM486.532 -132.34L537.767 -102.768L539.766 -106.232L488.531 -135.804L486.532 -132.34ZM536.767 -104.5V23.6436H540.767V-104.5H536.767ZM539.762 21.9091L366.849 -77.3671L364.858 -73.8982L537.771 25.378L539.762 21.9091ZM367.853 -75.6327V-134.072H363.853V-75.6327H367.853ZM550.729 23.6436V-104.5H546.729V23.6436H550.729ZM549.719 -102.763L662.147 -166.835L660.166 -170.31L547.738 -106.238L549.719 -102.763ZM659.156 -168.572V-109.429H663.156V-168.572H659.156ZM660.174 -111.171L598.979 -76.6708L600.944 -73.1864L662.139 -107.687L660.174 -111.171ZM597.962 -74.9286V-5.224H601.962V-74.9286H597.962ZM598.98 -6.96643L547.747 21.9011L549.71 25.386L600.943 -3.48157L598.98 -6.96643ZM721.361 -77.3703L608.933 -13.2984L610.914 -9.82315L723.342 -73.895L721.361 -77.3703ZM611.924 -11.5608V-70H607.924V-11.5608H611.924ZM610.914 -68.2624L723.342 -132.334L721.361 -135.81L608.933 -71.7376L610.914 -68.2624ZM720.351 -134.072V-75.6327H724.351V-134.072H720.351ZM673.118 -115.766V-169.276H669.118V-115.766H673.118ZM670.128 -167.538L717.092 -140.783L719.072 -144.259L672.108 -171.014L670.128 -167.538ZM717.092 -144.259L670.128 -117.503L672.108 -114.028L719.072 -140.783L717.092 -144.259ZM721.364 -216.077L547.741 -117.505L549.716 -114.026L723.339 -212.599L721.364 -216.077ZM550.729 -115.766V-174.909H546.729V-115.766H550.729ZM549.721 -173.173L723.344 -272.449L721.359 -275.921L547.736 -176.645L549.721 -173.173ZM720.351 -274.185V-214.338H724.351V-274.185H720.351ZM113.431 -151.642L62.1985 -181.213L60.1989 -177.749L111.432 -148.177L113.431 -151.642ZM63.1987 -179.481V-238.624H59.1987V-179.481H63.1987ZM60.2003 -236.891L172.628 -172.115L174.625 -175.581L62.1972 -240.357L60.2003 -236.891ZM171.626 -173.848V-114.705H175.626V-173.848H171.626ZM174.624 -116.439L113.429 -151.643L111.434 -148.176L172.629 -112.972L174.624 -116.439ZM127.663 -348.842L178.896 -378.414L176.896 -381.878L125.663 -352.306L127.663 -348.842ZM176.908 -378.407L350.531 -279.834L352.506 -283.313L178.883 -381.885L176.908 -378.407ZM350.523 -283.308L177.612 -184.032L179.603 -180.563L352.514 -279.839L350.523 -283.308ZM179.598 -184.035L67.17 -248.107L65.1894 -244.632L177.617 -180.56L179.598 -184.035ZM67.1795 -244.637L118.412 -274.209L116.413 -277.673L65.1799 -248.102L67.1795 -244.637ZM116.43 -274.199L177.625 -239.699L179.59 -243.183L118.395 -277.683L116.43 -274.199ZM179.597 -239.703L250.043 -279.836L248.063 -283.312L177.617 -243.179L179.597 -239.703ZM250.035 -283.316L127.645 -352.316L125.681 -348.832L248.07 -279.832L250.035 -283.316ZM116.422 -343.908L228.85 -279.836L230.831 -283.311L118.403 -347.383L116.422 -343.908ZM228.84 -283.306L177.608 -253.734L179.607 -250.27L230.84 -279.842L228.84 -283.306ZM179.59 -253.744L118.395 -288.245L116.43 -284.76L177.625 -250.26L179.59 -253.744ZM116.43 -288.245L55.2355 -253.744L57.2 -250.26L118.395 -284.76L116.43 -288.245ZM57.2176 -253.734L5.98469 -283.306L3.98507 -279.842L55.2179 -250.27L57.2176 -253.734ZM5.97515 -279.836L118.403 -343.908L116.422 -347.383L3.99461 -283.311L5.97515 -279.836ZM-0.995898 -271.392L50.237 -241.821L52.2366 -245.285L1.00371 -274.857L-0.995898 -271.392ZM49.2368 -243.553V-173.848H53.2368V-243.553H49.2368ZM50.2546 -172.106L111.449 -137.606L113.414 -141.09L52.219 -175.591L50.2546 -172.106ZM110.432 -139.348V-80.205H114.432V-139.348H110.432ZM113.43 -81.9379L1.00235 -146.714L-0.994542 -143.248L111.433 -78.472L113.43 -81.9379ZM2.00391 -144.981V-273.125H-1.99609V-144.981H2.00391ZM-0.990245 -131.98L120.688 -62.2756L122.676 -65.7464L0.998057 -135.451L-0.990245 -131.98ZM123.682 -64.011V-133.716H119.682V-64.011H123.682ZM120.682 -131.983L171.915 -102.412L173.915 -105.876L122.682 -135.448L120.682 -131.983ZM170.915 -104.144V24H174.915V-104.144H170.915ZM173.911 22.2655L0.999736 -77.0107L-0.991924 -73.5418L171.919 25.7345L173.911 22.2655ZM2.00391 -75.2762V-133.716H-1.99609V-75.2762H2.00391ZM184.877 24V-104.144H180.877V24H184.877ZM183.867 -102.406L296.295 -166.478L294.314 -169.953L181.887 -105.882L183.867 -102.406ZM293.305 -168.216V-109.073H297.305V-168.216H293.305ZM294.322 -110.815L233.127 -76.3145L235.092 -72.8301L296.287 -107.33L294.322 -110.815ZM232.11 -74.5723V-4.86755H236.11V-74.5723H232.11ZM233.128 -6.60999L181.895 22.2576L183.859 25.7424L235.091 -3.12512L233.128 -6.60999ZM355.509 -77.0139L243.081 -12.9421L245.062 -9.46683L357.49 -73.5386L355.509 -77.0139ZM246.072 -11.2045V-69.6437H242.072V-11.2045H246.072ZM245.062 -67.906L357.49 -131.978L355.509 -135.453L243.081 -71.3813L245.062 -67.906ZM354.499 -133.716V-75.2762H358.499V-133.716H354.499ZM307.266 -115.409V-168.92H303.266V-115.409H307.266ZM304.276 -167.182L351.24 -140.427L353.22 -143.902L306.256 -170.658L304.276 -167.182ZM351.24 -143.902L304.276 -117.147L306.256 -113.672L353.22 -140.427L351.24 -143.902ZM355.512 -215.721L181.889 -117.149L183.864 -113.67L357.487 -212.242L355.512 -215.721ZM184.877 -115.409V-174.552H180.877V-115.409H184.877ZM183.87 -172.816L357.492 -272.093L355.507 -275.565L181.884 -176.289L183.87 -172.816ZM354.499 -273.829V-213.981H358.499V-273.829H354.499Z"
        fill="url(#paint0_radial_1569_292)" fill-opacity="0.5" mask="url(#path-1-inside-1_1569_292)" />
    <path
        d="M614.54 345.701L493.677 277.561L542.896 249.152L714.498 346.577L543.602 444.696L433.186 381.771L482.414 353.356L543.112 387.576L543.606 387.855L544.099 387.574L614.544 347.441L616.077 346.568L614.54 345.701ZM482.9 340.772L482.409 340.496L481.918 340.772L421.22 374.993L371.991 346.578L482.409 283.651L592.826 346.578L543.598 374.993L482.9 340.772ZM415.233 454.297V454.882L415.742 455.169L476.428 489.382V546.211L366 482.587V356.753L415.233 385.17V454.297ZM366 496.156L486.181 565.003L487.678 565.86V564.135V496.162L536.911 524.579V650.419L366 552.291V496.156ZM598.615 552.703L598.106 552.989V553.574V622.694L548.873 650.435V524.583L659.301 461.651V518.489L598.615 552.703ZM477.926 477.37L427.195 448.087V391.252L537.623 454.875V511.712L477.928 477.37L477.926 477.37ZM720.495 496.151V552.289L610.068 615.221V559.083L720.495 496.151ZM715.206 485.981L671.263 511.016V460.947L715.206 485.981ZM720.495 413.582L548.873 511.019V454.173L720.495 356.041V413.582Z"
        fill="url(#paint1_linear_1569_292)" stroke="url(#paint2_linear_1569_292)" stroke-width="2" />
    <defs>
        <radialGradient id="paint0_radial_1569_292" cx="0" cy="0" r="1"
            gradientUnits="userSpaceOnUse"
            gradientTransform="translate(874.499 339.999) rotate(145.463) scale(628.822 550.286)">
            <stop stop-color="white" />
            <stop offset="1" stop-color="white" stop-opacity="0" />
        </radialGradient>
        <linearGradient id="paint1_linear_1569_292" x1="365" y1="553.5" x2="721" y2="356"
            gradientUnits="userSpaceOnUse">
            <stop stop-color="white" stop-opacity="0.1" />
            <stop offset="1" stop-color="white" />
        </linearGradient>
        <linearGradient id="paint2_linear_1569_292" x1="721" y1="356" x2="365" y2="552"
            gradientUnits="userSpaceOnUse">
            <stop stop-color="white" stop-opacity="0.5" />
            <stop offset="1" stop-color="white" stop-opacity="0" />
        </linearGradient>
    </defs>
</svg>