<svg width="37" height="29" viewBox="0 0 37 29" fill="none" xmlns="http://www.w3.org/2000/svg">
<path d="M29.8089 15.535V13.4795H36.1731V15.535H29.8089ZM32.012 28.3966L26.8844 24.5959L28.1322 22.9628L33.2594 26.763L32.012 28.3966ZM28.1645 5.93641L26.9172 4.30281L31.9398 0.53125L33.1872 2.16484L28.1645 5.93641ZM6.11873 26.5361V19.2597H3.20123C2.47498 19.2597 1.84639 18.9975 1.31545 18.4731C0.784512 17.9487 0.519043 17.3239 0.519043 16.5986V12.4159C0.519043 11.6941 0.784512 11.0677 1.31545 10.5367C1.84639 10.0058 2.47279 9.74031 3.19467 9.74031H10.9689L19.269 4.78609V24.2139L10.9689 19.2597H8.1742V26.5361H6.11873ZM17.214 20.583V8.43156L11.5239 11.7958H3.15154C3.00717 11.7958 2.87498 11.8558 2.75498 11.9758C2.63467 12.0961 2.57451 12.2284 2.57451 12.3728V16.6272C2.57451 16.7716 2.63467 16.9039 2.75498 17.0242C2.87498 17.1442 3.00717 17.2042 3.15154 17.2042H11.5239L17.214 20.583ZM22.0815 20.2909V8.70906C22.8015 9.35938 23.383 10.1845 23.8258 11.1845C24.2689 12.1848 24.4905 13.29 24.4905 14.5C24.4905 15.71 24.2689 16.8152 23.8258 17.8155C23.383 18.8155 22.8015 19.6406 22.0815 20.2909Z" fill="#ED7950"/>
</svg>
