<svg width="37" height="29" viewBox="0 0 37 29" fill="none" xmlns="http://www.w3.org/2000/svg">
<path d="M18.9516 23.035C19.239 23.035 19.4869 22.9331 19.6952 22.7294C19.9032 22.5256 20.0073 22.2828 20.0073 22.0009C20.0073 21.719 19.9034 21.4759 19.6957 21.2715C19.4883 21.0672 19.2409 20.965 18.9535 20.965C18.6662 20.965 18.4183 21.0669 18.21 21.2706C18.0016 21.4744 17.8974 21.7172 17.8974 21.999C17.8974 22.2809 18.0013 22.524 18.209 22.7284C18.4167 22.9328 18.6643 23.035 18.9516 23.035ZM18.9516 15.5205C19.239 15.5205 19.4869 15.4186 19.6952 15.2148C19.9032 15.0111 20.0073 14.7683 20.0073 14.4864C20.0073 14.2045 19.9034 13.9614 19.6957 13.757C19.4883 13.5529 19.2409 13.4509 18.9535 13.4509C18.6662 13.4509 18.4183 13.5528 18.21 13.7565C18.0016 13.96 17.8974 14.2026 17.8974 14.4845C17.8974 14.7664 18.0013 15.0095 18.209 15.2139C18.4167 15.4183 18.6643 15.5205 18.9516 15.5205ZM18.9516 8.00592C19.239 8.00592 19.4869 7.90404 19.6952 7.70029C19.9032 7.49654 20.0073 7.25373 20.0073 6.97186C20.0073 6.6903 19.9034 6.44732 19.6957 6.24295C19.4883 6.03857 19.2409 5.93639 18.9535 5.93639C18.6662 5.93639 18.4183 6.03826 18.21 6.24201C18.0016 6.44576 17.8974 6.68858 17.8974 6.97045C17.8974 7.25201 18.0013 7.49498 18.209 7.69936C18.4167 7.90373 18.6643 8.00592 18.9516 8.00592ZM34.2813 28.4326H3.60904C2.88076 28.4326 2.2514 28.1726 1.72096 27.6526C1.19084 27.1323 0.925781 26.515 0.925781 25.8006V19.9445C2.10453 19.5505 3.06952 18.8622 3.82074 17.8797C4.57163 16.8969 4.94708 15.7709 4.94708 14.5019C4.94708 13.2325 4.57386 12.0958 3.82743 11.0917C3.08067 10.0873 2.11346 9.40373 0.925781 9.04092V3.18529C0.925781 2.47061 1.19084 1.85326 1.72096 1.33326C2.2514 0.81295 2.88076 0.552795 3.60904 0.552795H34.2813C35.0096 0.552795 35.639 0.81295 36.1694 1.33326C36.6995 1.85326 36.9646 2.47061 36.9646 3.18529V9.04092C35.7858 9.40373 34.8208 10.0864 34.0696 11.0889C33.3187 12.0911 32.9433 13.2242 32.9433 14.4883C32.9433 15.7611 33.3165 16.8901 34.0629 17.8755C34.8094 18.8608 35.7766 19.5505 36.9646 19.9445V25.8006C36.9646 26.515 36.6995 27.1323 36.1694 27.6526C35.639 28.1726 35.0096 28.4326 34.2813 28.4326ZM34.2813 26.3772C34.4527 26.3772 34.5935 26.3231 34.7038 26.215C34.814 26.1069 34.8691 25.9687 34.8691 25.8006V21.3728C33.6649 20.6059 32.6935 19.6211 31.955 18.4183C31.2169 17.2155 30.8478 15.9086 30.8478 14.4976C30.8478 13.0748 31.2185 11.7634 31.9598 10.5634C32.7012 9.36342 33.6709 8.37998 34.8691 7.61311V3.18529C34.8691 3.01686 34.814 2.87858 34.7038 2.77045C34.5935 2.66233 34.4527 2.60826 34.2813 2.60826H3.60904C3.43764 2.60826 3.29683 2.66233 3.1866 2.77045C3.07605 2.87858 3.02078 3.01686 3.02078 3.18529V7.61311C4.25114 8.37998 5.22903 9.36155 5.95444 10.5578C6.67985 11.754 7.04256 13.0658 7.04256 14.493C7.04256 15.9148 6.68128 17.2251 5.95874 18.4239C5.23652 19.6229 4.25719 20.6059 3.02078 21.3728V25.8006C3.02078 25.9687 3.07605 26.1069 3.1866 26.215C3.29683 26.3231 3.43764 26.3772 3.60904 26.3772H34.2813Z" fill="url(#paint0_radial_2989_2653)"/>
<defs>
<radialGradient id="paint0_radial_2989_2653" cx="0" cy="0" r="1" gradientUnits="userSpaceOnUse" gradientTransform="translate(18.9379 42.6249) rotate(-89.99) scale(42.0721 98.757)">
<stop stop-color="#3EA3FF"/>
<stop offset="0.375" stop-color="#3EA3FF"/>
<stop offset="0.66" stop-color="#D83CFF"/>
<stop offset="0.99" stop-color="#FF4291"/>
</radialGradient>
</defs>
</svg>
